{
.appVersion = "1342";
copyright = "Copyright 2020 The Kaisei Project Authors (https://github.com/Font-Kai/Kaisei)";
customParameters = (
{
name = vendorID;
value = FKAI;
},
{
name = localizedFamilyName;
value = "Japanese;解星-デコール";
},
{
name = license;
value = "This Font Software is licensed under the SIL Open Font License, Version 1.1. This license is available with a FAQ at: https://scripts.sil.org/OFL";
},
{
name = licenseURL;
value = "https://scripts.sil.org/OFL";
},
{
name = fsType;
value = (
);
},
{
name = glyphOrder;
value = (
.notdef,
space,
exclam,
quotedbl,
numbersign,
dollar,
percent,
ampersand,
quotesingle,
parenleft,
parenright,
asterisk,
plus,
comma,
hyphen,
period,
slash,
zero,
one,
two,
three,
four,
five,
six,
seven,
eight,
nine,
colon,
semicolon,
less,
equal,
greater,
question,
at,
A,
B,
C,
D,
E,
F,
G,
H,
I,
J,
K,
L,
M,
N,
O,
P,
Q,
R,
S,
T,
U,
V,
W,
X,
Y,
Z,
bracketleft,
yen,
bracketright,
asciicircum,
underscore,
grave,
a,
b,
c,
d,
e,
f,
g,
h,
i,
j,
k,
l,
m,
n,
o,
p,
q,
r,
s,
t,
u,
v,
w,
x,
y,
z,
braceleft,
brokenbar,
braceright,
tilde,
quoteright,
backslash,
quoteleft,
bar,
asciitilde,
exclamdown,
cent,
sterling,
fraction,
florin,
section,
currency,
quotedblleft,
guillemetleft,
guilsinglleft,
guilsinglright,
fi,
fl,
endash,
dagger.prop,
daggerdbl.prop,
periodcentered,
paragraph,
bullet,
quotesinglbase,
quotedblbase,
quotedblright,
guillemetright,
ellipsis.full,
perthousand.full,
questiondown,
acutecomb,
circumflex,
macron,
brevecomb,
dotaccentcomb,
dieresiscomb,
ring,
cedilla,
hungarumlautcomb,
ogonekcomb,
caroncomb,
emdash,
AE,
ordfeminine,
Lslash,
Oslash,
OE,
ordmasculine,
ae,
idotless,
lslash,
oslash,
oe,
germandbls,
softhyphen,
copyright,
logicalnot,
registered,
degree,
plusminus,
twosuperior,
threesuperior,
micro,
onesuperior,
onequarter,
onehalf,
threequarters,
Agrave,
Aacute,
Acircumflex,
Atilde,
Adieresis,
Aring,
Ccedilla,
Egrave,
Eacute,
Ecircumflex,
Edieresis,
Igrave,
Iacute,
Icircumflex,
Idieresis,
Eth,
Ntilde,
Ograve,
Oacute,

glyphs = (
{
glyphname = "period-han.half";
lastChange = "2021-04-19 16:42:50 +0000";
layers = (
{
layerId = "7C35F0AE-75E9-4EA7-B446-8B6431835EB7";
paths = (
{
closed = 1;
nodes = (
"341 28 OFFCURVE",
"298 -13 OFFCURVE",
"250 -13 CURVE SMOOTH",
"202 -13 OFFCURVE",
"159 28 OFFCURVE",
"159 80 CURVE SMOOTH",
"159 132 OFFCURVE",
"202 173 OFFCURVE",
"250 173 CURVE SMOOTH",
"298 173 OFFCURVE",
"341 132 OFFCURVE",
"341 80 CURVE SMOOTH"
);
},
{
closed = 1;
nodes = (
"376 147 OFFCURVE",
"322 204 OFFCURVE",
"250 204 CURVE SMOOTH",
"178 204 OFFCURVE",
"124 147 OFFCURVE",
"124 80 CURVE SMOOTH",
"124 13 OFFCURVE",
"178 -44 OFFCURVE",
"250 -44 CURVE SMOOTH",
"322 -44 OFFCURVE",
"376 13 OFFCURVE",
"376 80 CURVE SMOOTH"
);
}
);
vertWidth = 1000;
width = 500;
},
{
layerId = "C3C75DF7-0318-4740-9DA2-680DF808C9D5";
paths = (
{
closed = 1;
nodes = (
"339 29 OFFCURVE",
"297 -11 OFFCURVE",
"250 -11 CURVE SMOOTH",
"203 -11 OFFCURVE",
"161 29 OFFCURVE",
"161 80 CURVE SMOOTH",
"161 131 OFFCURVE",
"203 171 OFFCURVE",
"250 171 CURVE SMOOTH",
"297 171 OFFCURVE",
"339 131 OFFCURVE",
"339 80 CURVE SMOOTH"
);
},
{
closed = 1;
nodes = (
"378 149 OFFCURVE",
"323 206 OFFCURVE",
"250 206 CURVE SMOOTH",
"177 206 OFFCURVE",
"122 149 OFFCURVE",
"122 80 CURVE SMOOTH",
"122 11 OFFCURVE",
"177 -46 OFFCURVE",
"250 -46 CURVE SMOOTH",
"323 -46 OFFCURVE",
"378 11 OFFCURVE",
"378 80 CURVE SMOOTH"
);
}
);
vertWidth = 1000;
width = 500;
},
{
layerId = "39409886-7F43-4FCA-9A57-4D4CD31E7C44";
paths = (
{
closed = 1;
nodes = (
"337 32 OFFCURVE",
"298 -9 OFFCURVE",
"250 -9 CURVE SMOOTH",
"202 -9 OFFCURVE",
"163 32 OFFCURVE",
"163 80 CURVE SMOOTH",
"163 128 OFFCURVE",
"202 169 OFFCURVE",
"250 169 CURVE SMOOTH",
"298 169 OFFCURVE",
"337 128 OFFCURVE",
"337 80 CURVE SMOOTH"
);
},
{
closed = 1;
nodes = (
"380 152 OFFCURVE",
"321 208 OFFCURVE",
"250 208 CURVE SMOOTH",
"179 208 OFFCURVE",
"120 152 OFFCURVE",
"120 80 CURVE SMOOTH",
"120 8 OFFCURVE",
"179 -48 OFFCURVE",
"250 -48 CURVE SMOOTH",
"321 -48 OFFCURVE",
"380 8 OFFCURVE",
"380 80 CURVE SMOOTH"
);
}
);
vertWidth = 1000;
width = 500;
}
);
note = cid00327;
unicode = FF61;
},
{
glyphname = "comma-han.half";
lastChange = "2021-04-19 16:42:50 +0000";
layers = (
{
layerId = "7C35F0AE-75E9-4EA7-B446-8B6431835EB7";
paths = (
{
closed = 1;
nodes = (
"354 -11 OFFCURVE",
"276 101 OFFCURVE",
"257 127 CURVE SMOOTH",
"246 141 OFFCURVE",
"232 157 OFFCURVE",
"213 157 CURVE SMOOTH",
"207 157 OFFCURVE",
"201 156 OFFCURVE",
"196 153 CURVE",
"182 148 OFFCURVE",
"146 106 OFFCURVE",
"146 92 CURVE SMOOTH",
"146 80 OFFCURVE",
"153 79 OFFCURVE",
"163 79 CURVE SMOOTH",
"165 79 LINE SMOOTH",
"177 79 OFFCURVE",
"186 73 OFFCURVE",
"195 66 CURVE SMOOTH",
"209 54 OFFCURVE",
"226 44 OFFCURVE",
"239 31 CURVE SMOOTH",
"262 9 OFFCURVE",
"285 -13 OFFCURVE",
"307 -36 CURVE SMOOTH",
"312 -42 OFFCURVE",
"327 -60 OFFCURVE",
"334 -60 CURVE SMOOTH",
"346 -60 OFFCURVE",
"354 -49 OFFCURVE",
"354 -38 CURVE SMOOTH"
);
}
);
vertWidth = 1000;
width = 500;
},
{
layerId = "C3C75DF7-0318-4740-9DA2-680DF808C9D5";
paths = (
{
closed = 1;
nodes = (
"357 -11 OFFCURVE",
"280 101 OFFCURVE",
"260 127 CURVE SMOOTH",
"248 142 OFFCURVE",
"234 158 OFFCURVE",
"213 158 CURVE SMOOTH",
"206 158 OFFCURVE",
"199 156 OFFCURVE",
"193 153 CURVE SMOOTH",
"180 148 OFFCURVE",
"143 107 OFFCURVE",
"143 92 CURVE SMOOTH",
"143 79 OFFCURVE",
"152 78 OFFCURVE",
"163 78 CURVE SMOOTH",
"165 78 LINE SMOOTH",
"176 78 OFFCURVE",
"183 73 OFFCURVE",
"192 66 CURVE SMOOTH",
"206 54 OFFCURVE",
"223 44 OFFCURVE",
"236 31 CURVE SMOOTH",
"259 9 OFFCURVE",
"283 -13 OFFCURVE",
"304 -36 CURVE SMOOTH",
"308 -41 OFFCURVE",
"312 -46 OFFCURVE",
"317 -51 CURVE SMOOTH",
"320 -54 OFFCURVE",
"329 -61 OFFCURVE",
"334 -61 CURVE SMOOTH",
"348 -61 OFFCURVE",
"357 -51 OFFCURVE",
"357 -38 CURVE SMOOTH"
);
}
);
vertWidth = 1000;
width = 500;
},
{
layerId = "39409886-7F43-4FCA-9A57-4D4CD31E7C44";
paths = (
{
closed = 1;
nodes = (
"359 -16 OFFCURVE",
"282 106 OFFCURVE",
"261 133 CURVE SMOOTH",
"250 149 OFFCURVE",
"242 159 OFFCURVE",
"221 159 CURVE SMOOTH",
"203 159 OFFCURVE",
"141 104 OFFCURVE",
"141 86 CURVE SMOOTH",
"141 71 OFFCURVE",
"151 70 OFFCURVE",
"163 70 CURVE SMOOTH",
"169 70 OFFCURVE",
"173 70 OFFCURVE",
"179 67 CURVE SMOOTH",
"191 60 OFFCURVE",
"220 37 OFFCURVE",
"230 27 CURVE SMOOTH",
"255 4 OFFCURVE",
"280 -19 OFFCURVE",
"302 -44 CURVE",
"307 -48 OFFCURVE",
"311 -53 OFFCURVE",
"315 -58 CURVE SMOOTH",
"319 -62 OFFCURVE",
"328 -69 OFFCURVE",
"334 -69 CURVE SMOOTH",
"349 -69 OFFCURVE",
"359 -58 OFFCURVE",
"359 -44 CURVE SMOOTH"
);
}
);
vertWidth = 1000;
width = 500;
}
);
note = cid00330;
unicode = FF64;
},
{
glyphname = "wo-kata.half";
lastChange = "2021-04-19 16:42:50 +0000";
layers = (
{
layerId = "7C35F0AE-75E9-4EA7-B446-8B6431835EB7";
paths = (
{
closed = 1;
nodes = (
"119 665 LINE",
"119 614 LINE",
"362 622 LINE",
"359 556 OFFCURVE",
"353 491 OFFCURVE",
"343 425 CURVE",
"147 425 LINE",
"147 377 LINE",
"334 377 LINE",
"315 284 OFFCURVE",
"279 155 OFFCURVE",
"213 84 CURVE SMOOTH",
"192 61 OFFCURVE",
"166 45 OFFCURVE",
"140 27 CURVE SMOOTH",
"137 25 OFFCURVE",
"132 23 OFFCURVE",
"132 18 CURVE SMOOTH",
"132 14 OFFCURVE",
"140 13 OFFCURVE",
"143 13 CURVE SMOOTH",
"167 13 OFFCURVE",
"218 42 OFFCURVE",
"237 57 CURVE SMOOTH",
"383 176 OFFCURVE",
"424 489 OFFCURVE",
"428 668 CURVE"
);
}
);
vertWidth = 1000;
width = 500;
},
{
layerId = "C3C75DF7-0318-4740-9DA2-680DF808C9D5";
paths = (
{
closed = 1;
nodes = (
"116 666 LINE",
"116 614 LINE",
"359 622 LINE",
"356 556 OFFCURVE",
"350 491 OFFCURVE",
"340 426 CURVE",
"144 426 LINE",
"144 377 LINE",
"331 377 LINE",
"312 284 OFFCURVE",
"276 154 OFFCURVE",
"210 84 CURVE SMOOTH",
"189 62 OFFCURVE",
"163 45 OFFCURVE",
"137 28 CURVE",
"134 25 OFFCURVE",
"129 23 OFFCURVE",
"129 18 CURVE SMOOTH",
"129 13 OFFCURVE",
"140 12 OFFCURVE",
"143 12 CURVE SMOOTH",
"169 12 OFFCURVE",
"220 41 OFFCURVE",
"240 57 CURVE SMOOTH",
"387 180 OFFCURVE",
"427 487 OFFCURVE",
"431 669 CURVE"
);
}
);
vertWidth = 1000;
width = 500;
},
{
layerId = "39409886-7F43-4FCA-9A57-4D4CD31E7C44";
paths = (
{
closed = 1;
nodes = (
"114 668 LINE",
"114 614 LINE",
"358 621 LINE",
"356 556 OFFCURVE",
"349 491 OFFCURVE",
"339 427 CURVE",
"142 427 LINE",
"142 374 LINE",
"329 374 LINE",
"311 277 OFFCURVE",
"275 156 OFFCURVE",
"209 81 CURVE SMOOTH",
"191 61 OFFCURVE",
"170 42 OFFCURVE",
"147 28 CURVE SMOOTH",
"141 25 OFFCURVE",
"125 18 OFFCURVE",
"125 10 CURVE SMOOTH",
"125 4 OFFCURVE",
"128 2 OFFCURVE",
"133 2 CURVE SMOOTH",
"151 2 OFFCURVE",
"168 8 OFFCURVE",
"184 15 CURVE SMOOTH",
"246 41 OFFCURVE",
"291 92 OFFCURVE",
"322 150 CURVE SMOOTH",
"398 292 OFFCURVE",
"428 512 OFFCURVE",
"432 672 CURVE"
);
}
);
vertWidth = 1000;
width = 500;
}
);
note = cid00332;
unicode = FF66;
},
{
glyphname = "asmall-kata.half";
lastChange = "2021-04-19 16:42:50 +0000";
layers = (
{
layerId = "7C35F0AE-75E9-4EA7-B446-8B6431835EB7";
paths = (
{
closed = 1;
nodes = (
"277 410 LINE",
"229 410 LINE",
"229 294 OFFCURVE",
"238 168 OFFCURVE",
"179 64 CURVE SMOOTH",
"164 37 OFFCURVE",
"143 18 OFFCURVE",
"121 -3 CURVE SMOOTH",
"118 -6 OFFCURVE",
"117 -8 OFFCURVE",
"117 -12 CURVE SMOOTH",
"117 -15 OFFCURVE",
"122 -19 OFFCURVE",
"125 -19 CURVE SMOOTH",
"131 -19 OFFCURVE",
"151 -9 OFFCURVE",
"157 -5 CURVE SMOOTH",
"268 63 OFFCURVE",
"277 225 OFFCURVE",
"277 343 CURVE SMOOTH"
);
},
{
closed = 1;
nodes = (
"117 505 LINE",
"117 469 LINE",
"349 469 LINE",
"345 395 OFFCURVE",
"329 326 OFFCURVE",
"289 263 CURVE SMOOTH",
"286 258 OFFCURVE",
"285 256 OFFCURVE",
"285 251 CURVE SMOOTH",
"285 248 OFFCURVE",
"289 244 OFFCURVE",
"292 244 CURVE SMOOTH",
"294 244 OFFCURVE",
"296 245 OFFCURVE",
"297 245 CURVE",
"378 301 OFFCURVE",
"402 413 OFFCURVE",
"404 505 CURVE"
);
}
);
vertWidth = 1000;
width = 500;
},
{
layerId = "C3C75DF7-0318-4740-9DA2-680DF808C9D5";
paths = (
{
closed = 1;
nodes = (
"280 410 LINE",
"226 410 LINE",
"226 296 OFFCURVE",
"235 167 OFFCURVE",
"176 64 CURVE SMOOTH",
"161 37 OFFCURVE",
"139 19 OFFCURVE",
"118 -3 CURVE SMOOTH",
"115 -6 OFFCURVE",
"114 -8 OFFCURVE",
"114 -12 CURVE SMOOTH",
"114 -16 OFFCURVE",
"122 -20 OFFCURVE",
"125 -20 CURVE SMOOTH",
"132 -20 OFFCURVE",
"153 -9 OFFCURVE",
"160 -5 CURVE SMOOTH",
"271 63 OFFCURVE",
"280 225 OFFCURVE",
"280 343 CURVE SMOOTH"
);
},
{
closed = 1;
nodes = (
"114 506 LINE",
"114 468 LINE",
"346 468 LINE",
"342 392 OFFCURVE",
"326 328 OFFCURVE",
"286 263 CURVE SMOOTH",
"283 259 OFFCURVE",
"282 256 OFFCURVE",
"282 251 CURVE SMOOTH",
"282 247 OFFCURVE",
"289 244 OFFCURVE",
"292 244 CURVE SMOOTH",
"295 244 OFFCURVE",
"297 245 OFFCURVE",
"300 245 CURVE",
"382 301 OFFCURVE",
"405 413 OFFCURVE",
"407 506 CURVE"
);
}
);
vertWidth = 1000;
width = 500;
},
{
layerId = "39409886-7F43-4FCA-9A57-4D4CD31E7C44";
paths = (
{
closed = 1;
nodes = (
"258 380 LINE",
"206 380 LINE",
"206 264 OFFCURVE",
"216 132 OFFCURVE",
"156 27 CURVE SMOOTH",
"140 -1 OFFCURVE",
"120 -20 OFFCURVE",
"97 -42 CURVE SMOOTH",
"95 -44 OFFCURVE",
"93 -46 OFFCURVE",
"93 -49 CURVE SMOOTH",
"93 -53 OFFCURVE",
"95 -56 OFFCURVE",
"99 -56 CURVE SMOOTH",
"107 -56 OFFCURVE",
"130 -44 OFFCURVE",
"137 -40 CURVE SMOOTH",
"252 31 OFFCURVE",
"258 192 OFFCURVE",
"258 312 CURVE SMOOTH"
);
},
{
closed = 1;
nodes = (
"98 484 LINE",
"98 444 LINE",
"326 444 LINE",
"325 372 OFFCURVE",
"309 294 OFFCURVE",
"267 234 CURVE SMOOTH",
"265 231 OFFCURVE",
"263 228 OFFCURVE",
"263 224 CURVE SMOOTH",
"263 222 OFFCURVE",
"264 217 OFFCURVE",
"267 217 CURVE SMOOTH",
"272 217 OFFCURVE",
"277 219 OFFCURVE",
"282 222 CURVE SMOOTH",
"364 268 OFFCURVE",
"388 397 OFFCURVE",
"388 484 CURVE"
);
}
);
vertWidth = 1000;
width = 500;
}
);
note = cid00333;
unicode = FF67;
},
{
glyphname = "ismall-kata.half";
lastChange = "2021-04-19 16:42:50 +0000";
layers = (
{
layerId = "7C35F0AE-75E9-4EA7-B446-8B6431835EB7";
paths = (
{
closed = 1;
nodes = (
"328 560 LINE",
"296 469 OFFCURVE",
"237 361 OFFCURVE",
"174 288 CURVE SMOOTH",
"156 267 OFFCURVE",
"135 251 OFFCURVE",
"114 233 CURVE SMOOTH",
"110 229 OFFCURVE",
"105 225 OFFCURVE",
"105 219 CURVE SMOOTH",
"105 212 OFFCURVE",
"113 210 OFFCURVE",
"118 210 CURVE SMOOTH",
"129 210 OFFCURVE",
"169 233 OFFCURVE",
"180 241 CURVE SMOOTH",
"207 259 OFFCURVE",
"231 283 OFFCURVE",
"251 308 CURVE",
"251 -9 LINE",
"297 -9 LINE",
"297 373 LINE",
"329 418 OFFCURVE",
"362 471 OFFCURVE",
"377 525 CURVE"
);
}
);
vertWidth = 1000;
width = 500;
},
{
layerId = "C3C75DF7-0318-4740-9DA2-680DF808C9D5";
paths = (
{
closed = 1;
nodes = (
"326 569 LINE",
"293 476 OFFCURVE",
"236 368 OFFCURVE",
"171 293 CURVE SMOOTH",
"153 273 OFFCURVE",
"132 256 OFFCURVE",
"111 239 CURVE SMOOTH",
"109 237 OFFCURVE",
"107 235 OFFCURVE",
"105 233 CURVE SMOOTH",
"103 230 OFFCURVE",
"102 228 OFFCURVE",
"102 225 CURVE SMOOTH",
"102 217 OFFCURVE",
"113 216 OFFCURVE",
"118 216 CURVE SMOOTH",
"130 216 OFFCURVE",
"172 239 OFFCURVE",
"183 246 CURVE SMOOTH",
"207 263 OFFCURVE",
"229 284 OFFCURVE",
"248 307 CURVE",
"248 -4 LINE",
"300 -4 LINE",
"300 379 LINE",
"332 425 OFFCURVE",
"364 476 OFFCURVE",
"380 530 CURVE"
);
}
);
vertWidth = 1000;
width = 500;
},
{
layerId = "39409886-7F43-4FCA-9A57-4D4CD31E7C44";
paths = (
{
closed = 1;
nodes = (
"339 547 LINE",
"298 435 OFFCURVE",
"216 271 OFFCURVE",
"117 200 CURVE",
"114 195 OFFCURVE",
"108 197 OFFCURVE",
"108 186 CURVE SMOOTH",
"108 180 OFFCURVE",
"114 177 OFFCURVE",
"120 177 CURVE SMOOTH",
"135 177 OFFCURVE",
"167 195 OFFCURVE",
"181 204 CURVE SMOOTH",
"209 223 OFFCURVE",
"234 247 OFFCURVE",
"256 274 CURVE",
"256 -49 LINE",
"308 -49 LINE",
"308 341 LINE",
"340 386 OFFCURVE",
"374 444 OFFCURVE",
"390 497 CURVE"
);
}
);
vertWidth = 1000;
width = 500;
}
);
note = cid00334;
unicode = FF68;
},
{
glyphname = "usmall-kata.half";
lastChange = "2021-04-19 16:42:50 +0000";
layers = (
{
layerId = "7C35F0AE-75E9-4EA7-B446-8B6431835EB7";
paths = (
{
closed = 1;
nodes = (
"275 451 LINE",
"282 484 OFFCURVE",
"298 520 OFFCURVE",
"298 554 CURVE SMOOTH",
"298 564 OFFCURVE",
"298 566 OFFCURVE",
"288 569 CURVE SMOOTH",
"270 576 OFFCURVE",
"249 579 OFFCURVE",
"230 579 CURVE",
"234 537 OFFCURVE",
"236 494 OFFCURVE",
"240 451 CURVE",
"129 451 LINE",
"133 253 LINE",
"177 253 LINE",
"174 417 LINE",
"341 417 LINE",
"338 288 OFFCURVE",
"312 149 OFFCURVE",
"222 51 CURVE SMOOTH",
"207 35 OFFCURVE",
"187 16 OFFCURVE",
"168 5 CURVE SMOOTH",
"162 2 OFFCURVE",
"156 0 OFFCURVE",
"151 -4 CURVE SMOOTH",
"148 -6 OFFCURVE",
"144 -10 OFFCURVE",
"144 -15 CURVE SMOOTH",
"144 -18 OFFCURVE",
"147 -19 OFFCURVE",
"149 -20 CURVE SMOOTH",
"151 -21 OFFCURVE",
"154 -21 OFFCURVE",
"156 -21 CURVE SMOOTH",
"170 -21 OFFCURVE",
"183 -13 OFFCURVE",
"195 -7 CURVE SMOOTH",
"278 32 OFFCURVE",
"316 87 OFFCURVE",
"347 171 CURVE SMOOTH",
"378 254 OFFCURVE",
"394 363 OFFCURVE",
"396 451 CURVE"
);
}
);
vertWidth = 1000;
width = 500;
},
{
layerId = "C3C75DF7-0318-4740-9DA2-680DF808C9D5";
paths = (
{
closed = 1;
nodes = (
"278 451 LINE",
"286 485 OFFCURVE",
"301 519 OFFCURVE",
"301 554 CURVE SMOOTH",
"301 557 OFFCURVE",
"301 562 OFFCURVE",
"300 564 CURVE SMOOTH",
"294 575 OFFCURVE",
"239 580 OFFCURVE",
"227 580 CURVE",
"231 537 OFFCURVE",
"233 494 OFFCURVE",
"237 451 CURVE",
"126 451 LINE",
"130 252 LINE",
"180 252 LINE",
"177 416 LINE",
"338 416 LINE",
"335 286 OFFCURVE",
"309 151 OFFCURVE",
"219 51 CURVE SMOOTH",
"205 35 OFFCURVE",
"184 16 OFFCURVE",
"165 5 CURVE SMOOTH",
"160 2 OFFCURVE",
"153 0 OFFCURVE",
"148 -4 CURVE SMOOTH",
"145 -6 OFFCURVE",
"141 -10 OFFCURVE",
"141 -15 CURVE SMOOTH",
"141 -21 OFFCURVE",
"152 -22 OFFCURVE",
"156 -22 CURVE SMOOTH",
"171 -22 OFFCURVE",
"184 -14 OFFCURVE",
"198 -7 CURVE SMOOTH",
"281 34 OFFCURVE",
"318 85 OFFCURVE",
"350 171 CURVE SMOOTH",
"381 255 OFFCURVE",
"397 362 OFFCURVE",
"399 451 CURVE"
);
}
);
vertWidth = 1000;
width = 500;
},
{
layerId = "39409886-7F43-4FCA-9A57-4D4CD31E7C44";
paths = (
{
closed = 1;
nodes = (
"264 438 LINE",
"270 459 OFFCURVE",
"288 523 OFFCURVE",
"288 542 CURVE SMOOTH",
"288 546 OFFCURVE",
"288 551 OFFCURVE",
"287 555 CURVE",
"278 561 OFFCURVE",
"230 567 OFFCURVE",
"216 569 CURVE",
"219 525 OFFCURVE",
"223 482 OFFCURVE",
"226 438 CURVE",
"113 438 LINE",
"117 235 LINE",
"166 235 LINE",
"163 403 LINE",
"329 403 LINE",
"326 277 OFFCURVE",
"298 124 OFFCURVE",
"208 29 CURVE SMOOTH",
"185 4 OFFCURVE",
"157 -10 OFFCURVE",
"130 -30 CURVE SMOOTH",
"127 -32 OFFCURVE",
"126 -35 OFFCURVE",
"126 -39 CURVE SMOOTH",
"126 -43 OFFCURVE",
"130 -45 OFFCURVE",
"133 -45 CURVE SMOOTH",
"143 -45 OFFCURVE",
"153 -42 OFFCURVE",
"163 -39 CURVE SMOOTH",
"341 14 OFFCURVE",
"384 280 OFFCURVE",
"387 438 CURVE"
);
}
);
vertWidth = 1000;
width = 500;
}
);
note = cid00335;
unicode = FF69;
},
{
glyphname = "esmall-kata.half";
lastChange = "2021-04-19 16:42:50 +0000";
layers = (
{
layerId = "7C35F0AE-75E9-4EA7-B446-8B6431835EB7";
paths = (
{
closed = 1;
nodes = (
"442 185 OFFCURVE",
"435 219 OFFCURVE",
"413 219 CURVE SMOOTH",
"394 219 OFFCURVE",
"387 190 OFFCURVE",
"387 174 CURVE SMOOTH",
"387 156 OFFCURVE",
"394 129 OFFCURVE",
"416 130 CURVE SMOOTH",
"417 130 LINE",
"403 103 OFFCURVE",
"377 98 OFFCURVE",
"349 98 CURVE SMOOTH",
"282 98 LINE",
"282 423 LINE",
"383 423 LINE SMOOTH",
"404 423 OFFCURVE",
"410 455 OFFCURVE",
"410 471 CURVE SMOOTH",
"410 486 OFFCURVE",
"404 519 OFFCURVE",
"384 519 CURVE SMOOTH",
"361 519 OFFCURVE",
"356 483 OFFCURVE",
"356 466 CURVE",
"115 466 LINE",
"115 423 LINE",
"233 423 LINE",
"233 98 LINE",
"89 98 LINE",
"89 47 LINE",
"343 47 LINE SMOOTH",
"406 47 OFFCURVE",
"431 105 OFFCURVE",
"441 158 CURVE SMOOTH",
"442 162 OFFCURVE",
"442 165 OFFCURVE",
"442 168 CURVE SMOOTH"
);
}
);
vertWidth = 1000;
width = 500;
},
{
layerId = "C3C75DF7-0318-4740-9DA2-680DF808C9D5";
paths = (
{
closed = 1;
nodes = (
"445 188 OFFCURVE",
"438 219 OFFCURVE",
"413 219 CURVE SMOOTH",
"391 219 OFFCURVE",
"384 192 OFFCURVE",
"384 174 CURVE SMOOTH",
"384 155 OFFCURVE",
"391 131 OFFCURVE",
"414 130 CURVE",
"400 104 OFFCURVE",
"376 99 OFFCURVE",
"349 99 CURVE SMOOTH",
"285 99 LINE",
"285 422 LINE",
"383 422 LINE SMOOTH",
"406 422 OFFCURVE",
"413 453 OFFCURVE",
"413 471 CURVE SMOOTH",
"413 489 OFFCURVE",
"406 519 OFFCURVE",
"384 519 CURVE SMOOTH",
"358 519 OFFCURVE",
"353 486 OFFCURVE",
"353 466 CURVE",
"112 466 LINE",
"112 422 LINE",
"230 422 LINE",
"230 99 LINE",
"86 99 LINE",
"86 47 LINE",
"343 47 LINE SMOOTH",
"408 47 OFFCURVE",
"434 103 OFFCURVE",
"444 158 CURVE SMOOTH",
"445 162 OFFCURVE",
"445 165 OFFCURVE",
"445 168 CURVE SMOOTH"
);
}
);
vertWidth = 1000;
width = 500;
},
{
layerId = "39409886-7F43-4FCA-9A57-4D4CD31E7C44";
paths = (
{
closed = 1;
nodes = (
"427 147 OFFCURVE",
"419 180 OFFCURVE",
"398 180 CURVE SMOOTH",
"381 180 OFFCURVE",
"371 151 OFFCURVE",
"371 138 CURVE SMOOTH",
"371 123 OFFCURVE",
"379 93 OFFCURVE",
"398 93 CURVE",
"384 68 OFFCURVE",
"355 63 OFFCURVE",
"329 63 CURVE SMOOTH",
"268 63 LINE",
"268 393 LINE",
"367 393 LINE SMOOTH",
"387 393 OFFCURVE",
"395 426 OFFCURVE",
"395 442 CURVE SMOOTH",
"395 457 OFFCURVE",
"385 489 OFFCURVE",
"367 489 CURVE SMOOTH",
"346 489 OFFCURVE",
"340 452 OFFCURVE",
"340 437 CURVE",
"100 437 LINE",
"100 393 LINE",
"216 393 LINE",
"216 63 LINE",
"74 63 LINE",
"74 13 LINE",
"327 13 LINE SMOOTH",
"392 13 OFFCURVE",
"427 71 OFFCURVE",
"427 131 CURVE SMOOTH"
);
}
);
vertWidth = 1000;
width = 500;
}
);
note = cid00336;
unicode = FF6A;
},
{
glyphname = "osmall-kata.half";
lastChange = "2021-04-19 16:42:50 +0000";
layers = (
{
layerId = "7C35F0AE-75E9-4EA7-B446-8B6431835EB7";
paths = (
{
closed = 1;
nodes = (
"234 361 LINE",
"210 257 OFFCURVE",
"163 123 OFFCURVE",
"94 40 CURVE",
"94 38 LINE",
"92 37 OFFCURVE",
"91 34 OFFCURVE",
"91 32 CURVE SMOOTH",
"91 29 OFFCURVE",
"96 27 OFFCURVE",
"98 27 CURVE SMOOTH",
"105 27 OFFCURVE",
"123 39 OFFCURVE",
"129 44 CURVE SMOOTH",
"190 89 OFFCURVE",
"259 246 OFFCURVE",
"277 321 CURVE"
);
},
{
closed = 1;
nodes = (
"427 450 OFFCURVE",
"420 483 OFFCURVE",
"400 483 CURVE SMOOTH",
"379 483 OFFCURVE",
"373 450 OFFCURVE",
"373 434 CURVE SMOOTH",
"373 427 LINE",
"318 427 LINE",
"314 550 LINE",
"267 550 LINE",
"273 427 LINE",
"114 427 LINE",
"114 391 LINE",
"276 391 LINE",
"280 279 OFFCURVE",
"287 168 OFFCURVE",
"287 56 CURVE SMOOTH",
"287 47 OFFCURVE",
"283 17 OFFCURVE",
"270 17 CURVE SMOOTH",
"257 17 OFFCURVE",
"235 32 OFFCURVE",
"223 38 CURVE",
"220 38 LINE SMOOTH",
"218 38 OFFCURVE",
"215 36 OFFCURVE",
"215 34 CURVE SMOOTH",
"215 32 OFFCURVE",
"217 30 OFFCURVE",
"217 28 CURVE SMOOTH",
"217 27 LINE",
"230 7 OFFCURVE",
"267 -33 OFFCURVE",
"292 -33 CURVE SMOOTH",
"324 -33 OFFCURVE",
"333 11 OFFCURVE",
"333 36 CURVE SMOOTH",
"333 154 OFFCURVE",
"324 273 OFFCURVE",
"320 391 CURVE",
"395 391 LINE SMOOTH",
"418 391 OFFCURVE",
"427 415 OFFCURVE",
"427 434 CURVE SMOOTH"
);
}
);
vertWidth = 1000;
width = 500;
},
{
layerId = "C3C75DF7-0318-4740-9DA2-680DF808C9D5";
paths = (
{
closed = 1;
nodes = (
"232 366 LINE",
"207 259 OFFCURVE",
"162 125 OFFCURVE",
"91 40 CURVE",
"91 38 LINE",
"89 37 OFFCURVE",
"88 34 OFFCURVE",
"88 32 CURVE SMOOTH",
"88 29 OFFCURVE",
"96 27 OFFCURVE",
"98 27 CURVE SMOOTH",
"106 27 OFFCURVE",
"125 39 OFFCURVE",
"132 44 CURVE SMOOTH",
"193 88 OFFCURVE",
"262 247 OFFCURVE",
"280 321 CURVE"
);
},
{
closed = 1;
nodes = (
"430 452 OFFCURVE",
"423 483 OFFCURVE",
"400 483 CURVE SMOOTH",
"377 483 OFFCURVE",
"370 453 OFFCURVE",
"370 434 CURVE SMOOTH",
"370 427 LINE",
"321 427 LINE",
"317 551 LINE",
"264 551 LINE",
"270 427 LINE",
"111 427 LINE",
"111 390 LINE",
"273 390 LINE",
"277 279 OFFCURVE",
"284 167 OFFCURVE",
"284 56 CURVE SMOOTH",
"284 47 OFFCURVE",
"283 18 OFFCURVE",
"270 18 CURVE SMOOTH",
"259 18 OFFCURVE",
"236 34 OFFCURVE",
"225 39 CURVE",
"218 39 LINE",
"216 38 OFFCURVE",
"212 36 OFFCURVE",
"212 34 CURVE SMOOTH",
"212 32 OFFCURVE",
"214 30 OFFCURVE",
"214 28 CURVE SMOOTH",
"214 27 LINE",
"228 5 OFFCURVE",
"264 -34 OFFCURVE",
"292 -34 CURVE SMOOTH",
"327 -34 OFFCURVE",
"336 8 OFFCURVE",
"336 36 CURVE SMOOTH",
"336 154 OFFCURVE",
"327 272 OFFCURVE",
"323 390 CURVE",
"395 390 LINE SMOOTH",
"420 390 OFFCURVE",
"430 412 OFFCURVE",
"430 434 CURVE SMOOTH"
);
}
);
vertWidth = 1000;
width = 500;
},
{
layerId = "39409886-7F43-4FCA-9A57-4D4CD31E7C44";
paths = (
{
closed = 1;
nodes = (
"420 432 OFFCURVE",
"412 465 OFFCURVE",
"392 465 CURVE SMOOTH",
"370 465 OFFCURVE",
"366 421 OFFCURVE",
"366 407 CURVE",
"313 407 LINE",
"309 536 LINE",
"255 531 LINE",
"261 407 LINE",
"104 407 LINE",
"104 371 LINE",
"264 371 LINE",
"267 306 LINE",
"222 342 LINE",
"196 230 OFFCURVE",
"155 114 OFFCURVE",
"84 22 CURVE SMOOTH",
"82 20 OFFCURVE",
"81 18 OFFCURVE",
"81 15 CURVE SMOOTH",
"81 12 OFFCURVE",
"84 11 OFFCURVE",
"87 11 CURVE SMOOTH",
"99 11 OFFCURVE",
"112 20 OFFCURVE",
"122 27 CURVE SMOOTH",
"186 77 OFFCURVE",
"246 215 OFFCURVE",
"267 292 CURVE",
"271 207 OFFCURVE",
"275 123 OFFCURVE",
"275 38 CURVE SMOOTH",
"275 29 OFFCURVE",
"274 1 OFFCURVE",
"261 1 CURVE SMOOTH",
"242 1 OFFCURVE",
"225 15 OFFCURVE",
"212 26 CURVE",
"211 26 OFFCURVE",
"208 27 OFFCURVE",
"208 27 CURVE",
"206 27 OFFCURVE",
"205 26 OFFCURVE",
"205 24 CURVE SMOOTH",
"205 21 OFFCURVE",
"206 19 OFFCURVE",
"207 16 CURVE SMOOTH",
"217 -4 OFFCURVE",
"255 -63 OFFCURVE",
"280 -63 CURVE SMOOTH",
"314 -63 OFFCURVE",
"328 -9 OFFCURVE",
"328 17 CURVE SMOOTH",
"328 135 OFFCURVE",
"319 253 OFFCURVE",
"314 371 CURVE",
"389 371 LINE SMOOTH",
"413 371 OFFCURVE",
"420 396 OFFCURVE",
"420 416 CURVE SMOOTH"
);
}
);
vertWidth = 1000;
width = 500;
}
);
note = cid00337;
unicode = FF6B;
},
{
glyphname = "yasmall-kata.half";
lastChange = "2021-04-19 16:42:50 +0000";
layers = (
{
layerId = "7C35F0AE-75E9-4EA7-B446-8B6431835EB7";
paths = (
{
closed = 1;
nodes = (
"243 411 LINE",
"235 547 LINE",
"187 540 LINE",
"198 402 LINE",
"97 383 LINE",
"100 342 LINE",
"202 365 LINE",
"211 233 OFFCURVE",
"222 101 OFFCURVE",
"232 -30 CURVE",
"280 -22 LINE",
"270 110 OFFCURVE",
"256 242 OFFCURVE",
"247 374 CURVE",
"346 393 LINE",
"345 349 OFFCURVE",
"338 298 OFFCURVE",
"320 258 CURVE SMOOTH",
"316 250 OFFCURVE",
"296 213 OFFCURVE",
"296 208 CURVE SMOOTH",
"296 204 OFFCURVE",
"300 203 OFFCURVE",
"303 203 CURVE SMOOTH",
"309 203 OFFCURVE",
"326 219 OFFCURVE",
"331 224 CURVE SMOOTH",
"381 273 OFFCURVE",
"401 374 OFFCURVE",
"401 442 CURVE"
);
}
);
vertWidth = 1000;
width = 500;
},
{
layerId = "C3C75DF7-0318-4740-9DA2-680DF808C9D5";
paths = (
{
closed = 1;
nodes = (
"246 413 LINE",
"238 548 LINE",
"184 540 LINE",
"195 402 LINE",
"94 383 LINE",
"97 340 LINE",
"199 363 LINE",
"208 231 OFFCURVE",
"219 100 OFFCURVE",
"229 -32 CURVE",
"283 -23 LINE",
"273 109 OFFCURVE",
"259 241 OFFCURVE",
"250 374 CURVE",
"343 391 LINE",
"342 348 OFFCURVE",
"335 298 OFFCURVE",
"317 258 CURVE SMOOTH",
"313 249 OFFCURVE",
"293 213 OFFCURVE",
"293 208 CURVE SMOOTH",
"293 203 OFFCURVE",
"300 203 OFFCURVE",
"303 203 CURVE SMOOTH",
"309 203 OFFCURVE",
"329 219 OFFCURVE",
"334 223 CURVE SMOOTH",
"384 271 OFFCURVE",
"404 377 OFFCURVE",
"404 444 CURVE"
);
}
);
vertWidth = 1000;
width = 500;
},
{
layerId = "39409886-7F43-4FCA-9A57-4D4CD31E7C44";
paths = (
{
closed = 1;
nodes = (
"237 429 LINE",
"225 571 LINE",
"170 560 LINE",
"184 419 LINE",
"82 397 LINE",
"86 355 LINE",
"189 379 LINE",
"203 244 OFFCURVE",
"216 110 OFFCURVE",
"230 -25 CURVE",
"284 -14 LINE",
"271 121 OFFCURVE",
"255 256 OFFCURVE",
"241 391 CURVE",
"339 414 LINE",
"339 354 OFFCURVE",
"321 282 OFFCURVE",
"292 229 CURVE SMOOTH",
"291 227 OFFCURVE",
"290 225 OFFCURVE",
"290 222 CURVE SMOOTH",
"290 219 OFFCURVE",
"291 216 OFFCURVE",
"294 216 CURVE SMOOTH",
"301 216 OFFCURVE",
"324 237 OFFCURVE",
"329 242 CURVE SMOOTH",
"379 293 OFFCURVE",
"398 399 OFFCURVE",
"398 467 CURVE"
);
}
);
vertWidth = 1000;
width = 500;
}
);
note = cid00338;
unicode = FF6C;
},
{
glyphname = "yusmall-kata.half";
lastChange = "2021-04-19 16:42:50 +0000";
layers = (
{
layerId = "7C35F0AE-75E9-4EA7-B446-8B6431835EB7";
paths = (
{
closed = 1;
nodes = (
"416 171 OFFCURVE",
"410 202 OFFCURVE",
"389 202 CURVE SMOOTH",
"370 202 OFFCURVE",
"363 173 OFFCURVE",
"363 157 CURVE SMOOTH",
"363 141 OFFCURVE",
"371 116 OFFCURVE",
"391 116 CURVE",
"387 109 OFFCURVE",
"376 94 OFFCURVE",
"367 94 CURVE SMOOTH",
"299 94 LINE",
"309 112 OFFCURVE",
"313 133 OFFCURVE",
"315 153 CURVE SMOOTH",
"320 196 OFFCURVE",
"321 239 OFFCURVE",
"323 282 CURVE SMOOTH",
"326 344 OFFCURVE",
"327 406 OFFCURVE",
"328 469 CURVE",
"123 469 LINE",
"123 426 LINE",
"280 428 LINE",
"279 338 OFFCURVE",
"275 249 OFFCURVE",
"271 159 CURVE SMOOTH",
"270 140 OFFCURVE",
"269 109 OFFCURVE",
"256 94 CURVE",
"207 94 OFFCURVE",
"157 93 OFFCURVE",
"108 93 CURVE SMOOTH",
"100 93 OFFCURVE",
"93 94 OFFCURVE",
"85 95 CURVE",
"84 77 OFFCURVE",
"84 60 OFFCURVE",
"84 42 CURVE SMOOTH",
"84 39 LINE",
"321 39 LINE SMOOTH",
"381 39 OFFCURVE",
"416 100 OFFCURVE",
"416 154 CURVE SMOOTH"
);
}
);
vertWidth = 1000;
width = 500;
},
{
layerId = "C3C75DF7-0318-4740-9DA2-680DF808C9D5";
paths = (
{
closed = 1;
nodes = (
"419 173 OFFCURVE",
"413 202 OFFCURVE",
"389 202 CURVE SMOOTH",
"367 202 OFFCURVE",
"360 175 OFFCURVE",
"360 157 CURVE SMOOTH",
"360 140 OFFCURVE",
"368 118 OFFCURVE",
"388 116 CURVE",
"384 109 OFFCURVE",
"376 95 OFFCURVE",
"367 95 CURVE SMOOTH",
"303 95 LINE",
"312 113 OFFCURVE",
"316 133 OFFCURVE",
"318 153 CURVE SMOOTH",
"323 196 OFFCURVE",
"324 239 OFFCURVE",
"326 282 CURVE SMOOTH",
"329 344 OFFCURVE",
"330 407 OFFCURVE",
"331 469 CURVE",
"120 469 LINE",
"120 425 LINE",
"277 427 LINE",
"276 338 OFFCURVE",
"272 249 OFFCURVE",
"268 159 CURVE SMOOTH",
"267 148 OFFCURVE",
"267 137 OFFCURVE",
"265 125 CURVE SMOOTH",
"264 115 OFFCURVE",
"261 103 OFFCURVE",
"254 95 CURVE",
"205 95 OFFCURVE",
"157 94 OFFCURVE",
"108 94 CURVE SMOOTH",
"99 94 OFFCURVE",
"91 95 OFFCURVE",
"82 96 CURVE",
"81 78 OFFCURVE",
"81 60 OFFCURVE",
"81 42 CURVE SMOOTH",
"81 39 LINE",
"321 39 LINE SMOOTH",
"383 39 OFFCURVE",
"419 98 OFFCURVE",
"419 154 CURVE SMOOTH"
);
}
);
vertWidth = 1000;
width = 500;
},
{
layerId = "39409886-7F43-4FCA-9A57-4D4CD31E7C44";
paths = (
{
closed = 1;
nodes = (
"434 156 OFFCURVE",
"426 189 OFFCURVE",
"404 189 CURVE SMOOTH",
"387 189 OFFCURVE",
"378 156 OFFCURVE",
"378 143 CURVE SMOOTH",
"378 128 OFFCURVE",
"387 102 OFFCURVE",
"405 100 CURVE",
"402 90 OFFCURVE",
"392 81 OFFCURVE",
"381 81 CURVE SMOOTH",
"301 81 LINE",
"310 100 OFFCURVE",
"314 121 OFFCURVE",
"316 142 CURVE SMOOTH",
"321 185 OFFCURVE",
"324 229 OFFCURVE",
"326 272 CURVE SMOOTH",
"328 334 OFFCURVE",
"333 396 OFFCURVE",
"334 458 CURVE",
"121 458 LINE",
"121 414 LINE",
"274 417 LINE",
"273 327 OFFCURVE",
"268 237 OFFCURVE",
"264 147 CURVE SMOOTH",
"263 127 OFFCURVE",
"262 97 OFFCURVE",
"249 81 CURVE",
"192 81 OFFCURVE",
"135 82 OFFCURVE",
"78 82 CURVE",
"78 24 LINE",
"339 24 LINE SMOOTH",
"389 24 OFFCURVE",
"411 46 OFFCURVE",
"426 93 CURVE SMOOTH",
"430 106 OFFCURVE",
"434 125 OFFCURVE",
"434 139 CURVE SMOOTH"
);
}
);
vertWidth = 1000;
width = 500;
}
);
note = cid00339;
unicode = FF6D;
},
{
glyphname = "yosmall-kata.half";
lastChange = "2021-04-19 16:42:50 +0000";
layers = (
{
layerId = "7C35F0AE-75E9-4EA7-B446-8B6431835EB7";
paths = (
{
closed = 1;
nodes = (
"330 306 OFFCURVE",
"325 332 OFFCURVE",
"306 332 CURVE SMOOTH",
"287 332 OFFCURVE",
"282 308 OFFCURVE",
"281 293 CURVE",
"115 293 LINE",
"115 254 LINE",
"302 254 LINE SMOOTH",
"324 254 OFFCURVE",
"330 273 OFFCURVE",
"330 292 CURVE SMOOTH"
);
},
{
closed = 1;
nodes = (
"389 496 LINE",
"126 496 LINE",
"126 458 LINE",
"341 458 LINE",
"341 139 LINE SMOOTH",
"341 123 OFFCURVE",
"339 67 OFFCURVE",
"315 67 CURVE SMOOTH",
"126 67 LINE",
"126 27 LINE",
"326 27 LINE SMOOTH",
"382 27 OFFCURVE",
"389 99 OFFCURVE",
"389 140 CURVE SMOOTH"
);
}
);
vertWidth = 1000;
width = 500;
},
{
layerId = "C3C75DF7-0318-4740-9DA2-680DF808C9D5";
paths = (
{
closed = 1;
nodes = (
"333 309 OFFCURVE",
"327 333 OFFCURVE",
"306 333 CURVE SMOOTH",
"285 333 OFFCURVE",
"279 311 OFFCURVE",
"278 294 CURVE",
"112 294 LINE",
"112 253 LINE",
"302 253 LINE SMOOTH",
"326 253 OFFCURVE",
"333 271 OFFCURVE",
"333 292 CURVE SMOOTH"
);
},
{
closed = 1;
nodes = (
"392 496 LINE",
"123 496 LINE",
"123 457 LINE",
"338 457 LINE",
"338 139 LINE SMOOTH",
"338 125 OFFCURVE",
"336 68 OFFCURVE",
"315 68 CURVE SMOOTH",
"123 68 LINE",
"123 27 LINE",
"326 27 LINE SMOOTH",
"385 27 OFFCURVE",
"392 96 OFFCURVE",
"392 140 CURVE SMOOTH"
);
}
);
vertWidth = 1000;
width = 500;
},
{
layerId = "39409886-7F43-4FCA-9A57-4D4CD31E7C44";
paths = (
{
closed = 1;
nodes = (
"333 278 OFFCURVE",
"328 307 OFFCURVE",
"311 307 CURVE SMOOTH",
"295 307 OFFCURVE",
"288 279 OFFCURVE",
"287 267 CURVE",
"117 267 LINE",
"117 227 LINE",
"307 227 LINE SMOOTH",
"328 227 OFFCURVE",
"333 249 OFFCURVE",
"333 266 CURVE SMOOTH"
);
},
{
closed = 1;
nodes = (
"404 246 OFFCURVE",
"403 362 OFFCURVE",
"403 478 CURVE",
"124 478 LINE",
"125 437 LINE",
"345 437 LINE",
"345 115 LINE SMOOTH",
"345 91 OFFCURVE",
"339 41 OFFCURVE",
"306 41 CURVE SMOOTH",
"125 41 LINE",
"125 0 LINE",
"323 0 LINE SMOOTH",
"394 0 OFFCURVE",
"404 74 OFFCURVE",
"404 130 CURVE SMOOTH"
);
}
);
vertWidth = 1000;
width = 500;
}
);
note = cid00340;
unicode = FF6E;
},
{
glyphname = "tusmall-kata.half";
lastChange = "2021-04-19 16:42:50 +0000";
layers = (
{
layerId = "7C35F0AE-75E9-4EA7-B446-8B6431835EB7";
paths = (
{
closed = 1;
nodes = (
"344 481 LINE",
"336 353 OFFCURVE",
"304 203 OFFCURVE",
"241 90 CURVE SMOOTH",
"227 66 OFFCURVE",
"211 40 OFFCURVE",
"191 20 CURVE SMOOTH",
"179 9 OFFCURVE",
"166 0 OFFCURVE",
"153 -10 CURVE SMOOTH",
"150 -13 OFFCURVE",
"148 -16 OFFCURVE",
"148 -20 CURVE SMOOTH",
"148 -24 OFFCURVE",
"153 -27 OFFCURVE",
"157 -27 CURVE SMOOTH",
"166 -27 OFFCURVE",
"186 -17 OFFCURVE",
"194 -13 CURVE SMOOTH",
"333 67 OFFCURVE",
"380 311 OFFCURVE",
"397 458 CURVE"
);
},
{
closed = 1;
nodes = (
"192 299 OFFCURVE",
"191 303 OFFCURVE",
"190 307 CURVE SMOOTH",
"181 341 OFFCURVE",
"173 375 OFFCURVE",
"168 409 CURVE SMOOTH",
"165 424 OFFCURVE",
"166 442 OFFCURVE",
"162 456 CURVE SMOOTH",
"161 460 OFFCURVE",
"159 462 OFFCURVE",
"154 462 CURVE SMOOTH",
"148 462 OFFCURVE",
"120 440 OFFCURVE",
"115 435 CURVE",
"120 409 OFFCURVE",
"156 286 OFFCURVE",
"184 286 CURVE SMOOTH",
"189 286 OFFCURVE",
"192 291 OFFCURVE",
"192 295 CURVE SMOOTH"
);
},
{
closed = 1;
nodes = (
"267 310 OFFCURVE",
"265 313 OFFCURVE",
"264 317 CURVE SMOOTH",
"251 352 OFFCURVE",
"247 390 OFFCURVE",
"242 427 CURVE SMOOTH",
"241 436 OFFCURVE",
"243 472 OFFCURVE",
"230 472 CURVE SMOOTH",
"223 472 OFFCURVE",
"198 451 OFFCURVE",
"191 446 CURVE",
"196 420 OFFCURVE",
"231 297 OFFCURVE",
"259 297 CURVE SMOOTH",
"263 297 OFFCURVE",
"267 301 OFFCURVE",
"267 305 CURVE SMOOTH"
);
}
);
vertWidth = 1000;
width = 500;
},
{
layerId = "C3C75DF7-0318-4740-9DA2-680DF808C9D5";
paths = (
{
closed = 1;
nodes = (
"341 488 LINE",
"333 358 OFFCURVE",
"302 209 OFFCURVE",
"238 94 CURVE SMOOTH",
"224 70 OFFCURVE",
"208 44 OFFCURVE",
"188 25 CURVE SMOOTH",
"176 13 OFFCURVE",
"163 4 OFFCURVE",
"150 -6 CURVE SMOOTH",
"147 -8 OFFCURVE",
"145 -11 OFFCURVE",
"145 -15 CURVE SMOOTH",
"145 -21 OFFCURVE",
"153 -23 OFFCURVE",
"157 -23 CURVE SMOOTH",
"167 -23 OFFCURVE",
"188 -14 OFFCURVE",
"197 -9 CURVE SMOOTH",
"336 73 OFFCURVE",
"383 314 OFFCURVE",
"400 462 CURVE"
);
},
{
closed = 1;
nodes = (
"195 304 OFFCURVE",
"194 308 OFFCURVE",
"193 311 CURVE SMOOTH",
"185 345 OFFCURVE",
"176 379 OFFCURVE",
"171 414 CURVE SMOOTH",
"169 425 OFFCURVE",
"169 451 OFFCURVE",
"165 460 CURVE SMOOTH",
"163 465 OFFCURVE",
"160 467 OFFCURVE",
"154 467 CURVE SMOOTH",
"148 467 OFFCURVE",
"118 444 OFFCURVE",
"112 439 CURVE",
"117 411 OFFCURVE",
"152 289 OFFCURVE",
"184 289 CURVE SMOOTH",
"189 289 OFFCURVE",
"195 294 OFFCURVE",
"195 299 CURVE SMOOTH"
);
},
{
closed = 1;
nodes = (
"270 314 OFFCURVE",
"268 318 OFFCURVE",
"267 321 CURVE SMOOTH",
"254 356 OFFCURVE",
"249 394 OFFCURVE",
"245 431 CURVE SMOOTH",
"244 440 OFFCURVE",
"245 449 OFFCURVE",
"243 457 CURVE",
"243 464 OFFCURVE",
"239 477 OFFCURVE",
"230 477 CURVE SMOOTH",
"220 477 OFFCURVE",
"197 457 OFFCURVE",
"188 450 CURVE",
"193 423 OFFCURVE",
"227 300 OFFCURVE",
"259 300 CURVE SMOOTH",
"263 300 OFFCURVE",
"270 304 OFFCURVE",
"270 309 CURVE SMOOTH"
);
}
);
vertWidth = 1000;
width = 500;
},
{
layerId = "39409886-7F43-4FCA-9A57-4D4CD31E7C44";
paths = (
{
closed = 1;
nodes = (
"341 479 LINE",
"331 349 OFFCURVE",
"303 196 OFFCURVE",
"239 81 CURVE SMOOTH",
"211 30 OFFCURVE",
"186 4 OFFCURVE",
"142 -33 CURVE SMOOTH",
"139 -35 OFFCURVE",
"137 -38 OFFCURVE",
"137 -42 CURVE SMOOTH",
"137 -46 OFFCURVE",
"138 -51 OFFCURVE",
"143 -51 CURVE SMOOTH",
"153 -51 OFFCURVE",
"182 -36 OFFCURVE",
"191 -30 CURVE SMOOTH",
"334 59 OFFCURVE",
"382 294 OFFCURVE",
"399 448 CURVE"
);
},
{
closed = 1;
nodes = (
"187 286 OFFCURVE",
"186 290 OFFCURVE",
"185 295 CURVE SMOOTH",
"178 322 OFFCURVE",
"173 349 OFFCURVE",
"169 377 CURVE SMOOTH",
"166 403 OFFCURVE",
"161 430 OFFCURVE",
"159 456 CURVE SMOOTH",
"159 458 OFFCURVE",
"160 463 OFFCURVE",
"157 464 CURVE",
"141 454 OFFCURVE",
"122 444 OFFCURVE",
"108 431 CURVE",
"115 388 OFFCURVE",
"137 320 OFFCURVE",
"165 286 CURVE SMOOTH",
"168 282 OFFCURVE",
"176 273 OFFCURVE",
"182 273 CURVE SMOOTH",
"186 273 OFFCURVE",
"187 278 OFFCURVE",
"187 281 CURVE SMOOTH"
);
},
{
closed = 1;
nodes = (
"267 306 OFFCURVE",
"253 354 OFFCURVE",
"249 374 CURVE SMOOTH",
"244 404 OFFCURVE",
"241 434 OFFCURVE",
"238 464 CURVE SMOOTH",
"238 465 OFFCURVE",
"237 471 OFFCURVE",
"235 471 CURVE SMOOTH",
"233 471 OFFCURVE",
"193 443 OFFCURVE",
"187 439 CURVE",
"194 399 OFFCURVE",
"217 325 OFFCURVE",
"244 295 CURVE SMOOTH",
"247 292 OFFCURVE",
"257 282 OFFCURVE",
"262 282 CURVE SMOOTH",
"266 282 OFFCURVE",
"267 287 OFFCURVE",
"267 290 CURVE SMOOTH"
);
}
);
vertWidth = 1000;
width = 500;
}
);
note = cid00341;
unicode = FF6F;
},
{
glyphname = "prolonged-kana.half";
lastChange = "2021-04-19 16:42:50 +0000";
layers = (
{
layerId = "7C35F0AE-75E9-4EA7-B446-8B6431835EB7";
paths = (
{
closed = 1;
nodes = (
"443 414 LINE",
"57 414 LINE",
"57 358 LINE",
"443 358 LINE"
);
}
);
vertWidth = 1000;
width = 500;
},
{
layerId = "C3C75DF7-0318-4740-9DA2-680DF808C9D5";
paths = (
{
closed = 1;
nodes = (
"446 415 LINE",
"54 415 LINE",
"54 357 LINE",
"446 357 LINE"
);
}
);
vertWidth = 1000;
width = 500;
},
{
layerId = "39409886-7F43-4FCA-9A57-4D4CD31E7C44";
paths = (
{
closed = 1;
nodes = (
"62 415 LINE",
"62 334 LINE",
"445 334 LINE",
"465 415 LINE"
);
}
);
vertWidth = 1000;
width = 500;
}
);
note = cid00342;
unicode = FF70;
},
{
glyphname = "a-kata.half";
lastChange = "2021-04-19 16:42:50 +0000";
layers = (
{
layerId = "7C35F0AE-75E9-4EA7-B446-8B6431835EB7";
paths = (
{
closed = 1;
nodes = (
"290 544 LINE",
"232 544 LINE",
"232 396 OFFCURVE",
"243 237 OFFCURVE",
"168 103 CURVE SMOOTH",
"148 68 OFFCURVE",
"122 42 OFFCURVE",
"93 14 CURVE",
"90 12 OFFCURVE",
"89 9 OFFCURVE",
"89 5 CURVE SMOOTH",
"89 1 OFFCURVE",
"94 -1 OFFCURVE",
"98 -1 CURVE SMOOTH",
"106 -1 OFFCURVE",
"131 10 OFFCURVE",
"138 14 CURVE SMOOTH",
"278 98 OFFCURVE",
"290 315 OFFCURVE",
"290 460 CURVE SMOOTH"
);
},
{
closed = 1;
nodes = (
"89 666 LINE",
"89 622 LINE",
"385 622 LINE",
"381 527 OFFCURVE",
"360 440 OFFCURVE",
"308 359 CURVE SMOOTH",
"305 354 OFFCURVE",
"303 351 OFFCURVE",
"303 345 CURVE SMOOTH",
"303 341 OFFCURVE",
"307 337 OFFCURVE",
"311 337 CURVE SMOOTH",
"313 337 OFFCURVE",
"315 338 OFFCURVE",
"317 339 CURVE SMOOTH",
"421 409 OFFCURVE",
"451 548 OFFCURVE",
"452 666 CURVE"
);
}
);
vertWidth = 1000;
width = 500;
},
{
layerId = "C3C75DF7-0318-4740-9DA2-680DF808C9D5";
paths = (
{
closed = 1;
nodes = (
"293 544 LINE",
"229 544 LINE",
"229 398 OFFCURVE",
"240 236 OFFCURVE",
"165 103 CURVE SMOOTH",
"145 68 OFFCURVE",
"118 43 OFFCURVE",
"90 14 CURVE",
"87 12 OFFCURVE",
"86 9 OFFCURVE",
"86 5 CURVE SMOOTH",
"86 0 OFFCURVE",
"94 -2 OFFCURVE",
"98 -2 CURVE SMOOTH",
"107 -2 OFFCURVE",
"133 9 OFFCURVE",
"141 14 CURVE SMOOTH",
"280 96 OFFCURVE",
"293 316 OFFCURVE",
"293 460 CURVE SMOOTH"
);
},
{
closed = 1;
nodes = (
"86 667 LINE",
"86 622 LINE",
"382 622 LINE",
"378 524 OFFCURVE",
"356 442 OFFCURVE",
"305 359 CURVE SMOOTH",
"302 354 OFFCURVE",
"300 351 OFFCURVE",
"300 345 CURVE SMOOTH",
"300 340 OFFCURVE",
"307 337 OFFCURVE",
"311 337 CURVE SMOOTH",
"314 337 OFFCURVE",
"317 337 OFFCURVE",
"320 339 CURVE SMOOTH",
"424 408 OFFCURVE",
"454 550 OFFCURVE",
"455 667 CURVE"
);
}
);
vertWidth = 1000;
width = 500;
},
{
layerId = "39409886-7F43-4FCA-9A57-4D4CD31E7C44";
paths = (
{
closed = 1;
nodes = (
"274 533 LINE",
"208 533 LINE",
"208 384 OFFCURVE",
"220 222 OFFCURVE",
"144 86 CURVE SMOOTH",
"123 48 OFFCURVE",
"102 26 OFFCURVE",
"69 -2 CURVE SMOOTH",
"66 -5 OFFCURVE",
"65 -7 OFFCURVE",
"65 -11 CURVE SMOOTH",
"65 -16 OFFCURVE",
"68 -20 OFFCURVE",
"73 -20 CURVE SMOOTH",
"82 -20 OFFCURVE",
"112 -5 OFFCURVE",
"121 0 CURVE SMOOTH",
"264 84 OFFCURVE",
"274 300 OFFCURVE",
"274 447 CURVE SMOOTH"
);
},
{
closed = 1;
nodes = (
"71 664 LINE",
"71 614 LINE",
"360 614 LINE",
"359 553 OFFCURVE",
"345 470 OFFCURVE",
"322 413 CURVE SMOOTH",
"313 390 OFFCURVE",
"301 369 OFFCURVE",
"286 349 CURVE SMOOTH",
"283 345 OFFCURVE",
"280 341 OFFCURVE",
"280 336 CURVE SMOOTH",
"280 334 OFFCURVE",
"282 327 OFFCURVE",
"285 327 CURVE SMOOTH",
"292 327 OFFCURVE",
"298 330 OFFCURVE",
"304 333 CURVE SMOOTH",
"409 388 OFFCURVE",
"439 558 OFFCURVE",
"439 664 CURVE"
);
}
);
vertWidth = 1000;
width = 500;
}
);
note = cid00343;
unicode = FF71;
},
{
glyphname = "i-kata.half";
lastChange = "2021-04-19 16:42:50 +0000";
layers = (
{
layerId = "7C35F0AE-75E9-4EA7-B446-8B6431835EB7";
paths = (
{
closed = 1;
nodes = (
"355 734 LINE",
"313 617 OFFCURVE",
"238 484 OFFCURVE",
"158 389 CURVE SMOOTH",
"135 362 OFFCURVE",
"109 340 OFFCURVE",
"82 318 CURVE SMOOTH",
"77 314 OFFCURVE",
"71 309 OFFCURVE",
"71 302 CURVE SMOOTH",
"71 294 OFFCURVE",
"80 293 OFFCURVE",
"86 293 CURVE SMOOTH",
"103 293 OFFCURVE",
"149 320 OFFCURVE",
"164 331 CURVE SMOOTH",
"199 356 OFFCURVE",
"231 386 OFFCURVE",
"257 421 CURVE",
"256 10 LINE",
"313 10 LINE",
"313 499 LINE",
"353 556 OFFCURVE",
"396 622 OFFCURVE",
"415 689 CURVE"
);
}
);
vertWidth = 1000;
width = 500;
},
{
layerId = "C3C75DF7-0318-4740-9DA2-680DF808C9D5";
paths = (
{
closed = 1;
nodes = (
"354 743 LINE",
"311 624 OFFCURVE",
"237 492 OFFCURVE",
"155 395 CURVE SMOOTH",
"133 368 OFFCURVE",
"106 346 OFFCURVE",
"79 324 CURVE SMOOTH",
"77 322 OFFCURVE",
"74 320 OFFCURVE",
"72 317 CURVE SMOOTH",
"70 315 OFFCURVE",
"68 311 OFFCURVE",
"68 308 CURVE SMOOTH",
"68 299 OFFCURVE",
"80 298 OFFCURVE",
"86 298 CURVE SMOOTH",
"105 298 OFFCURVE",
"150 325 OFFCURVE",
"167 337 CURVE SMOOTH",
"200 359 OFFCURVE",
"229 387 OFFCURVE",
"254 419 CURVE",
"253 15 LINE",
"316 15 LINE",
"316 505 LINE",
"357 562 OFFCURVE",
"398 628 OFFCURVE",
"418 695 CURVE"
);
}
);
vertWidth = 1000;
width = 500;
},
{
layerId = "39409886-7F43-4FCA-9A57-4D4CD31E7C44";
paths = (
{
closed = 1;
nodes = (
"354 738 LINE",
"307 610 OFFCURVE",
"238 476 OFFCURVE",
"150 372 CURVE SMOOTH",
"127 345 OFFCURVE",
"101 322 OFFCURVE",
"74 300 CURVE",
"68 297 OFFCURVE",
"62 290 OFFCURVE",
"62 283 CURVE SMOOTH",
"62 274 OFFCURVE",
"71 273 OFFCURVE",
"78 273 CURVE SMOOTH",
"97 273 OFFCURVE",
"137 294 OFFCURVE",
"154 305 CURVE SMOOTH",
"190 329 OFFCURVE",
"222 361 OFFCURVE",
"249 395 CURVE",
"249 -15 LINE",
"316 -15 LINE",
"316 479 LINE",
"356 536 OFFCURVE",
"399 609 OFFCURVE",
"419 677 CURVE"
);
}
);
vertWidth = 1000;
width = 500;
}
);
note = cid00344;
unicode = FF72;
},
{
glyphname = "u-kata.half";
lastChange = "2021-04-19 16:42:50 +0000";
layers = (
{
layerId = "7C35F0AE-75E9-4EA7-B446-8B6431835EB7";
paths = (
{
closed = 1;
nodes = (
"277 598 LINE",
"287 637 OFFCURVE",
"307 695 OFFCURVE",
"307 732 CURVE SMOOTH",
"307 736 OFFCURVE",
"307 744 OFFCURVE",
"304 747 CURVE SMOOTH",
"297 754 OFFCURVE",
"237 762 OFFCURVE",
"224 763 CURVE",
"236 598 LINE",
"94 598 LINE",
"99 349 LINE",
"153 349 LINE",
"149 559 LINE",
"365 559 LINE",
"362 397 OFFCURVE",
"328 209 OFFCURVE",
"213 88 CURVE SMOOTH",
"185 59 OFFCURVE",
"152 38 OFFCURVE",
"119 15 CURVE SMOOTH",
"116 13 OFFCURVE",
"111 9 OFFCURVE",
"111 4 CURVE SMOOTH",
"111 -1 OFFCURVE",
"122 -1 OFFCURVE",
"125 -1 CURVE SMOOTH",
"143 -1 OFFCURVE",
"160 7 OFFCURVE",
"176 14 CURVE SMOOTH",
"279 61 OFFCURVE",
"333 142 OFFCURVE",
"371 245 CURVE SMOOTH",
"410 350 OFFCURVE",
"430 487 OFFCURVE",
"432 598 CURVE"
);
}
);
vertWidth = 1000;
width = 500;
},
{
layerId = "C3C75DF7-0318-4740-9DA2-680DF808C9D5";
paths = (
{
closed = 1;
nodes = (
"280 600 LINE",
"291 642 OFFCURVE",
"310 689 OFFCURVE",
"310 733 CURVE SMOOTH",
"310 737 OFFCURVE",
"310 744 OFFCURVE",
"307 748 CURVE SMOOTH",
"299 756 OFFCURVE",
"235 763 OFFCURVE",
"221 765 CURVE",
"233 600 LINE",
"91 600 LINE",
"96 350 LINE",
"156 350 LINE",
"152 559 LINE",
"362 559 LINE",
"359 396 OFFCURVE",
"325 212 OFFCURVE",
"210 89 CURVE SMOOTH",
"183 60 OFFCURVE",
"148 40 OFFCURVE",
"116 16 CURVE SMOOTH",
"113 14 OFFCURVE",
"108 10 OFFCURVE",
"108 5 CURVE SMOOTH",
"108 -1 OFFCURVE",
"121 -1 OFFCURVE",
"125 -1 CURVE SMOOTH",
"144 -1 OFFCURVE",
"162 7 OFFCURVE",
"179 15 CURVE SMOOTH",
"282 63 OFFCURVE",
"335 142 OFFCURVE",
"374 246 CURVE SMOOTH",
"413 352 OFFCURVE",
"433 487 OFFCURVE",
"435 600 CURVE"
);
}
);
vertWidth = 1000;
width = 500;
},
{
layerId = "39409886-7F43-4FCA-9A57-4D4CD31E7C44";
paths = (
{
closed = 1;
nodes = (
"269 610 LINE",
"276 639 OFFCURVE",
"299 718 OFFCURVE",
"299 743 CURVE SMOOTH",
"299 748 OFFCURVE",
"299 753 OFFCURVE",
"297 757 CURVE SMOOTH",
"292 766 OFFCURVE",
"220 775 OFFCURVE",
"208 776 CURVE",
"212 721 OFFCURVE",
"215 665 OFFCURVE",
"221 610 CURVE",
"77 610 LINE",
"82 355 LINE",
"144 355 LINE",
"140 566 LINE",
"351 566 LINE",
"346 406 OFFCURVE",
"311 212 OFFCURVE",
"198 92 CURVE SMOOTH",
"175 69 OFFCURVE",
"150 47 OFFCURVE",
"123 30 CURVE SMOOTH",
"115 25 OFFCURVE",
"107 22 OFFCURVE",
"100 17 CURVE SMOOTH",
"95 14 OFFCURVE",
"94 11 OFFCURVE",
"94 6 CURVE SMOOTH",
"94 0 OFFCURVE",
"98 -1 OFFCURVE",
"103 -1 CURVE SMOOTH",
"115 -1 OFFCURVE",
"128 2 OFFCURVE",
"141 5 CURVE SMOOTH",
"362 67 OFFCURVE",
"422 415 OFFCURVE",
"424 610 CURVE"
);
}
);
vertWidth = 1000;
width = 500;
}
);
note = cid00345;
unicode = FF73;
},
{
glyphname = "e-kata.half";
lastChange = "2021-04-19 16:42:50 +0000";
layers = (
{
layerId = "7C35F0AE-75E9-4EA7-B446-8B6431835EB7";
paths = (
{
closed = 1;
nodes = (
"485 244 OFFCURVE",
"477 285 OFFCURVE",
"451 285 CURVE SMOOTH",
"428 285 OFFCURVE",
"420 249 OFFCURVE",
"420 231 CURVE SMOOTH",
"420 210 OFFCURVE",
"429 176 OFFCURVE",
"455 176 CURVE SMOOTH",
"456 176 OFFCURVE",
"457 176 OFFCURVE",
"458 177 CURVE",
"441 140 OFFCURVE",
"408 131 OFFCURVE",
"371 131 CURVE SMOOTH",
"286 131 LINE",
"286 550 LINE",
"414 550 LINE SMOOTH",
"439 550 OFFCURVE",
"446 590 OFFCURVE",
"446 609 CURVE SMOOTH",
"446 628 OFFCURVE",
"438 666 OFFCURVE",
"414 666 CURVE SMOOTH",
"386 666 OFFCURVE",
"382 621 OFFCURVE",
"382 601 CURVE",
"81 601 LINE",
"81 550 LINE",
"228 550 LINE",
"228 131 LINE",
"49 131 LINE",
"49 73 LINE",
"364 73 LINE SMOOTH",
"441 73 OFFCURVE",
"473 146 OFFCURVE",
"484 212 CURVE SMOOTH",
"485 216 OFFCURVE",
"485 220 OFFCURVE",
"485 224 CURVE SMOOTH"
);
}
);
vertWidth = 1000;
width = 500;
},
{
layerId = "C3C75DF7-0318-4740-9DA2-680DF808C9D5";
paths = (
{
closed = 1;
nodes = (
"488 246 OFFCURVE",
"480 285 OFFCURVE",
"451 285 CURVE SMOOTH",
"425 285 OFFCURVE",
"417 251 OFFCURVE",
"417 231 CURVE SMOOTH",
"417 208 OFFCURVE",
"427 176 OFFCURVE",
"455 176 CURVE",
"438 141 OFFCURVE",
"406 132 OFFCURVE",
"371 132 CURVE SMOOTH",
"289 132 LINE",
"289 549 LINE",
"414 549 LINE SMOOTH",
"442 549 OFFCURVE",
"449 588 OFFCURVE",
"449 609 CURVE SMOOTH",
"449 630 OFFCURVE",
"441 667 OFFCURVE",
"414 667 CURVE SMOOTH",
"383 667 OFFCURVE",
"379 624 OFFCURVE",
"379 601 CURVE",
"78 601 LINE",
"78 549 LINE",
"225 549 LINE",
"225 132 LINE",
"46 132 LINE",
"46 72 LINE",
"364 72 LINE SMOOTH",
"443 72 OFFCURVE",
"476 144 OFFCURVE",
"487 212 CURVE SMOOTH",
"488 216 OFFCURVE",
"488 220 OFFCURVE",
"488 224 CURVE SMOOTH"
);
}
);
vertWidth = 1000;
width = 500;
},
{
layerId = "39409886-7F43-4FCA-9A57-4D4CD31E7C44";
paths = (
{
closed = 1;
nodes = (
"481 237 OFFCURVE",
"471 280 OFFCURVE",
"444 280 CURVE SMOOTH",
"423 280 OFFCURVE",
"410 242 OFFCURVE",
"410 225 CURVE SMOOTH",
"410 206 OFFCURVE",
"420 169 OFFCURVE",
"444 167 CURVE",
"427 135 OFFCURVE",
"389 131 OFFCURVE",
"357 131 CURVE SMOOTH",
"279 131 LINE",
"279 549 LINE",
"404 549 LINE SMOOTH",
"431 549 OFFCURVE",
"440 589 OFFCURVE",
"440 610 CURVE SMOOTH",
"440 628 OFFCURVE",
"429 670 OFFCURVE",
"405 670 CURVE SMOOTH",
"378 670 OFFCURVE",
"370 623 OFFCURVE",
"370 603 CURVE",
"65 603 LINE",
"65 549 LINE",
"213 549 LINE",
"213 131 LINE",
"33 131 LINE",
"33 66 LINE",
"354 66 LINE SMOOTH",
"435 66 OFFCURVE",
"481 143 OFFCURVE",
"481 217 CURVE SMOOTH"
);
}
);
vertWidth = 1000;
width = 500;
}
);
note = cid00346;
unicode = FF74;
},
{
glyphname = "o-kata.half";
lastChange = "2021-04-19 16:42:50 +0000";
layers = (
{
layerId = "7C35F0AE-75E9-4EA7-B446-8B6431835EB7";
paths = (
{
closed = 1;
nodes = (
"229 479 LINE",
"201 360 OFFCURVE",
"156 231 OFFCURVE",
"89 128 CURVE SMOOTH",
"84 120 OFFCURVE",
"51 76 OFFCURVE",
"51 72 CURVE SMOOTH",
"51 70 OFFCURVE",
"56 68 OFFCURVE",
"58 68 CURVE SMOOTH",
"67 68 OFFCURVE",
"88 82 OFFCURVE",
"96 88 CURVE SMOOTH",
"173 146 OFFCURVE",
"258 338 OFFCURVE",
"280 432 CURVE"
);
},
{
closed = 1;
nodes = (
"467 592 OFFCURVE",
"458 631 OFFCURVE",
"434 631 CURVE SMOOTH",
"410 631 OFFCURVE",
"402 592 OFFCURVE",
"402 573 CURVE SMOOTH",
"402 570 OFFCURVE",
"402 566 OFFCURVE",
"403 563 CURVE",
"332 563 LINE",
"326 716 LINE",
"270 716 LINE",
"278 563 LINE",
"80 563 LINE",
"80 520 LINE",
"281 520 LINE",
"287 380 OFFCURVE",
"295 241 OFFCURVE",
"295 101 CURVE SMOOTH",
"295 89 OFFCURVE",
"290 53 OFFCURVE",
"274 53 CURVE SMOOTH",
"255 53 OFFCURVE",
"231 70 OFFCURVE",
"214 79 CURVE",
"210 79 LINE",
"208 78 OFFCURVE",
"205 76 OFFCURVE",
"205 74 CURVE SMOOTH",
"205 71 OFFCURVE",
"207 69 OFFCURVE",
"208 66 CURVE",
"224 40 OFFCURVE",
"268 -7 OFFCURVE",
"300 -7 CURVE SMOOTH",
"340 -7 OFFCURVE",
"349 47 OFFCURVE",
"349 77 CURVE SMOOTH",
"349 225 OFFCURVE",
"339 372 OFFCURVE",
"333 520 CURVE",
"429 520 LINE SMOOTH",
"457 520 OFFCURVE",
"467 550 OFFCURVE",
"467 573 CURVE SMOOTH"
);
}
);
vertWidth = 1000;
width = 500;
},
{
layerId = "C3C75DF7-0318-4740-9DA2-680DF808C9D5";
paths = (
{
closed = 1;
nodes = (
"227 484 LINE",
"195 347 OFFCURVE",
"147 214 OFFCURVE",
"65 99 CURVE SMOOTH",
"64 97 OFFCURVE",
"48 75 OFFCURVE",
"48 72 CURVE SMOOTH",
"48 69 OFFCURVE",
"56 67 OFFCURVE",
"58 67 CURVE SMOOTH",
"68 67 OFFCURVE",
"91 82 OFFCURVE",
"99 88 CURVE SMOOTH",
"176 145 OFFCURVE",
"261 338 OFFCURVE",
"283 432 CURVE"
);
},
{
closed = 1;
nodes = (
"470 594 OFFCURVE",
"461 632 OFFCURVE",
"434 632 CURVE SMOOTH",
"407 632 OFFCURVE",
"399 594 OFFCURVE",
"399 573 CURVE SMOOTH",
"399 570 OFFCURVE",
"399 567 OFFCURVE",
"400 563 CURVE",
"335 563 LINE",
"329 717 LINE",
"267 717 LINE",
"275 563 LINE",
"77 563 LINE",
"77 519 LINE",
"278 519 LINE",
"284 380 OFFCURVE",
"292 241 OFFCURVE",
"292 101 CURVE SMOOTH",
"292 90 OFFCURVE",
"290 53 OFFCURVE",
"274 53 CURVE SMOOTH",
"257 53 OFFCURVE",
"232 71 OFFCURVE",
"216 79 CURVE",
"208 79 LINE SMOOTH",
"206 79 OFFCURVE",
"202 76 OFFCURVE",
"202 74 CURVE SMOOTH",
"202 71 OFFCURVE",
"204 68 OFFCURVE",
"205 66 CURVE SMOOTH",
"222 38 OFFCURVE",
"265 -8 OFFCURVE",
"300 -8 CURVE SMOOTH",
"342 -8 OFFCURVE",
"352 44 OFFCURVE",
"352 77 CURVE SMOOTH",
"352 225 OFFCURVE",
"342 372 OFFCURVE",
"336 519 CURVE",
"429 519 LINE SMOOTH",
"459 519 OFFCURVE",
"470 547 OFFCURVE",
"470 573 CURVE SMOOTH"
);
}
);
vertWidth = 1000;
width = 500;
},
{
layerId = "39409886-7F43-4FCA-9A57-4D4CD31E7C44";
paths = (
{
closed = 1;
nodes = (
"462 593 OFFCURVE",
"453 636 OFFCURVE",
"427 636 CURVE SMOOTH",
"400 636 OFFCURVE",
"394 582 OFFCURVE",
"394 563 CURVE",
"327 563 LINE",
"321 724 LINE",
"259 718 LINE",
"267 563 LINE",
"68 563 LINE",
"67 516 LINE",
"270 516 LINE",
"273 434 LINE",
"217 479 LINE",
"185 346 OFFCURVE",
"129 182 OFFCURVE",
"43 75 CURVE SMOOTH",
"40 72 OFFCURVE",
"39 70 OFFCURVE",
"39 66 CURVE SMOOTH",
"39 63 OFFCURVE",
"42 61 OFFCURVE",
"44 61 CURVE SMOOTH",
"53 61 OFFCURVE",
"62 65 OFFCURVE",
"70 69 CURVE SMOOTH",
"163 119 OFFCURVE",
"248 319 OFFCURVE",
"274 418 CURVE",
"278 310 OFFCURVE",
"285 203 OFFCURVE",
"285 95 CURVE SMOOTH",
"285 84 OFFCURVE",
"283 47 OFFCURVE",
"266 47 CURVE SMOOTH",
"238 47 OFFCURVE",
"208 81 OFFCURVE",
"198 81 CURVE SMOOTH",
"196 81 OFFCURVE",
"195 78 OFFCURVE",
"195 77 CURVE SMOOTH",
"195 54 OFFCURVE",
"261 -31 OFFCURVE",
"291 -31 CURVE SMOOTH",
"334 -31 OFFCURVE",
"346 37 OFFCURVE",
"346 69 CURVE SMOOTH",
"346 218 OFFCURVE",
"334 367 OFFCURVE",
"329 516 CURVE",
"424 516 LINE SMOOTH",
"454 516 OFFCURVE",
"462 549 OFFCURVE",
"462 573 CURVE SMOOTH"
);
}
);
vertWidth = 1000;
width = 500;
}
);
note = cid00347;
unicode = FF75;
},
{
glyphname = "ka-kata.half";
lastChange = "2021-04-19 16:42:50 +0000";
layers = (
{
layerId = "7C35F0AE-75E9-4EA7-B446-8B6431835EB7";
paths = (
{
closed = 1;
nodes = (
"372 547 OFFCURVE",
"321 546 OFFCURVE",
"269 546 CURVE",
"277 716 LINE",
"217 716 LINE",
"214 546 LINE",
"81 546 LINE",
"81 499 LINE",
"210 501 LINE",
"204 370 OFFCURVE",
"183 192 OFFCURVE",
"109 81 CURVE SMOOTH",
"102 70 OFFCURVE",
"60 24 OFFCURVE",
"60 17 CURVE SMOOTH",
"60 13 OFFCURVE",
"64 10 OFFCURVE",
"68 10 CURVE SMOOTH",
"77 10 OFFCURVE",
"106 30 OFFCURVE",
"113 37 CURVE SMOOTH",
"227 143 OFFCURVE",
"257 358 OFFCURVE",
"267 506 CURVE",
"368 506 LINE",
"366 411 OFFCURVE",
"366 317 OFFCURVE",
"358 223 CURVE SMOOTH",
"356 197 OFFCURVE",
"345 96 OFFCURVE",
"311 96 CURVE SMOOTH",
"288 96 OFFCURVE",
"259 133 OFFCURVE",
"247 133 CURVE SMOOTH",
"245 133 OFFCURVE",
"240 130 OFFCURVE",
"240 128 CURVE SMOOTH",
"240 125 OFFCURVE",
"242 122 OFFCURVE",
"243 120 CURVE SMOOTH",
"256 95 OFFCURVE",
"294 30 OFFCURVE",
"325 30 CURVE SMOOTH",
"393 30 OFFCURVE",
"408 170 OFFCURVE",
"412 220 CURVE SMOOTH",
"421 328 OFFCURVE",
"423 438 OFFCURVE",
"424 547 CURVE"
);
}
);
vertWidth = 1000;
width = 500;
},
{
layerId = "C3C75DF7-0318-4740-9DA2-680DF808C9D5";
paths = (
{
closed = 1;
nodes = (
"375 547 OFFCURVE",
"324 546 OFFCURVE",
"272 546 CURVE",
"280 717 LINE",
"214 717 LINE",
"211 546 LINE",
"78 546 LINE",
"78 498 LINE",
"207 500 LINE",
"201 371 OFFCURVE",
"180 190 OFFCURVE",
"106 81 CURVE SMOOTH",
"99 71 OFFCURVE",
"57 24 OFFCURVE",
"57 17 CURVE SMOOTH",
"57 13 OFFCURVE",
"64 9 OFFCURVE",
"68 9 CURVE SMOOTH",
"78 9 OFFCURVE",
"108 30 OFFCURVE",
"116 37 CURVE SMOOTH",
"230 143 OFFCURVE",
"260 357 OFFCURVE",
"270 505 CURVE",
"365 505 LINE",
"364 451 OFFCURVE",
"369 96 OFFCURVE",
"311 96 CURVE SMOOTH",
"291 96 OFFCURVE",
"263 134 OFFCURVE",
"247 134 CURVE SMOOTH",
"245 134 OFFCURVE",
"237 131 OFFCURVE",
"237 128 CURVE SMOOTH",
"237 125 OFFCURVE",
"239 122 OFFCURVE",
"240 120 CURVE SMOOTH",
"254 93 OFFCURVE",
"291 29 OFFCURVE",
"325 29 CURVE SMOOTH",
"397 29 OFFCURVE",
"411 168 OFFCURVE",
"415 220 CURVE SMOOTH",
"424 329 OFFCURVE",
"426 438 OFFCURVE",
"427 547 CURVE"
);
}
);
vertWidth = 1000;
width = 500;
},
{
layerId = "39409886-7F43-4FCA-9A57-4D4CD31E7C44";
paths = (
{
closed = 1;
nodes = (
"372 551 OFFCURVE",
"320 550 OFFCURVE",
"269 550 CURVE",
"277 724 LINE",
"209 724 LINE",
"207 666 OFFCURVE",
"207 608 OFFCURVE",
"205 550 CURVE",
"73 550 LINE",
"72 499 LINE",
"202 501 LINE",
"196 384 OFFCURVE",
"178 235 OFFCURVE",
"132 127 CURVE SMOOTH",
"115 86 OFFCURVE",
"92 49 OFFCURVE",
"63 16 CURVE SMOOTH",
"60 12 OFFCURVE",
"57 9 OFFCURVE",
"57 4 CURVE SMOOTH",
"57 0 OFFCURVE",
"59 -3 OFFCURVE",
"63 -3 CURVE SMOOTH",
"73 -3 OFFCURVE",
"102 16 OFFCURVE",
"109 23 CURVE SMOOTH",
"122 35 OFFCURVE",
"135 51 OFFCURVE",
"145 66 CURVE SMOOTH",
"231 185 OFFCURVE",
"257 363 OFFCURVE",
"267 506 CURVE",
"359 506 LINE",
"358 449 OFFCURVE",
"360 89 OFFCURVE",
"303 89 CURVE SMOOTH",
"272 89 OFFCURVE",
"240 133 OFFCURVE",
"234 133 CURVE SMOOTH",
"231 133 OFFCURVE",
"231 130 OFFCURVE",
"231 128 CURVE SMOOTH",
"231 125 OFFCURVE",
"232 123 OFFCURVE",
"233 120 CURVE SMOOTH",
"244 94 OFFCURVE",
"283 1 OFFCURVE",
"316 1 CURVE SMOOTH",
"367 1 OFFCURVE",
"388 81 OFFCURVE",
"396 119 CURVE SMOOTH",
"408 175 OFFCURVE",
"412 235 OFFCURVE",
"416 292 CURVE SMOOTH",
"421 378 OFFCURVE",
"422 465 OFFCURVE",
"423 551 CURVE"
);
}
);
vertWidth = 1000;
width = 500;
}
);
note = cid00348;
unicode = FF76;
},
{
glyphname = "ki-kata.half";
lastChange = "2021-04-19 16:42:50 +0000";
layers = (
{
layerId = "7C35F0AE-75E9-4EA7-B446-8B6431835EB7";
paths = (
{
closed = 1;
nodes = (
"464 400 OFFCURVE",
"455 437 OFFCURVE",
"431 437 CURVE SMOOTH",
"407 437 OFFCURVE",
"400 398 OFFCURVE",
"400 380 CURVE SMOOTH",
"400 376 OFFCURVE",
"401 372 OFFCURVE",
"401 368 CURVE",
"282 351 LINE",
"270 512 LINE",
"391 527 LINE SMOOTH",
"413 530 OFFCURVE",
"419 561 OFFCURVE",
"419 579 CURVE SMOOTH",
"419 597 OFFCURVE",
"411 636 OFFCURVE",
"388 636 CURVE SMOOTH",
"363 636 OFFCURVE",
"356 598 OFFCURVE",
"356 578 CURVE SMOOTH",
"356 574 OFFCURVE",
"357 571 OFFCURVE",
"357 567 CURVE",
"267 554 LINE",
"254 739 LINE",
"197 727 LINE",
"212 547 LINE",
"80 532 LINE",
"81 488 LINE",
"216 507 LINE",
"229 343 LINE",
"64 320 LINE",
"66 276 LINE",
"233 302 LINE",
"257 -11 LINE",
"313 0 LINE",
"286 308 LINE",
"434 331 LINE SMOOTH",
"457 334 OFFCURVE",
"464 361 OFFCURVE",
"464 381 CURVE SMOOTH"
);
}
);
vertWidth = 1000;
width = 500;
},
{
layerId = "C3C75DF7-0318-4740-9DA2-680DF808C9D5";
paths = (
{
closed = 1;
nodes = (
"467 402 OFFCURVE",
"457 438 OFFCURVE",
"431 438 CURVE SMOOTH",
"404 438 OFFCURVE",
"397 401 OFFCURVE",
"397 380 CURVE SMOOTH",
"397 376 OFFCURVE",
"398 373 OFFCURVE",
"398 369 CURVE",
"285 353 LINE",
"273 512 LINE",
"392 527 LINE SMOOTH",
"416 530 OFFCURVE",
"422 560 OFFCURVE",
"422 579 CURVE SMOOTH",
"422 600 OFFCURVE",
"414 636 OFFCURVE",
"388 636 CURVE SMOOTH",
"360 636 OFFCURVE",
"353 600 OFFCURVE",
"353 579 CURVE SMOOTH",
"353 575 OFFCURVE",
"354 571 OFFCURVE",
"354 567 CURVE",
"270 556 LINE",
"257 741 LINE",
"194 727 LINE",
"209 547 LINE",
"77 532 LINE",
"78 487 LINE",
"213 506 LINE",
"226 343 LINE",
"61 320 LINE",
"63 275 LINE",
"230 301 LINE",
"254 -12 LINE",
"316 0 LINE",
"289 308 LINE",
"436 331 LINE SMOOTH",
"460 334 OFFCURVE",
"467 361 OFFCURVE",
"467 381 CURVE SMOOTH"
);
}
);
vertWidth = 1000;
width = 500;
},
{
layerId = "39409886-7F43-4FCA-9A57-4D4CD31E7C44";
paths = (
{
closed = 1;
nodes = (
"454 404 OFFCURVE",
"444 444 OFFCURVE",
"419 444 CURVE SMOOTH",
"396 444 OFFCURVE",
"386 401 OFFCURVE",
"386 384 CURVE SMOOTH",
"386 380 OFFCURVE",
"386 376 OFFCURVE",
"387 372 CURVE",
"272 354 LINE",
"260 512 LINE",
"378 526 LINE SMOOTH",
"403 529 OFFCURVE",
"409 565 OFFCURVE",
"409 585 CURVE SMOOTH",
"409 604 OFFCURVE",
"400 640 OFFCURVE",
"375 640 CURVE SMOOTH",
"348 640 OFFCURVE",
"340 589 OFFCURVE",
"340 570 CURVE",
"256 559 LINE",
"242 748 LINE",
"179 735 LINE",
"195 550 LINE",
"62 534 LINE",
"63 486 LINE",
"199 505 LINE",
"212 344 LINE",
"46 321 LINE",
"48 273 LINE",
"216 299 LINE",
"242 -29 LINE",
"305 -17 LINE",
"275 306 LINE",
"422 330 LINE SMOOTH",
"447 334 OFFCURVE",
"454 364 OFFCURVE",
"454 385 CURVE SMOOTH"
);
}
);
vertWidth = 1000;
width = 500;
}
);
note = cid00349;
unicode = FF77;
},
{
glyphname = "ku-kata.half";
lastChange = "2021-04-19 16:42:50 +0000";
layers = (
{
layerId = "7C35F0AE-75E9-4EA7-B446-8B6431835EB7";
paths = (
{
closed = 1;
nodes = (
"227 671 LINE",
"174 709 LINE",
"156 595 OFFCURVE",
"127 486 OFFCURVE",
"82 379 CURVE SMOOTH",
"80 375 OFFCURVE",
"79 371 OFFCURVE",
"79 366 CURVE SMOOTH",
"79 364 OFFCURVE",
"83 362 OFFCURVE",
"85 362 CURVE SMOOTH",
"90 362 OFFCURVE",
"94 364 OFFCURVE",
"98 367 CURVE SMOOTH",
"159 417 OFFCURVE",
"203 551 OFFCURVE",
"220 627 CURVE",
"356 627 LINE",
"337 487 OFFCURVE",
"299 333 OFFCURVE",
"237 206 CURVE SMOOTH",
"214 158 OFFCURVE",
"176 104 OFFCURVE",
"137 68 CURVE SMOOTH",
"120 52 OFFCURVE",
"101 38 OFFCURVE",
"80 29 CURVE SMOOTH",
"73 26 OFFCURVE",
"66 25 OFFCURVE",
"59 21 CURVE SMOOTH",
"56 19 OFFCURVE",
"53 15 OFFCURVE",
"53 11 CURVE SMOOTH",
"53 4 OFFCURVE",
"62 3 OFFCURVE",
"67 3 CURVE SMOOTH",
"94 3 OFFCURVE",
"122 12 OFFCURVE",
"146 25 CURVE SMOOTH",
"328 123 OFFCURVE",
"411 479 OFFCURVE",
"426 671 CURVE"
);
}
);
vertWidth = 1000;
width = 500;
},
{
layerId = "C3C75DF7-0318-4740-9DA2-680DF808C9D5";
paths = (
{
closed = 1;
nodes = (
"230 678 LINE",
"171 720 LINE",
"153 604 OFFCURVE",
"123 495 OFFCURVE",
"79 386 CURVE SMOOTH",
"77 382 OFFCURVE",
"76 378 OFFCURVE",
"76 373 CURVE SMOOTH",
"76 370 OFFCURVE",
"83 368 OFFCURVE",
"85 368 CURVE SMOOTH",
"91 368 OFFCURVE",
"96 370 OFFCURVE",
"101 374 CURVE SMOOTH",
"161 420 OFFCURVE",
"206 560 OFFCURVE",
"223 633 CURVE",
"353 633 LINE",
"333 493 OFFCURVE",
"297 340 OFFCURVE",
"234 213 CURVE SMOOTH",
"210 165 OFFCURVE",
"174 111 OFFCURVE",
"134 75 CURVE SMOOTH",
"117 59 OFFCURVE",
"99 46 OFFCURVE",
"78 36 CURVE SMOOTH",
"69 32 OFFCURVE",
"50 30 OFFCURVE",
"50 18 CURVE SMOOTH",
"50 9 OFFCURVE",
"62 9 OFFCURVE",
"67 9 CURVE SMOOTH",
"94 9 OFFCURVE",
"125 18 OFFCURVE",
"149 31 CURVE SMOOTH",
"333 135 OFFCURVE",
"414 481 OFFCURVE",
"429 678 CURVE"
);
}
);
vertWidth = 1000;
width = 500;
},
{
layerId = "39409886-7F43-4FCA-9A57-4D4CD31E7C44";
paths = (
{
closed = 1;
nodes = (
"232 679 LINE",
"212 695 OFFCURVE",
"191 709 OFFCURVE",
"169 720 CURVE",
"155 604 OFFCURVE",
"121 480 OFFCURVE",
"77 372 CURVE SMOOTH",
"75 368 OFFCURVE",
"74 363 OFFCURVE",
"74 359 CURVE SMOOTH",
"74 356 OFFCURVE",
"75 354 OFFCURVE",
"78 354 CURVE SMOOTH",
"88 354 OFFCURVE",
"98 363 OFFCURVE",
"105 369 CURVE SMOOTH",
"166 422 OFFCURVE",
"206 552 OFFCURVE",
"223 629 CURVE",
"351 629 LINE",
"335 491 OFFCURVE",
"294 328 OFFCURVE",
"233 202 CURVE SMOOTH",
"209 152 OFFCURVE",
"176 103 OFFCURVE",
"136 65 CURVE SMOOTH",
"106 37 OFFCURVE",
"90 29 OFFCURVE",
"55 11 CURVE SMOOTH",
"51 9 OFFCURVE",
"49 6 OFFCURVE",
"49 1 CURVE SMOOTH",
"49 -7 OFFCURVE",
"60 -8 OFFCURVE",
"66 -8 CURVE SMOOTH",
"95 -8 OFFCURVE",
"124 0 OFFCURVE",
"150 13 CURVE SMOOTH",
"259 69 OFFCURVE",
"317 201 OFFCURVE",
"355 311 CURVE SMOOTH",
"392 420 OFFCURVE",
"423 564 OFFCURVE",
"431 679 CURVE"
);
}
);
vertWidth = 1000;
width = 500;
}
);
note = cid00350;
unicode = FF78;
},
{
glyphname = "ke-kata.half";
lastChange = "2021-04-19 16:42:50 +0000";
layers = (
{
layerId = "7C35F0AE-75E9-4EA7-B446-8B6431835EB7";
paths = (
{
closed = 1;
nodes = (
"457 578 OFFCURVE",
"449 617 OFFCURVE",
"425 617 CURVE SMOOTH",
"401 617 OFFCURVE",
"392 578 OFFCURVE",
"392 559 CURVE SMOOTH",
"392 557 OFFCURVE",
"392 554 OFFCURVE",
"393 552 CURVE",
"169 552 LINE",
"183 603 OFFCURVE",
"191 655 OFFCURVE",
"198 707 CURVE",
"141 727 LINE",
"132 611 OFFCURVE",
"109 468 OFFCURVE",
"67 360 CURVE SMOOTH",
"65 356 OFFCURVE",
"63 352 OFFCURVE",
"63 347 CURVE SMOOTH",
"63 345 OFFCURVE",
"67 343 OFFCURVE",
"69 343 CURVE SMOOTH",
"73 343 OFFCURVE",
"77 345 OFFCURVE",
"80 348 CURVE SMOOTH",
"119 385 OFFCURVE",
"146 456 OFFCURVE",
"161 507 CURVE",
"274 507 LINE",
"274 393 OFFCURVE",
"264 250 OFFCURVE",
"221 144 CURVE SMOOTH",
"199 91 OFFCURVE",
"168 54 OFFCURVE",
"120 22 CURVE",
"117 19 OFFCURVE",
"114 17 OFFCURVE",
"114 13 CURVE SMOOTH",
"114 9 OFFCURVE",
"120 6 OFFCURVE",
"123 6 CURVE SMOOTH",
"156 6 OFFCURVE",
"204 41 OFFCURVE",
"224 65 CURVE SMOOTH",
"316 179 OFFCURVE",
"330 365 OFFCURVE",
"333 506 CURVE",
"419 506 LINE SMOOTH",
"449 506 OFFCURVE",
"457 535 OFFCURVE",
"457 559 CURVE SMOOTH"
);
}
);
vertWidth = 1000;
width = 500;
},
{
layerId = "C3C75DF7-0318-4740-9DA2-680DF808C9D5";
paths = (
{
closed = 1;
nodes = (
"460 584 OFFCURVE",
"452 620 OFFCURVE",
"425 620 CURVE SMOOTH",
"398 620 OFFCURVE",
"389 584 OFFCURVE",
"389 563 CURVE SMOOTH",
"389 560 OFFCURVE",
"389 558 OFFCURVE",
"390 556 CURVE",
"172 556 LINE",
"186 606 OFFCURVE",
"194 658 OFFCURVE",
"201 710 CURVE",
"138 732 LINE",
"129 615 OFFCURVE",
"107 473 OFFCURVE",
"64 364 CURVE SMOOTH",
"62 359 OFFCURVE",
"60 355 OFFCURVE",
"60 350 CURVE SMOOTH",
"60 348 OFFCURVE",
"67 345 OFFCURVE",
"69 345 CURVE SMOOTH",
"74 345 OFFCURVE",
"79 348 OFFCURVE",
"83 351 CURVE SMOOTH",
"121 384 OFFCURVE",
"150 462 OFFCURVE",
"164 510 CURVE",
"271 510 LINE",
"271 395 OFFCURVE",
"261 254 OFFCURVE",
"218 147 CURVE SMOOTH",
"196 92 OFFCURVE",
"165 59 OFFCURVE",
"117 25 CURVE SMOOTH",
"114 23 OFFCURVE",
"111 21 OFFCURVE",
"111 16 CURVE SMOOTH",
"111 11 OFFCURVE",
"120 9 OFFCURVE",
"123 9 CURVE SMOOTH",
"157 9 OFFCURVE",
"206 42 OFFCURVE",
"227 68 CURVE SMOOTH",
"319 184 OFFCURVE",
"333 366 OFFCURVE",
"336 509 CURVE",
"419 509 LINE SMOOTH",
"451 509 OFFCURVE",
"460 536 OFFCURVE",
"460 563 CURVE SMOOTH"
);
}
);
vertWidth = 1000;
width = 500;
},
{
layerId = "39409886-7F43-4FCA-9A57-4D4CD31E7C44";
paths = (
{
closed = 1;
nodes = (
"452 582 OFFCURVE",
"443 620 OFFCURVE",
"417 620 CURVE SMOOTH",
"390 620 OFFCURVE",
"383 570 OFFCURVE",
"383 551 CURVE",
"164 551 LINE",
"177 602 OFFCURVE",
"187 654 OFFCURVE",
"194 706 CURVE",
"129 737 LINE",
"121 637 OFFCURVE",
"106 536 OFFCURVE",
"80 439 CURVE SMOOTH",
"75 423 OFFCURVE",
"49 351 OFFCURVE",
"49 343 CURVE SMOOTH",
"49 340 OFFCURVE",
"49 335 OFFCURVE",
"54 335 CURVE SMOOTH",
"67 335 OFFCURVE",
"96 373 OFFCURVE",
"104 384 CURVE SMOOTH",
"126 419 OFFCURVE",
"140 462 OFFCURVE",
"153 502 CURVE",
"261 502 LINE",
"261 384 OFFCURVE",
"246 231 OFFCURVE",
"203 122 CURVE SMOOTH",
"182 72 OFFCURVE",
"145 22 OFFCURVE",
"97 -3 CURVE",
"96 -3 LINE SMOOTH",
"93 -4 OFFCURVE",
"90 -11 OFFCURVE",
"90 -14 CURVE SMOOTH",
"90 -21 OFFCURVE",
"99 -22 OFFCURVE",
"104 -22 CURVE SMOOTH",
"138 -22 OFFCURVE",
"190 12 OFFCURVE",
"212 38 CURVE SMOOTH",
"307 158 OFFCURVE",
"324 353 OFFCURVE",
"327 501 CURVE",
"411 501 LINE SMOOTH",
"442 501 OFFCURVE",
"452 536 OFFCURVE",
"452 562 CURVE SMOOTH"
);
}
);
vertWidth = 1000;
width = 500;
}
);
note = cid00351;
unicode = FF79;
},
{
glyphname = "ko-kata.half";
lastChange = "2021-04-19 16:42:50 +0000";
layers = (
{
layerId = "7C35F0AE-75E9-4EA7-B446-8B6431835EB7";
paths = (
{
closed = 1;
nodes = (
"418 586 LINE",
"100 586 LINE",
"100 540 LINE",
"358 540 LINE",
"358 198 LINE SMOOTH",
"358 176 OFFCURVE",
"356 104 OFFCURVE",
"323 104 CURVE SMOOTH",
"98 104 LINE",
"98 58 LINE",
"336 58 LINE SMOOTH",
"409 58 OFFCURVE",
"418 145 OFFCURVE",
"418 199 CURVE SMOOTH"
);
}
);
vertWidth = 1000;
width = 500;
},
{
layerId = "C3C75DF7-0318-4740-9DA2-680DF808C9D5";
paths = (
{
closed = 1;
nodes = (
"421 587 LINE",
"97 587 LINE",
"97 539 LINE",
"355 539 LINE",
"355 198 LINE SMOOTH",
"355 178 OFFCURVE",
"353 105 OFFCURVE",
"323 105 CURVE SMOOTH",
"95 105 LINE",
"95 57 LINE",
"336 57 LINE SMOOTH",
"411 57 OFFCURVE",
"421 142 OFFCURVE",
"421 199 CURVE SMOOTH"
);
}
);
vertWidth = 1000;
width = 500;
},
{
layerId = "39409886-7F43-4FCA-9A57-4D4CD31E7C44";
paths = (
{
closed = 1;
nodes = (
"408 606 LINE",
"74 606 LINE",
"74 553 LINE",
"335 553 LINE",
"335 238 LINE SMOOTH",
"335 209 OFFCURVE",
"335 118 OFFCURVE",
"291 118 CURVE SMOOTH",
"71 118 LINE",
"71 65 LINE",
"306 65 LINE SMOOTH",
"401 65 OFFCURVE",
"408 179 OFFCURVE",
"408 250 CURVE SMOOTH"
);
}
);
vertWidth = 1000;
width = 500;
}
);
note = cid00352;
unicode = FF7A;
},
{
glyphname = "sa-kata.half";
lastChange = "2021-04-19 16:42:50 +0000";
layers = (
{
layerId = "7C35F0AE-75E9-4EA7-B446-8B6431835EB7";
paths = (
{
closed = 1;
nodes = (
"489 541 OFFCURVE",
"481 581 OFFCURVE",
"457 581 CURVE SMOOTH",
"432 581 OFFCURVE",
"425 541 OFFCURVE",
"425 522 CURVE SMOOTH",
"425 514 LINE",
"369 514 LINE",
"369 708 LINE",
"315 708 LINE",
"315 514 LINE",
"202 514 LINE",
"202 699 LINE",
"149 699 LINE",
"149 514 LINE",
"48 514 LINE",
"48 469 LINE",
"149 469 LINE",
"149 285 LINE",
"202 285 LINE",
"202 469 LINE",
"315 469 LINE",
"312 387 OFFCURVE",
"307 304 OFFCURVE",
"284 226 CURVE SMOOTH",
"264 159 OFFCURVE",
"213 57 OFFCURVE",
"149 23 CURVE SMOOTH",
"142 20 OFFCURVE",
"114 10 OFFCURVE",
"114 1 CURVE SMOOTH",
"114 -4 OFFCURVE",
"119 -6 OFFCURVE",
"124 -6 CURVE SMOOTH",
"141 -6 OFFCURVE",
"159 -1 OFFCURVE",
"175 5 CURVE SMOOTH",
"341 74 OFFCURVE",
"362 314 OFFCURVE",
"368 469 CURVE",
"458 469 LINE SMOOTH",
"481 469 OFFCURVE",
"489 504 OFFCURVE",
"489 522 CURVE SMOOTH"
);
}
);
vertWidth = 1000;
width = 500;
},
{
layerId = "C3C75DF7-0318-4740-9DA2-680DF808C9D5";
paths = (
{
closed = 1;
nodes = (
"492 543 OFFCURVE",
"484 581 OFFCURVE",
"457 581 CURVE SMOOTH",
"430 581 OFFCURVE",
"422 544 OFFCURVE",
"422 522 CURVE SMOOTH",
"422 514 LINE",
"372 514 LINE",
"372 709 LINE",
"312 709 LINE",
"312 514 LINE",
"205 514 LINE",
"205 700 LINE",
"146 700 LINE",
"146 514 LINE",
"45 514 LINE",
"45 468 LINE",
"146 468 LINE",
"146 284 LINE",
"205 284 LINE",
"205 468 LINE",
"312 468 LINE",
"309 387 OFFCURVE",
"304 304 OFFCURVE",
"281 226 CURVE SMOOTH",
"262 159 OFFCURVE",
"209 57 OFFCURVE",
"146 24 CURVE SMOOTH",
"139 20 OFFCURVE",
"111 11 OFFCURVE",
"111 1 CURVE SMOOTH",
"111 -5 OFFCURVE",
"119 -7 OFFCURVE",
"124 -7 CURVE SMOOTH",
"141 -7 OFFCURVE",
"162 -2 OFFCURVE",
"177 5 CURVE SMOOTH",
"345 78 OFFCURVE",
"365 310 OFFCURVE",
"371 468 CURVE",
"458 468 LINE SMOOTH",
"484 468 OFFCURVE",
"492 502 OFFCURVE",
"492 522 CURVE SMOOTH"
);
}
);
vertWidth = 1000;
width = 500;
},
{
layerId = "39409886-7F43-4FCA-9A57-4D4CD31E7C44";
paths = (
{
closed = 1;
nodes = (
"484 542 OFFCURVE",
"476 584 OFFCURVE",
"448 584 CURVE SMOOTH",
"421 584 OFFCURVE",
"414 532 OFFCURVE",
"414 513 CURVE",
"363 513 LINE",
"363 710 LINE",
"302 710 LINE",
"302 513 LINE",
"195 513 LINE",
"195 701 LINE",
"134 701 LINE",
"134 513 LINE",
"33 513 LINE",
"33 465 LINE",
"134 465 LINE",
"134 275 LINE",
"194 275 LINE",
"194 465 LINE",
"302 465 LINE",
"300 380 OFFCURVE",
"293 293 OFFCURVE",
"269 211 CURVE SMOOTH",
"248 139 OFFCURVE",
"202 55 OFFCURVE",
"136 14 CURVE SMOOTH",
"131 11 OFFCURVE",
"99 -2 OFFCURVE",
"99 -8 CURVE SMOOTH",
"99 -15 OFFCURVE",
"106 -17 OFFCURVE",
"112 -17 CURVE SMOOTH",
"130 -17 OFFCURVE",
"149 -12 OFFCURVE",
"166 -5 CURVE SMOOTH",
"339 62 OFFCURVE",
"358 308 OFFCURVE",
"361 465 CURVE",
"449 465 LINE SMOOTH",
"474 465 OFFCURVE",
"484 501 OFFCURVE",
"484 521 CURVE SMOOTH"
);
}
);
vertWidth = 1000;
width = 500;
}
);
note = cid00353;
unicode = FF7B;
},
{
glyphname = "si-kata.half";
lastChange = "2021-04-19 16:42:50 +0000";
layers = (
{
layerId = "7C35F0AE-75E9-4EA7-B446-8B6431835EB7";
paths = (
{
closed = 1;
nodes = (
"455 544 OFFCURVE",
"452 557 OFFCURVE",
"447 557 CURVE SMOOTH",
"436 557 OFFCURVE",
"421 492 OFFCURVE",
"418 481 CURVE SMOOTH",
"404 433 OFFCURVE",
"388 385 OFFCURVE",
"367 339 CURVE SMOOTH",
"344 289 OFFCURVE",
"314 240 OFFCURVE",
"275 200 CURVE SMOOTH",
"232 156 OFFCURVE",
"159 108 OFFCURVE",
"99 94 CURVE",
"124 8 LINE",
"197 27 OFFCURVE",
"265 79 OFFCURVE",
"312 136 CURVE SMOOTH",
"366 201 OFFCURVE",
"400 281 OFFCURVE",
"423 362 CURVE SMOOTH",
"439 418 OFFCURVE",
"455 482 OFFCURVE",
"455 540 CURVE SMOOTH"
);
},
{
closed = 1;
nodes = (
"236 394 OFFCURVE",
"235 400 OFFCURVE",
"233 405 CURVE SMOOTH",
"214 462 OFFCURVE",
"174 506 OFFCURVE",
"118 528 CURVE",
"113 514 OFFCURVE",
"91 456 OFFCURVE",
"91 447 CURVE SMOOTH",
"91 442 OFFCURVE",
"91 439 OFFCURVE",
"95 437 CURVE",
"103 431 OFFCURVE",
"126 428 OFFCURVE",
"137 423 CURVE SMOOTH",
"168 409 OFFCURVE",
"192 384 OFFCURVE",
"223 373 CURVE",
"231 373 OFFCURVE",
"236 381 OFFCURVE",
"236 388 CURVE SMOOTH"
);
},
{
closed = 1;
nodes = (
"261 568 OFFCURVE",
"260 574 OFFCURVE",
"258 579 CURVE SMOOTH",
"240 637 OFFCURVE",
"198 678 OFFCURVE",
"142 699 CURVE",
"136 682 OFFCURVE",
"117 633 OFFCURVE",
"117 618 CURVE SMOOTH",
"117 604 OFFCURVE",
"150 599 OFFCURVE",
"161 595 CURVE SMOOTH",
"181 587 OFFCURVE",
"236 547 OFFCURVE",
"248 547 CURVE SMOOTH",
"256 547 OFFCURVE",
"261 555 OFFCURVE",
"261 562 CURVE SMOOTH"
);
}
);
vertWidth = 1000;
width = 500;
},
{
layerId = "C3C75DF7-0318-4740-9DA2-680DF808C9D5";
paths = (
{
closed = 1;
nodes = (
"458 546 OFFCURVE",
"452 558 OFFCURVE",
"447 558 CURVE SMOOTH",
"436 558 OFFCURVE",
"429 532 OFFCURVE",
"427 524 CURVE SMOOTH",
"422 510 OFFCURVE",
"419 496 OFFCURVE",
"415 482 CURVE SMOOTH",
"401 434 OFFCURVE",
"385 386 OFFCURVE",
"364 340 CURVE SMOOTH",
"341 290 OFFCURVE",
"311 241 OFFCURVE",
"272 201 CURVE SMOOTH",
"229 156 OFFCURVE",
"157 110 OFFCURVE",
"96 96 CURVE",
"122 7 LINE",
"289 52 OFFCURVE",
"381 208 OFFCURVE",
"426 363 CURVE SMOOTH",
"442 421 OFFCURVE",
"458 481 OFFCURVE",
"458 541 CURVE SMOOTH"
);
},
{
closed = 1;
nodes = (
"239 395 OFFCURVE",
"238 401 OFFCURVE",
"236 406 CURVE SMOOTH",
"216 466 OFFCURVE",
"174 508 OFFCURVE",
"116 531 CURVE",
"110 517 OFFCURVE",
"88 458 OFFCURVE",
"88 448 CURVE SMOOTH",
"88 443 OFFCURVE",
"88 441 OFFCURVE",
"93 437 CURVE SMOOTH",
"97 434 OFFCURVE",
"118 429 OFFCURVE",
"125 427 CURVE SMOOTH",
"160 416 OFFCURVE",
"186 386 OFFCURVE",
"221 373 CURVE",
"230 373 OFFCURVE",
"239 380 OFFCURVE",
"239 389 CURVE SMOOTH"
);
},
{
closed = 1;
nodes = (
"264 569 OFFCURVE",
"263 575 OFFCURVE",
"261 580 CURVE SMOOTH",
"241 641 OFFCURVE",
"198 680 OFFCURVE",
"140 702 CURVE",
"133 685 OFFCURVE",
"114 635 OFFCURVE",
"114 619 CURVE SMOOTH",
"114 607 OFFCURVE",
"138 601 OFFCURVE",
"147 599 CURVE SMOOTH",
"175 592 OFFCURVE",
"230 547 OFFCURVE",
"248 547 CURVE SMOOTH",
"256 547 OFFCURVE",
"264 555 OFFCURVE",
"264 563 CURVE SMOOTH"
);
}
);
vertWidth = 1000;
width = 500;
},
{
layerId = "39409886-7F43-4FCA-9A57-4D4CD31E7C44";
paths = (
{
closed = 1;
nodes = (
"450 550 OFFCURVE",
"448 557 OFFCURVE",
"444 557 CURVE SMOOTH",
"440 557 OFFCURVE",
"438 551 OFFCURVE",
"437 548 CURVE SMOOTH",
"413 474 OFFCURVE",
"392 400 OFFCURVE",
"357 330 CURVE SMOOTH",
"332 280 OFFCURVE",
"301 232 OFFCURVE",
"262 191 CURVE SMOOTH",
"219 146 OFFCURVE",
"146 99 OFFCURVE",
"86 83 CURVE",
"114 -14 LINE",
"190 3 OFFCURVE",
"260 62 OFFCURVE",
"308 121 CURVE SMOOTH",
"362 187 OFFCURVE",
"397 272 OFFCURVE",
"420 353 CURVE SMOOTH",
"434 404 OFFCURVE",
"450 494 OFFCURVE",
"450 547 CURVE SMOOTH"
);
},
{
closed = 1;
nodes = (
"229 381 OFFCURVE",
"228 388 OFFCURVE",
"226 394 CURVE SMOOTH",
"207 454 OFFCURVE",
"162 505 OFFCURVE",
"104 528 CURVE",
"100 511 OFFCURVE",
"79 442 OFFCURVE",
"79 431 CURVE SMOOTH",
"79 426 OFFCURVE",
"80 425 OFFCURVE",
"84 423 CURVE SMOOTH",
"98 418 OFFCURVE",
"112 415 OFFCURVE",
"125 409 CURVE SMOOTH",
"153 396 OFFCURVE",
"180 381 OFFCURVE",
"207 366 CURVE SMOOTH",
"209 365 OFFCURVE",
"219 359 OFFCURVE",
"221 359 CURVE SMOOTH",
"229 359 OFFCURVE",
"229 369 OFFCURVE",
"229 375 CURVE SMOOTH"
);
},
{
closed = 1;
nodes = (
"255 559 OFFCURVE",
"254 566 OFFCURVE",
"252 572 CURVE SMOOTH",
"234 631 OFFCURVE",
"188 681 OFFCURVE",
"130 703 CURVE",
"126 686 OFFCURVE",
"104 620 OFFCURVE",
"104 609 CURVE SMOOTH",
"104 605 OFFCURVE",
"105 602 OFFCURVE",
"109 600 CURVE SMOOTH",
"122 594 OFFCURVE",
"137 592 OFFCURVE",
"151 586 CURVE SMOOTH",
"167 580 OFFCURVE",
"182 573 OFFCURVE",
"197 565 CURVE SMOOTH",
"206 560 OFFCURVE",
"240 538 OFFCURVE",
"247 538 CURVE SMOOTH",
"255 538 OFFCURVE",
"255 547 OFFCURVE",
"255 553 CURVE SMOOTH"
);
}
);
vertWidth = 1000;
width = 500;
}
);
note = cid00354;
unicode = FF7C;
},
{
glyphname = "su-kata.half";
lastChange = "2021-04-19 16:42:50 +0000";
layers = (
{
layerId = "7C35F0AE-75E9-4EA7-B446-8B6431835EB7";
paths = (
{
closed = 1;
nodes = (
"449 29 OFFCURVE",
"448 33 OFFCURVE",
"446 36 CURVE SMOOTH",
"388 143 OFFCURVE",
"335 244 OFFCURVE",
"298 360 CURVE",
"330 455 OFFCURVE",
"352 553 OFFCURVE",
"364 652 CURVE",
"106 652 LINE",
"106 607 LINE",
"292 607 LINE",
"277 455 OFFCURVE",
"212 245 OFFCURVE",
"124 120 CURVE SMOOTH",
"103 90 OFFCURVE",
"79 63 OFFCURVE",
"52 39 CURVE SMOOTH",
"49 37 OFFCURVE",
"45 34 OFFCURVE",
"45 29 CURVE SMOOTH",
"45 24 OFFCURVE",
"50 24 OFFCURVE",
"54 24 CURVE SMOOTH",
"73 24 OFFCURVE",
"101 42 OFFCURVE",
"116 53 CURVE SMOOTH",
"183 102 OFFCURVE",
"230 192 OFFCURVE",
"263 267 CURVE",
"302 186 OFFCURVE",
"358 67 OFFCURVE",
"433 16 CURVE SMOOTH",
"435 15 OFFCURVE",
"437 15 OFFCURVE",
"439 15 CURVE SMOOTH",
"444 15 OFFCURVE",
"449 20 OFFCURVE",
"449 25 CURVE SMOOTH"
);
}
);
vertWidth = 1000;
width = 500;
},
{
layerId = "C3C75DF7-0318-4740-9DA2-680DF808C9D5";
paths = (
{
closed = 1;
nodes = (
"452 29 OFFCURVE",
"451 33 OFFCURVE",
"449 36 CURVE SMOOTH",
"394 142 OFFCURVE",
"338 245 OFFCURVE",
"301 360 CURVE",
"333 455 OFFCURVE",
"355 553 OFFCURVE",
"367 653 CURVE",
"103 653 LINE",
"103 607 LINE",
"289 607 LINE",
"274 453 OFFCURVE",
"210 247 OFFCURVE",
"121 120 CURVE SMOOTH",
"100 90 OFFCURVE",
"76 64 OFFCURVE",
"49 39 CURVE SMOOTH",
"48 38 OFFCURVE",
"46 37 OFFCURVE",
"44 35 CURVE",
"43 33 OFFCURVE",
"42 31 OFFCURVE",
"42 29 CURVE SMOOTH",
"42 23 OFFCURVE",
"50 23 OFFCURVE",
"54 23 CURVE SMOOTH",
"76 23 OFFCURVE",
"102 40 OFFCURVE",
"119 53 CURVE SMOOTH",
"185 102 OFFCURVE",
"230 187 OFFCURVE",
"263 260 CURVE",
"300 184 OFFCURVE",
"358 63 OFFCURVE",
"430 16 CURVE SMOOTH",
"433 14 OFFCURVE",
"436 14 OFFCURVE",
"439 14 CURVE SMOOTH",
"444 14 OFFCURVE",
"452 19 OFFCURVE",
"452 25 CURVE SMOOTH"
);
}
);
vertWidth = 1000;
width = 500;
},
{
layerId = "39409886-7F43-4FCA-9A57-4D4CD31E7C44";
paths = (
{
closed = 1;
nodes = (
"451 17 OFFCURVE",
"450 20 OFFCURVE",
"448 24 CURVE SMOOTH",
"391 134 OFFCURVE",
"339 246 OFFCURVE",
"307 366 CURVE",
"336 459 OFFCURVE",
"356 556 OFFCURVE",
"368 653 CURVE",
"101 653 LINE",
"100 604 LINE",
"286 604 LINE",
"264 444 OFFCURVE",
"213 247 OFFCURVE",
"118 114 CURVE SMOOTH",
"98 85 OFFCURVE",
"74 56 OFFCURVE",
"47 33 CURVE SMOOTH",
"43 30 OFFCURVE",
"39 28 OFFCURVE",
"39 22 CURVE SMOOTH",
"39 16 OFFCURVE",
"48 15 OFFCURVE",
"52 15 CURVE SMOOTH",
"71 15 OFFCURVE",
"109 35 OFFCURVE",
"124 46 CURVE SMOOTH",
"187 92 OFFCURVE",
"239 182 OFFCURVE",
"264 254 CURVE",
"291 189 OFFCURVE",
"334 99 OFFCURVE",
"382 47 CURVE SMOOTH",
"394 34 OFFCURVE",
"427 3 OFFCURVE",
"444 3 CURVE SMOOTH",
"449 3 OFFCURVE",
"451 8 OFFCURVE",
"451 12 CURVE SMOOTH"
);
}
);
vertWidth = 1000;
width = 500;
}
);
note = cid00355;
unicode = FF7D;
},
{
glyphname = "se-kata.half";
lastChange = "2021-04-19 16:42:50 +0000";
layers = (
{
layerId = "7C35F0AE-75E9-4EA7-B446-8B6431835EB7";
paths = (
{
closed = 1;
nodes = (
"455 135 OFFCURVE",
"452 138 OFFCURVE",
"448 137 CURVE",
"391 107 OFFCURVE",
"368 90 OFFCURVE",
"300 90 CURVE SMOOTH",
"285 90 OFFCURVE",
"269 91 OFFCURVE",
"255 97 CURVE SMOOTH",
"213 117 OFFCURVE",
"212 189 OFFCURVE",
"212 229 CURVE SMOOTH",
"212 295 OFFCURVE",
"213 361 OFFCURVE",
"214 427 CURVE",
"370 474 LINE",
"366 421 OFFCURVE",
"333 304 OFFCURVE",
"304 261 CURVE SMOOTH",
"299 254 OFFCURVE",
"279 231 OFFCURVE",
"279 224 CURVE SMOOTH",
"279 219 OFFCURVE",
"284 218 OFFCURVE",
"287 218 CURVE SMOOTH",
"294 218 OFFCURVE",
"313 232 OFFCURVE",
"319 236 CURVE SMOOTH",
"396 299 OFFCURVE",
"434 443 OFFCURVE",
"434 539 CURVE",
"361 517 OFFCURVE",
"288 496 OFFCURVE",
"215 475 CURVE",
"215 550 OFFCURVE",
"217 624 OFFCURVE",
"217 698 CURVE",
"161 698 LINE",
"161 459 LINE",
"45 431 LINE",
"50 378 LINE",
"161 412 LINE",
"161 243 LINE SMOOTH",
"161 181 OFFCURVE",
"162 69 OFFCURVE",
"224 35 CURVE SMOOTH",
"248 22 OFFCURVE",
"276 20 OFFCURVE",
"302 20 CURVE SMOOTH",
"367 20 OFFCURVE",
"430 61 OFFCURVE",
"453 122 CURVE SMOOTH",
"454 125 OFFCURVE",
"455 128 OFFCURVE",
"455 131 CURVE SMOOTH"
);
}
);
vertWidth = 1000;
width = 500;
},
{
layerId = "C3C75DF7-0318-4740-9DA2-680DF808C9D5";
paths = (
{
closed = 1;
nodes = (
"458 137 OFFCURVE",
"451 138 OFFCURVE",
"446 138 CURVE",
"390 109 OFFCURVE",
"365 90 OFFCURVE",
"300 90 CURVE SMOOTH",
"285 90 OFFCURVE",
"271 91 OFFCURVE",
"257 98 CURVE SMOOTH",
"216 118 OFFCURVE",
"215 189 OFFCURVE",
"215 229 CURVE SMOOTH",
"215 294 OFFCURVE",
"216 360 OFFCURVE",
"217 426 CURVE",
"367 472 LINE",
"362 420 OFFCURVE",
"330 303 OFFCURVE",
"301 262 CURVE SMOOTH",
"296 254 OFFCURVE",
"276 231 OFFCURVE",
"276 224 CURVE SMOOTH",
"276 219 OFFCURVE",
"284 217 OFFCURVE",
"287 217 CURVE SMOOTH",
"295 217 OFFCURVE",
"316 231 OFFCURVE",
"322 236 CURVE SMOOTH",
"400 300 OFFCURVE",
"437 444 OFFCURVE",
"437 541 CURVE",
"364 519 OFFCURVE",
"291 498 OFFCURVE",
"218 477 CURVE",
"218 551 OFFCURVE",
"220 625 OFFCURVE",
"220 699 CURVE",
"158 699 LINE",
"158 459 LINE",
"42 431 LINE",
"47 376 LINE",
"158 410 LINE",
"158 243 LINE SMOOTH",
"158 180 OFFCURVE",
"158 69 OFFCURVE",
"222 35 CURVE SMOOTH",
"246 21 OFFCURVE",
"275 19 OFFCURVE",
"302 19 CURVE SMOOTH",
"368 19 OFFCURVE",
"432 60 OFFCURVE",
"456 122 CURVE SMOOTH",
"457 125 OFFCURVE",
"458 128 OFFCURVE",
"458 131 CURVE SMOOTH"
);
}
);
vertWidth = 1000;
width = 500;
},
{
layerId = "39409886-7F43-4FCA-9A57-4D4CD31E7C44";
paths = (
{
closed = 1;
nodes = (
"462 141 OFFCURVE",
"462 147 OFFCURVE",
"458 148 CURVE",
"406 118 OFFCURVE",
"365 96 OFFCURVE",
"303 96 CURVE SMOOTH",
"288 96 OFFCURVE",
"271 97 OFFCURVE",
"258 105 CURVE SMOOTH",
"218 126 OFFCURVE",
"217 197 OFFCURVE",
"217 235 CURVE SMOOTH",
"217 304 OFFCURVE",
"218 373 OFFCURVE",
"219 442 CURVE",
"369 487 LINE",
"364 430 OFFCURVE",
"343 352 OFFCURVE",
"318 300 CURVE SMOOTH",
"314 292 OFFCURVE",
"288 248 OFFCURVE",
"288 244 CURVE SMOOTH",
"288 240 OFFCURVE",
"289 234 OFFCURVE",
"294 234 CURVE SMOOTH",
"302 234 OFFCURVE",
"320 250 OFFCURVE",
"326 255 CURVE SMOOTH",
"411 328 OFFCURVE",
"441 452 OFFCURVE",
"441 560 CURVE",
"368 537 OFFCURVE",
"294 516 OFFCURVE",
"220 495 CURVE",
"223 718 LINE",
"158 718 LINE",
"158 476 LINE",
"43 446 LINE",
"48 388 LINE",
"158 425 LINE",
"158 250 LINE SMOOTH",
"158 210 OFFCURVE",
"160 170 OFFCURVE",
"167 130 CURVE SMOOTH",
"181 54 OFFCURVE",
"213 9 OFFCURVE",
"295 9 CURVE SMOOTH",
"360 9 OFFCURVE",
"420 55 OFFCURVE",
"450 110 CURVE SMOOTH",
"453 116 OFFCURVE",
"462 132 OFFCURVE",
"462 138 CURVE SMOOTH"
);
}
);
vertWidth = 1000;
width = 500;
}
);
note = cid00356;
unicode = FF7E;
},
{
glyphname = "so-kata.half";
lastChange = "2021-04-19 16:42:50 +0000";
layers = (
{
layerId = "7C35F0AE-75E9-4EA7-B446-8B6431835EB7";
paths = (
{
closed = 1;
nodes = (
"361 644 LINE",
"348 507 OFFCURVE",
"322 351 OFFCURVE",
"265 226 CURVE SMOOTH",
"227 143 OFFCURVE",
"186 94 OFFCURVE",
"116 37 CURVE SMOOTH",
"113 35 OFFCURVE",
"110 33 OFFCURVE",
"110 28 CURVE SMOOTH",
"110 23 OFFCURVE",
"117 22 OFFCURVE",
"121 22 CURVE SMOOTH",
"134 22 OFFCURVE",
"162 36 OFFCURVE",
"174 42 CURVE SMOOTH",
"220 68 OFFCURVE",
"259 112 OFFCURVE",
"288 156 CURVE SMOOTH",
"374 284 OFFCURVE",
"407 461 OFFCURVE",
"423 613 CURVE"
);
},
{
closed = 1;
nodes = (
"224 448 OFFCURVE",
"218 452 OFFCURVE",
"213 458 CURVE SMOOTH",
"192 482 OFFCURVE",
"174 521 OFFCURVE",
"162 551 CURVE SMOOTH",
"155 568 OFFCURVE",
"150 585 OFFCURVE",
"146 602 CURVE SMOOTH",
"144 611 OFFCURVE",
"143 620 OFFCURVE",
"139 628 CURVE SMOOTH",
"137 632 OFFCURVE",
"135 633 OFFCURVE",
"131 633 CURVE SMOOTH",
"127 633 OFFCURVE",
"92 592 OFFCURVE",
"87 586 CURVE",
"100 537 OFFCURVE",
"144 431 OFFCURVE",
"206 431 CURVE SMOOTH",
"214 431 OFFCURVE",
"223 433 OFFCURVE",
"227 441 CURVE"
);
}
);
vertWidth = 1000;
width = 500;
},
{
layerId = "C3C75DF7-0318-4740-9DA2-680DF808C9D5";
paths = (
{
closed = 1;
nodes = (
"359 651 LINE",
"346 513 OFFCURVE",
"320 358 OFFCURVE",
"262 230 CURVE SMOOTH",
"224 147 OFFCURVE",
"183 100 OFFCURVE",
"113 42 CURVE SMOOTH",
"110 40 OFFCURVE",
"107 37 OFFCURVE",
"107 33 CURVE SMOOTH",
"107 27 OFFCURVE",
"117 26 OFFCURVE",
"121 26 CURVE SMOOTH",
"134 26 OFFCURVE",
"165 40 OFFCURVE",
"177 47 CURVE SMOOTH",
"223 72 OFFCURVE",
"262 117 OFFCURVE",
"291 160 CURVE SMOOTH",
"378 291 OFFCURVE",
"410 464 OFFCURVE",
"426 618 CURVE"
);
},
{
closed = 1;
nodes = (
"227 452 OFFCURVE",
"221 457 OFFCURVE",
"216 463 CURVE SMOOTH",
"195 486 OFFCURVE",
"177 527 OFFCURVE",
"165 556 CURVE SMOOTH",
"159 571 OFFCURVE",
"145 628 OFFCURVE",
"142 633 CURVE SMOOTH",
"139 637 OFFCURVE",
"136 639 OFFCURVE",
"131 639 CURVE SMOOTH",
"127 639 OFFCURVE",
"89 597 OFFCURVE",
"84 591 CURVE",
"97 539 OFFCURVE",
"142 435 OFFCURVE",
"206 435 CURVE SMOOTH",
"214 435 OFFCURVE",
"226 437 OFFCURVE",
"230 445 CURVE"
);
}
);
vertWidth = 1000;
width = 500;
},
{
layerId = "39409886-7F43-4FCA-9A57-4D4CD31E7C44";
paths = (
{
closed = 1;
nodes = (
"350 677 LINE",
"336 512 OFFCURVE",
"294 302 OFFCURVE",
"217 155 CURVE SMOOTH",
"191 106 OFFCURVE",
"158 67 OFFCURVE",
"120 28 CURVE",
"115 24 OFFCURVE",
"112 19 OFFCURVE",
"112 12 CURVE SMOOTH",
"112 7 OFFCURVE",
"115 4 OFFCURVE",
"120 4 CURVE SMOOTH",
"137 4 OFFCURVE",
"172 29 OFFCURVE",
"186 40 CURVE SMOOTH",
"215 64 OFFCURVE",
"240 95 OFFCURVE",
"263 126 CURVE SMOOTH",
"362 265 OFFCURVE",
"404 468 OFFCURVE",
"421 635 CURVE"
);
},
{
closed = 1;
nodes = (
"224 453 OFFCURVE",
"215 461 OFFCURVE",
"211 468 CURVE SMOOTH",
"193 496 OFFCURVE",
"179 528 OFFCURVE",
"168 559 CURVE SMOOTH",
"156 589 OFFCURVE",
"151 622 OFFCURVE",
"141 652 CURVE",
"139 655 OFFCURVE",
"139 659 OFFCURVE",
"135 659 CURVE SMOOTH",
"128 659 OFFCURVE",
"86 602 OFFCURVE",
"80 593 CURVE",
"92 548 OFFCURVE",
"116 498 OFFCURVE",
"150 465 CURVE SMOOTH",
"163 451 OFFCURVE",
"193 432 OFFCURVE",
"214 432 CURVE SMOOTH",
"221 432 OFFCURVE",
"224 437 OFFCURVE",
"224 444 CURVE SMOOTH"
);
}
);
vertWidth = 1000;
width = 500;
}
);
note = cid00357;
unicode = FF7F;
},
{
glyphname = "ta-kata.half";
lastChange = "2021-04-19 16:42:50 +0000";
layers = (
{
layerId = "7C35F0AE-75E9-4EA7-B446-8B6431835EB7";
paths = (
{
closed = 1;
nodes = (
"229 668 LINE",
"176 706 LINE",
"160 596 OFFCURVE",
"132 477 OFFCURVE",
"85 376 CURVE SMOOTH",
"83 371 OFFCURVE",
"81 367 OFFCURVE",
"81 363 CURVE SMOOTH",
"81 359 OFFCURVE",
"85 358 OFFCURVE",
"88 358 CURVE SMOOTH",
"93 358 OFFCURVE",
"97 361 OFFCURVE",
"101 363 CURVE",
"160 411 OFFCURVE",
"205 551 OFFCURVE",
"222 624 CURVE",
"358 624 LINE",
"338 484 OFFCURVE",
"302 330 OFFCURVE",
"239 203 CURVE SMOOTH",
"215 156 OFFCURVE",
"178 101 OFFCURVE",
"139 65 CURVE SMOOTH",
"122 49 OFFCURVE",
"103 36 OFFCURVE",
"82 26 CURVE SMOOTH",
"75 23 OFFCURVE",
"68 21 OFFCURVE",
"61 17 CURVE",
"58 16 OFFCURVE",
"55 11 OFFCURVE",
"55 8 CURVE SMOOTH",
"55 0 OFFCURVE",
"63 0 OFFCURVE",
"69 0 CURVE SMOOTH",
"96 0 OFFCURVE",
"124 8 OFFCURVE",
"148 21 CURVE SMOOTH",
"329 119 OFFCURVE",
"413 476 OFFCURVE",
"428 668 CURVE"
);
},
{
closed = 1;
nodes = (
"284 340 OFFCURVE",
"283 345 OFFCURVE",
"281 350 CURVE SMOOTH",
"266 394 OFFCURVE",
"235 429 OFFCURVE",
"191 446 CURVE",
"187 433 OFFCURVE",
"164 374 OFFCURVE",
"164 368 CURVE SMOOTH",
"164 355 OFFCURVE",
"180 358 OFFCURVE",
"188 356 CURVE SMOOTH",
"218 351 OFFCURVE",
"243 339 OFFCURVE",
"270 324 CURVE SMOOTH",
"272 323 OFFCURVE",
"274 322 OFFCURVE",
"276 322 CURVE SMOOTH",
"282 322 OFFCURVE",
"284 330 OFFCURVE",
"284 335 CURVE SMOOTH"
);
}
);
vertWidth = 1000;
width = 500;
},
{
layerId = "C3C75DF7-0318-4740-9DA2-680DF808C9D5";
paths = (
{
closed = 1;
nodes = (
"232 675 LINE",
"173 717 LINE",
"157 602 OFFCURVE",
"130 488 OFFCURVE",
"82 382 CURVE SMOOTH",
"80 378 OFFCURVE",
"78 374 OFFCURVE",
"78 369 CURVE SMOOTH",
"78 365 OFFCURVE",
"85 364 OFFCURVE",
"88 364 CURVE SMOOTH",
"94 364 OFFCURVE",
"99 367 OFFCURVE",
"104 370 CURVE SMOOTH",
"162 414 OFFCURVE",
"209 559 OFFCURVE",
"225 630 CURVE",
"355 630 LINE",
"335 490 OFFCURVE",
"299 337 OFFCURVE",
"236 210 CURVE SMOOTH",
"212 162 OFFCURVE",
"176 107 OFFCURVE",
"136 72 CURVE SMOOTH",
"119 56 OFFCURVE",
"100 43 OFFCURVE",
"79 33 CURVE SMOOTH",
"73 30 OFFCURVE",
"65 28 OFFCURVE",
"58 24 CURVE SMOOTH",
"55 22 OFFCURVE",
"52 19 OFFCURVE",
"52 15 CURVE SMOOTH",
"52 6 OFFCURVE",
"63 6 OFFCURVE",
"69 6 CURVE SMOOTH",
"96 6 OFFCURVE",
"127 14 OFFCURVE",
"151 27 CURVE SMOOTH",
"334 130 OFFCURVE",
"416 480 OFFCURVE",
"431 675 CURVE"
);
},
{
closed = 1;
nodes = (
"287 347 OFFCURVE",
"286 352 OFFCURVE",
"284 356 CURVE",
"268 404 OFFCURVE",
"235 437 OFFCURVE",
"188 455 CURVE",
"184 441 OFFCURVE",
"161 382 OFFCURVE",
"161 374 CURVE SMOOTH",
"161 363 OFFCURVE",
"175 363 OFFCURVE",
"183 363 CURVE SMOOTH",
"215 360 OFFCURVE",
"267 328 OFFCURVE",
"276 328 CURVE SMOOTH",
"282 328 OFFCURVE",
"287 336 OFFCURVE",
"287 341 CURVE SMOOTH"
);
}
);
vertWidth = 1000;
width = 500;
},
{
layerId = "39409886-7F43-4FCA-9A57-4D4CD31E7C44";
paths = (
{
closed = 1;
nodes = (
"238 675 LINE",
"219 694 OFFCURVE",
"198 709 OFFCURVE",
"175 722 CURVE",
"160 614 OFFCURVE",
"126 480 OFFCURVE",
"84 379 CURVE SMOOTH",
"82 375 OFFCURVE",
"80 371 OFFCURVE",
"80 367 CURVE SMOOTH",
"80 364 OFFCURVE",
"81 359 OFFCURVE",
"85 359 CURVE SMOOTH",
"91 359 OFFCURVE",
"96 363 OFFCURVE",
"101 366 CURVE SMOOTH",
"164 411 OFFCURVE",
"210 555 OFFCURVE",
"229 628 CURVE",
"352 628 LINE",
"340 540 OFFCURVE",
"322 452 OFFCURVE",
"296 367 CURVE",
"287 382 OFFCURVE",
"234 468 OFFCURVE",
"220 468 CURVE SMOOTH",
"216 468 OFFCURVE",
"212 463 OFFCURVE",
"210 460 CURVE SMOOTH",
"206 455 OFFCURVE",
"176 368 OFFCURVE",
"176 363 CURVE SMOOTH",
"176 357 OFFCURVE",
"177 355 OFFCURVE",
"182 353 CURVE SMOOTH",
"202 345 OFFCURVE",
"223 342 OFFCURVE",
"243 333 CURVE SMOOTH",
"256 327 OFFCURVE",
"268 322 OFFCURVE",
"281 316 CURVE",
"247 216 OFFCURVE",
"211 146 OFFCURVE",
"142 66 CURVE SMOOTH",
"122 43 OFFCURVE",
"99 28 OFFCURVE",
"74 11 CURVE SMOOTH",
"70 8 OFFCURVE",
"66 5 OFFCURVE",
"66 0 CURVE SMOOTH",
"66 -8 OFFCURVE",
"72 -10 OFFCURVE",
"78 -10 CURVE SMOOTH",
"101 -10 OFFCURVE",
"142 6 OFFCURVE",
"162 18 CURVE SMOOTH",
"262 77 OFFCURVE",
"323 215 OFFCURVE",
"357 321 CURVE SMOOTH",
"393 431 OFFCURVE",
"421 560 OFFCURVE",
"430 675 CURVE"
);
}
);
vertWidth = 1000;
width = 500;
}
);
note = cid00358;
unicode = FF80;
},
{
glyphname = "ti-kata.half";
lastChange = "2021-04-19 16:42:50 +0000";
layers = (
{
layerId = "7C35F0AE-75E9-4EA7-B446-8B6431835EB7";
paths = (
{
closed = 1;
nodes = (
"462 453 OFFCURVE",
"454 489 OFFCURVE",
"429 489 CURVE SMOOTH",
"403 489 OFFCURVE",
"397 443 OFFCURVE",
"397 424 CURVE",
"294 424 LINE",
"294 588 LINE",
"330 598 OFFCURVE",
"363 610 OFFCURVE",
"394 631 CURVE",
"359 711 LINE",
"299 664 OFFCURVE",
"231 635 OFFCURVE",
"157 619 CURVE SMOOTH",
"139 615 OFFCURVE",
"122 612 OFFCURVE",
"104 612 CURVE SMOOTH",
"98 612 OFFCURVE",
"95 607 OFFCURVE",
"95 602 CURVE SMOOTH",
"95 580 OFFCURVE",
"161 577 OFFCURVE",
"177 577 CURVE SMOOTH",
"197 577 OFFCURVE",
"216 577 OFFCURVE",
"236 580 CURVE",
"236 424 LINE",
"51 424 LINE",
"51 377 LINE",
"236 377 LINE",
"236 277 OFFCURVE",
"225 163 OFFCURVE",
"169 77 CURVE SMOOTH",
"150 47 OFFCURVE",
"127 25 OFFCURVE",
"98 4 CURVE SMOOTH",
"95 2 OFFCURVE",
"91 0 OFFCURVE",
"91 -5 CURVE SMOOTH",
"91 -10 OFFCURVE",
"97 -12 OFFCURVE",
"101 -12 CURVE SMOOTH",
"116 -12 OFFCURVE",
"131 -4 OFFCURVE",
"144 3 CURVE SMOOTH",
"270 73 OFFCURVE",
"286 248 OFFCURVE",
"291 377 CURVE",
"425 377 LINE SMOOTH",
"454 377 OFFCURVE",
"462 410 OFFCURVE",
"462 433 CURVE SMOOTH"
);
}
);
vertWidth = 1000;
width = 500;
},
{
layerId = "C3C75DF7-0318-4740-9DA2-680DF808C9D5";
paths = (
{
closed = 1;
nodes = (
"465 461 OFFCURVE",
"457 495 OFFCURVE",
"429 495 CURVE SMOOTH",
"400 495 OFFCURVE",
"394 452 OFFCURVE",
"394 430 CURVE",
"297 430 LINE",
"297 594 LINE",
"332 603 OFFCURVE",
"367 616 OFFCURVE",
"397 637 CURVE",
"361 720 LINE",
"299 672 OFFCURVE",
"231 642 OFFCURVE",
"154 625 CURVE SMOOTH",
"138 622 OFFCURVE",
"121 618 OFFCURVE",
"104 618 CURVE SMOOTH",
"98 618 OFFCURVE",
"92 614 OFFCURVE",
"92 607 CURVE SMOOTH",
"92 585 OFFCURVE",
"161 582 OFFCURVE",
"177 582 CURVE SMOOTH",
"196 582 OFFCURVE",
"214 583 OFFCURVE",
"233 584 CURVE",
"233 430 LINE",
"48 430 LINE",
"48 382 LINE",
"233 382 LINE",
"233 281 OFFCURVE",
"222 170 OFFCURVE",
"166 83 CURVE SMOOTH",
"147 53 OFFCURVE",
"124 31 OFFCURVE",
"95 10 CURVE SMOOTH",
"92 8 OFFCURVE",
"88 5 OFFCURVE",
"88 1 CURVE SMOOTH",
"88 -5 OFFCURVE",
"97 -7 OFFCURVE",
"101 -7 CURVE SMOOTH",
"116 -7 OFFCURVE",
"134 1 OFFCURVE",
"147 8 CURVE SMOOTH",
"273 82 OFFCURVE",
"289 250 OFFCURVE",
"294 382 CURVE",
"425 382 LINE SMOOTH",
"456 382 OFFCURVE",
"465 413 OFFCURVE",
"465 439 CURVE SMOOTH"
);
}
);
vertWidth = 1000;
width = 500;
},
{
layerId = "39409886-7F43-4FCA-9A57-4D4CD31E7C44";
paths = (
{
closed = 1;
nodes = (
"466 452 OFFCURVE",
"459 494 OFFCURVE",
"431 494 CURVE SMOOTH",
"406 494 OFFCURVE",
"396 442 OFFCURVE",
"395 424 CURVE",
"297 424 LINE",
"296 593 LINE",
"324 602 OFFCURVE",
"367 621 OFFCURVE",
"388 642 CURVE",
"344 736 LINE",
"289 685 OFFCURVE",
"222 636 OFFCURVE",
"151 611 CURVE SMOOTH",
"131 604 OFFCURVE",
"111 600 OFFCURVE",
"90 596 CURVE SMOOTH",
"83 595 OFFCURVE",
"80 593 OFFCURVE",
"80 585 CURVE SMOOTH",
"80 566 OFFCURVE",
"122 566 OFFCURVE",
"135 566 CURVE SMOOTH",
"167 566 OFFCURVE",
"199 570 OFFCURVE",
"231 577 CURVE",
"232 526 OFFCURVE",
"232 475 OFFCURVE",
"232 424 CURVE",
"47 424 LINE",
"47 372 LINE",
"231 372 LINE",
"231 271 OFFCURVE",
"217 155 OFFCURVE",
"161 68 CURVE SMOOTH",
"143 40 OFFCURVE",
"121 12 OFFCURVE",
"94 -8 CURVE SMOOTH",
"89 -12 OFFCURVE",
"84 -15 OFFCURVE",
"84 -22 CURVE SMOOTH",
"84 -26 OFFCURVE",
"85 -31 OFFCURVE",
"90 -31 CURVE SMOOTH",
"108 -31 OFFCURVE",
"132 -14 OFFCURVE",
"147 -5 CURVE SMOOTH",
"167 7 OFFCURVE",
"183 17 OFFCURVE",
"199 35 CURVE SMOOTH",
"280 126 OFFCURVE",
"291 256 OFFCURVE",
"295 372 CURVE",
"427 372 LINE SMOOTH",
"459 372 OFFCURVE",
"466 406 OFFCURVE",
"466 432 CURVE SMOOTH"
);
}
);
vertWidth = 1000;
width = 500;
}
);
note = cid00359;
unicode = FF81;
},
{
glyphname = "tu-kata.half";
lastChange = "2021-04-19 16:42:50 +0000";
layers = (
{
layerId = "7C35F0AE-75E9-4EA7-B446-8B6431835EB7";
paths = (
{
closed = 1;
nodes = (
"378 664 LINE",
"368 500 OFFCURVE",
"327 309 OFFCURVE",
"246 165 CURVE SMOOTH",
"211 104 OFFCURVE",
"187 80 OFFCURVE",
"134 34 CURVE SMOOTH",
"131 31 OFFCURVE",
"128 28 OFFCURVE",
"128 23 CURVE SMOOTH",
"128 18 OFFCURVE",
"133 14 OFFCURVE",
"137 14 CURVE SMOOTH",
"149 14 OFFCURVE",
"174 27 OFFCURVE",
"185 34 CURVE SMOOTH",
"362 141 OFFCURVE",
"421 444 OFFCURVE",
"443 635 CURVE"
);
},
{
closed = 1;
nodes = (
"182 433 OFFCURVE",
"180 438 OFFCURVE",
"179 442 CURVE SMOOTH",
"164 490 OFFCURVE",
"155 540 OFFCURVE",
"148 590 CURVE SMOOTH",
"147 600 OFFCURVE",
"147 640 OFFCURVE",
"134 640 CURVE SMOOTH",
"128 640 OFFCURVE",
"93 611 OFFCURVE",
"86 606 CURVE",
"92 575 OFFCURVE",
"139 418 OFFCURVE",
"173 418 CURVE SMOOTH",
"178 418 OFFCURVE",
"182 423 OFFCURVE",
"182 428 CURVE SMOOTH"
);
},
{
closed = 1;
nodes = (
"278 446 OFFCURVE",
"276 451 OFFCURVE",
"274 456 CURVE SMOOTH",
"259 501 OFFCURVE",
"252 550 OFFCURVE",
"246 597 CURVE SMOOTH",
"245 607 OFFCURVE",
"245 654 OFFCURVE",
"231 654 CURVE SMOOTH",
"223 654 OFFCURVE",
"191 626 OFFCURVE",
"183 620 CURVE",
"189 589 OFFCURVE",
"234 432 OFFCURVE",
"268 432 CURVE SMOOTH",
"273 432 OFFCURVE",
"278 436 OFFCURVE",
"278 441 CURVE SMOOTH"
);
}
);
vertWidth = 1000;
width = 500;
},
{
layerId = "C3C75DF7-0318-4740-9DA2-680DF808C9D5";
paths = (
{
closed = 1;
nodes = (
"375 671 LINE",
"365 507 OFFCURVE",
"325 314 OFFCURVE",
"243 170 CURVE SMOOTH",
"208 109 OFFCURVE",
"182 84 OFFCURVE",
"131 38 CURVE SMOOTH",
"128 35 OFFCURVE",
"125 32 OFFCURVE",
"125 27 CURVE SMOOTH",
"125 22 OFFCURVE",
"133 18 OFFCURVE",
"137 18 CURVE SMOOTH",
"150 18 OFFCURVE",
"176 31 OFFCURVE",
"188 38 CURVE SMOOTH",
"364 143 OFFCURVE",
"424 450 OFFCURVE",
"446 639 CURVE"
);
},
{
closed = 1;
nodes = (
"185 437 OFFCURVE",
"183 442 OFFCURVE",
"182 447 CURVE SMOOTH",
"167 494 OFFCURVE",
"157 544 OFFCURVE",
"151 594 CURVE SMOOTH",
"150 604 OFFCURVE",
"150 645 OFFCURVE",
"134 645 CURVE SMOOTH",
"128 645 OFFCURVE",
"90 616 OFFCURVE",
"83 610 CURVE",
"89 577 OFFCURVE",
"136 422 OFFCURVE",
"173 422 CURVE SMOOTH",
"178 422 OFFCURVE",
"185 427 OFFCURVE",
"185 433 CURVE SMOOTH"
);
},
{
closed = 1;
nodes = (
"281 451 OFFCURVE",
"279 456 OFFCURVE",
"277 461 CURVE SMOOTH",
"262 505 OFFCURVE",
"255 554 OFFCURVE",
"249 601 CURVE SMOOTH",
"248 612 OFFCURVE",
"248 659 OFFCURVE",
"231 659 CURVE SMOOTH",
"221 659 OFFCURVE",
"190 631 OFFCURVE",
"180 624 CURVE",
"186 591 OFFCURVE",
"231 436 OFFCURVE",
"268 436 CURVE SMOOTH",
"273 436 OFFCURVE",
"281 439 OFFCURVE",
"281 446 CURVE SMOOTH"
);
}
);
vertWidth = 1000;
width = 500;
},
{
layerId = "39409886-7F43-4FCA-9A57-4D4CD31E7C44";
paths = (
{
closed = 1;
nodes = (
"375 674 LINE",
"362 509 OFFCURVE",
"325 316 OFFCURVE",
"243 170 CURVE SMOOTH",
"211 113 OFFCURVE",
"172 66 OFFCURVE",
"122 23 CURVE SMOOTH",
"118 19 OFFCURVE",
"115 18 OFFCURVE",
"115 11 CURVE SMOOTH",
"115 6 OFFCURVE",
"117 0 OFFCURVE",
"123 0 CURVE SMOOTH",
"136 0 OFFCURVE",
"171 20 OFFCURVE",
"183 27 CURVE SMOOTH",
"365 142 OFFCURVE",
"426 438 OFFCURVE",
"447 635 CURVE"
);
},
{
closed = 1;
nodes = (
"179 437 OFFCURVE",
"169 470 OFFCURVE",
"166 486 CURVE SMOOTH",
"155 538 OFFCURVE",
"149 592 OFFCURVE",
"144 645 CURVE",
"143 648 OFFCURVE",
"143 653 OFFCURVE",
"140 655 CURVE",
"119 641 OFFCURVE",
"98 627 OFFCURVE",
"78 613 CURVE",
"85 565 OFFCURVE",
"118 465 OFFCURVE",
"150 429 CURVE SMOOTH",
"154 424 OFFCURVE",
"166 413 OFFCURVE",
"173 413 CURVE SMOOTH",
"178 413 OFFCURVE",
"179 419 OFFCURVE",
"179 423 CURVE SMOOTH"
);
},
{
closed = 1;
nodes = (
"280 441 OFFCURVE",
"279 446 OFFCURVE",
"277 452 CURVE SMOOTH",
"269 481 OFFCURVE",
"264 512 OFFCURVE",
"258 542 CURVE SMOOTH",
"251 580 OFFCURVE",
"249 617 OFFCURVE",
"243 655 CURVE SMOOTH",
"243 656 OFFCURVE",
"242 664 OFFCURVE",
"240 664 CURVE SMOOTH",
"237 664 OFFCURVE",
"186 627 OFFCURVE",
"179 622 CURVE",
"189 568 OFFCURVE",
"216 484 OFFCURVE",
"251 441 CURVE SMOOTH",
"255 437 OFFCURVE",
"267 424 OFFCURVE",
"273 424 CURVE SMOOTH",
"279 424 OFFCURVE",
"280 430 OFFCURVE",
"280 435 CURVE SMOOTH"
);
}
);
vertWidth = 1000;
width = 500;
}
);
note = cid00360;
unicode = FF82;
},
{
glyphname = "te-kata.half";
lastChange = "2021-04-19 16:42:50 +0000";
layers = (
{
layerId = "7C35F0AE-75E9-4EA7-B446-8B6431835EB7";
paths = (
{
closed = 1;
nodes = (
"468 496 OFFCURVE",
"460 535 OFFCURVE",
"436 535 CURVE SMOOTH",
"412 535 OFFCURVE",
"404 496 OFFCURVE",
"404 478 CURVE SMOOTH",
"404 475 OFFCURVE",
"404 472 OFFCURVE",
"405 469 CURVE",
"58 469 LINE",
"58 424 LINE",
"239 424 LINE",
"234 312 OFFCURVE",
"216 187 OFFCURVE",
"168 85 CURVE SMOOTH",
"150 47 OFFCURVE",
"125 17 OFFCURVE",
"96 -13 CURVE SMOOTH",
"93 -17 OFFCURVE",
"87 -22 OFFCURVE",
"87 -27 CURVE SMOOTH",
"87 -31 OFFCURVE",
"91 -32 OFFCURVE",
"94 -32 CURVE SMOOTH",
"125 -32 OFFCURVE",
"169 8 OFFCURVE",
"188 30 CURVE SMOOTH",
"271 126 OFFCURVE",
"297 301 OFFCURVE",
"300 424 CURVE",
"433 424 LINE SMOOTH",
"459 424 OFFCURVE",
"468 456 OFFCURVE",
"468 478 CURVE SMOOTH"
);
},
{
closed = 1;
nodes = (
"414 705 OFFCURVE",
"407 740 OFFCURVE",
"382 740 CURVE SMOOTH",
"355 740 OFFCURVE",
"350 697 OFFCURVE",
"350 677 CURVE",
"111 677 LINE",
"111 632 LINE",
"383 632 LINE SMOOTH",
"406 632 OFFCURVE",
"414 668 OFFCURVE",
"414 686 CURVE SMOOTH"
);
}
);
vertWidth = 1000;
width = 500;
},
{
layerId = "C3C75DF7-0318-4740-9DA2-680DF808C9D5";
paths = (
{
closed = 1;
nodes = (
"471 499 OFFCURVE",
"463 535 OFFCURVE",
"436 535 CURVE SMOOTH",
"410 535 OFFCURVE",
"401 498 OFFCURVE",
"401 478 CURVE SMOOTH",
"401 475 OFFCURVE",
"401 472 OFFCURVE",
"402 470 CURVE",
"55 470 LINE",
"55 424 LINE",
"236 424 LINE",
"231 311 OFFCURVE",
"213 188 OFFCURVE",
"165 85 CURVE SMOOTH",
"147 47 OFFCURVE",
"122 17 OFFCURVE",
"93 -13 CURVE SMOOTH",
"90 -17 OFFCURVE",
"84 -22 OFFCURVE",
"84 -27 CURVE SMOOTH",
"84 -32 OFFCURVE",
"91 -33 OFFCURVE",
"94 -33 CURVE SMOOTH",
"126 -33 OFFCURVE",
"171 6 OFFCURVE",
"191 30 CURVE SMOOTH",
"275 129 OFFCURVE",
"300 298 OFFCURVE",
"303 424 CURVE",
"433 424 LINE SMOOTH",
"462 424 OFFCURVE",
"471 454 OFFCURVE",
"471 478 CURVE SMOOTH"
);
},
{
closed = 1;
nodes = (
"417 707 OFFCURVE",
"409 741 OFFCURVE",
"382 741 CURVE SMOOTH",
"352 741 OFFCURVE",
"347 700 OFFCURVE",
"347 678 CURVE",
"108 678 LINE",
"108 632 LINE",
"383 632 LINE SMOOTH",
"409 632 OFFCURVE",
"417 665 OFFCURVE",
"417 686 CURVE SMOOTH"
);
}
);
vertWidth = 1000;
width = 500;
},
{
layerId = "39409886-7F43-4FCA-9A57-4D4CD31E7C44";
paths = (
{
closed = 1;
nodes = (
"473 494 OFFCURVE",
"462 536 OFFCURVE",
"437 536 CURVE SMOOTH",
"408 536 OFFCURVE",
"401 483 OFFCURVE",
"400 462 CURVE",
"52 462 LINE",
"52 413 LINE",
"233 413 LINE",
"228 301 OFFCURVE",
"207 169 OFFCURVE",
"159 67 CURVE SMOOTH",
"138 23 OFFCURVE",
"114 -5 OFFCURVE",
"80 -39 CURVE SMOOTH",
"77 -42 OFFCURVE",
"75 -44 OFFCURVE",
"75 -48 CURVE SMOOTH",
"75 -55 OFFCURVE",
"77 -56 OFFCURVE",
"83 -56 CURVE SMOOTH",
"94 -56 OFFCURVE",
"108 -49 OFFCURVE",
"118 -44 CURVE SMOOTH",
"267 32 OFFCURVE",
"294 265 OFFCURVE",
"304 413 CURVE",
"433 413 LINE SMOOTH",
"466 413 OFFCURVE",
"473 449 OFFCURVE",
"473 475 CURVE SMOOTH"
);
},
{
closed = 1;
nodes = (
"415 699 OFFCURVE",
"406 742 OFFCURVE",
"381 742 CURVE SMOOTH",
"355 742 OFFCURVE",
"346 693 OFFCURVE",
"345 674 CURVE",
"105 674 LINE",
"105 623 LINE",
"382 623 LINE SMOOTH",
"406 623 OFFCURVE",
"415 662 OFFCURVE",
"415 680 CURVE SMOOTH"
);
}
);
vertWidth = 1000;
width = 500;
}
);
note = cid00361;
unicode = FF83;
},
{
glyphname = "to-kata.half";
lastChange = "2021-04-19 16:42:50 +0000";
layers = (
{
layerId = "7C35F0AE-75E9-4EA7-B446-8B6431835EB7";
paths = (
{
closed = 1;
nodes = (
"425 362 OFFCURVE",
"422 362 OFFCURVE",
"421 362 CURVE SMOOTH",
"402 367 OFFCURVE",
"383 371 OFFCURVE",
"365 378 CURVE SMOOTH",
"317 396 OFFCURVE",
"225 444 OFFCURVE",
"218 499 CURVE",
"218 722 LINE",
"163 722 LINE",
"163 -16 LINE",
"218 -16 LINE",
"218 389 LINE",
"277 344 OFFCURVE",
"323 325 OFFCURVE",
"398 325 CURVE SMOOTH",
"410 325 OFFCURVE",
"425 348 OFFCURVE",
"425 359 CURVE SMOOTH"
);
}
);
vertWidth = 1000;
width = 500;
},
{
layerId = "C3C75DF7-0318-4740-9DA2-680DF808C9D5";
paths = (
{
closed = 1;
nodes = (
"430 361 LINE",
"409 366 OFFCURVE",
"388 371 OFFCURVE",
"367 378 CURVE SMOOTH",
"320 396 OFFCURVE",
"221 440 OFFCURVE",
"221 499 CURVE SMOOTH",
"221 723 LINE",
"160 723 LINE",
"160 -17 LINE",
"221 -17 LINE",
"221 384 LINE",
"279 341 OFFCURVE",
"325 324 OFFCURVE",
"398 324 CURVE SMOOTH",
"410 324 OFFCURVE",
"427 346 OFFCURVE",
"427 358 CURVE SMOOTH",
"427 359 OFFCURVE",
"426 361 OFFCURVE",
"425 361 CURVE SMOOTH"
);
}
);
vertWidth = 1000;
width = 500;
},
{
layerId = "39409886-7F43-4FCA-9A57-4D4CD31E7C44";
paths = (
{
closed = 1;
nodes = (
"424 364 OFFCURVE",
"421 366 OFFCURVE",
"418 366 CURVE SMOOTH",
"419 366 LINE SMOOTH",
"353 367 OFFCURVE",
"254 444 OFFCURVE",
"222 499 CURVE",
"222 726 LINE",
"160 726 LINE",
"160 -21 LINE",
"222 -21 LINE",
"222 383 LINE",
"258 354 OFFCURVE",
"315 310 OFFCURVE",
"364 310 CURVE SMOOTH",
"384 310 OFFCURVE",
"424 341 OFFCURVE",
"424 361 CURVE SMOOTH"
);
}
);
vertWidth = 1000;
width = 500;
}
);
note = cid00362;
unicode = FF84;
},
{
glyphname = "na-kata.half";
lastChange = "2021-04-19 16:42:50 +0000";
layers = (
{
layerId = "7C35F0AE-75E9-4EA7-B446-8B6431835EB7";
paths = (
{
closed = 1;
nodes = (
"473 535 OFFCURVE",
"465 575 OFFCURVE",
"440 575 CURVE SMOOTH",
"416 575 OFFCURVE",
"409 534 OFFCURVE",
"409 516 CURVE SMOOTH",
"409 509 LINE",
"302 509 LINE",
"302 714 LINE",
"243 714 LINE",
"243 646 OFFCURVE",
"244 577 OFFCURVE",
"244 509 CURVE",
"69 509 LINE",
"69 464 LINE",
"243 464 LINE",
"243 344 OFFCURVE",
"232 190 OFFCURVE",
"158 90 CURVE SMOOTH",
"143 69 OFFCURVE",
"123 53 OFFCURVE",
"104 35 CURVE SMOOTH",
"101 32 OFFCURVE",
"98 29 OFFCURVE",
"98 24 CURVE SMOOTH",
"98 20 OFFCURVE",
"103 16 OFFCURVE",
"107 16 CURVE SMOOTH",
"128 16 OFFCURVE",
"170 51 OFFCURVE",
"185 65 CURVE SMOOTH",
"291 169 OFFCURVE",
"298 325 OFFCURVE",
"302 464 CURVE",
"433 464 LINE SMOOTH",
"463 464 OFFCURVE",
"473 491 OFFCURVE",
"473 516 CURVE SMOOTH"
);
}
);
vertWidth = 1000;
width = 500;
},
{
layerId = "C3C75DF7-0318-4740-9DA2-680DF808C9D5";
paths = (
{
closed = 1;
nodes = (
"476 538 OFFCURVE",
"467 575 OFFCURVE",
"440 575 CURVE SMOOTH",
"413 575 OFFCURVE",
"406 537 OFFCURVE",
"406 516 CURVE SMOOTH",
"406 510 LINE",
"305 510 LINE",
"305 715 LINE",
"240 715 LINE",
"240 646 OFFCURVE",
"241 578 OFFCURVE",
"241 510 CURVE",
"66 510 LINE",
"66 464 LINE",
"240 464 LINE",
"240 343 OFFCURVE",
"229 190 OFFCURVE",
"155 90 CURVE SMOOTH",
"140 69 OFFCURVE",
"120 53 OFFCURVE",
"101 36 CURVE",
"98 32 OFFCURVE",
"95 29 OFFCURVE",
"95 24 CURVE SMOOTH",
"95 19 OFFCURVE",
"103 15 OFFCURVE",
"107 15 CURVE SMOOTH",
"130 15 OFFCURVE",
"172 49 OFFCURVE",
"188 65 CURVE SMOOTH",
"294 171 OFFCURVE",
"301 323 OFFCURVE",
"305 464 CURVE",
"433 464 LINE SMOOTH",
"465 464 OFFCURVE",
"476 488 OFFCURVE",
"476 516 CURVE SMOOTH"
);
}
);
vertWidth = 1000;
width = 500;
},
{
layerId = "39409886-7F43-4FCA-9A57-4D4CD31E7C44";
paths = (
{
closed = 1;
nodes = (
"466 539 OFFCURVE",
"457 583 OFFCURVE",
"430 583 CURVE SMOOTH",
"403 583 OFFCURVE",
"396 527 OFFCURVE",
"395 508 CURVE",
"294 508 LINE",
"294 718 LINE",
"227 718 LINE",
"227 648 OFFCURVE",
"228 578 OFFCURVE",
"228 508 CURVE",
"53 508 LINE",
"53 460 LINE",
"227 460 LINE",
"227 335 OFFCURVE",
"216 187 OFFCURVE",
"141 82 CURVE SMOOTH",
"124 58 OFFCURVE",
"105 37 OFFCURVE",
"82 19 CURVE SMOOTH",
"78 16 OFFCURVE",
"75 13 OFFCURVE",
"75 8 CURVE SMOOTH",
"75 2 OFFCURVE",
"77 0 OFFCURVE",
"82 0 CURVE SMOOTH",
"92 0 OFFCURVE",
"125 17 OFFCURVE",
"134 23 CURVE SMOOTH",
"277 114 OFFCURVE",
"290 308 OFFCURVE",
"294 460 CURVE",
"423 460 LINE SMOOTH",
"457 460 OFFCURVE",
"466 490 OFFCURVE",
"466 519 CURVE SMOOTH"
);
}
);
vertWidth = 1000;
width = 500;
}
);
note = cid00363;
unicode = FF85;
},
{
glyphname = "ni-kata.half";
lastChange = "2021-04-19 16:42:50 +0000";
layers = (
{
layerId = "7C35F0AE-75E9-4EA7-B446-8B6431835EB7";
paths = (
{
closed = 1;
nodes = (
"484 238 OFFCURVE",
"474 274 OFFCURVE",
"450 274 CURVE SMOOTH",
"427 274 OFFCURVE",
"419 236 OFFCURVE",
"419 219 CURVE SMOOTH",
"419 195 OFFCURVE",
"428 165 OFFCURVE",
"457 165 CURVE",
"445 145 OFFCURVE",
"424 134 OFFCURVE",
"401 134 CURVE SMOOTH",
"48 134 LINE",
"48 71 LINE",
"360 71 LINE SMOOTH",
"443 71 OFFCURVE",
"484 144 OFFCURVE",
"484 219 CURVE SMOOTH"
);
},
{
closed = 1;
nodes = (
"435 620 OFFCURVE",
"427 660 OFFCURVE",
"402 660 CURVE SMOOTH",
"375 660 OFFCURVE",
"368 619 OFFCURVE",
"368 599 CURVE",
"95 599 LINE",
"95 546 LINE",
"403 546 LINE SMOOTH",
"427 546 OFFCURVE",
"435 582 OFFCURVE",
"435 601 CURVE SMOOTH"
);
}
);
vertWidth = 1000;
width = 500;
},
{
layerId = "C3C75DF7-0318-4740-9DA2-680DF808C9D5";
paths = (
{
closed = 1;
nodes = (
"487 240 OFFCURVE",
"477 274 OFFCURVE",
"450 274 CURVE SMOOTH",
"424 274 OFFCURVE",
"416 239 OFFCURVE",
"416 219 CURVE SMOOTH",
"416 194 OFFCURVE",
"425 167 OFFCURVE",
"453 165 CURVE",
"442 147 OFFCURVE",
"422 135 OFFCURVE",
"401 135 CURVE SMOOTH",
"45 135 LINE",
"45 70 LINE",
"360 70 LINE SMOOTH",
"444 70 OFFCURVE",
"487 141 OFFCURVE",
"487 219 CURVE SMOOTH"
);
},
{
closed = 1;
nodes = (
"438 623 OFFCURVE",
"429 661 OFFCURVE",
"402 661 CURVE SMOOTH",
"372 661 OFFCURVE",
"365 622 OFFCURVE",
"365 599 CURVE",
"92 599 LINE",
"92 545 LINE",
"403 545 LINE SMOOTH",
"430 545 OFFCURVE",
"438 580 OFFCURVE",
"438 601 CURVE SMOOTH"
);
}
);
vertWidth = 1000;
width = 500;
},
{
layerId = "39409886-7F43-4FCA-9A57-4D4CD31E7C44";
paths = (
{
closed = 1;
nodes = (
"488 240 OFFCURVE",
"481 283 OFFCURVE",
"454 283 CURVE SMOOTH",
"430 283 OFFCURVE",
"415 251 OFFCURVE",
"415 230 CURVE SMOOTH",
"415 212 OFFCURVE",
"423 173 OFFCURVE",
"446 171 CURVE",
"429 139 OFFCURVE",
"392 136 OFFCURVE",
"360 136 CURVE SMOOTH",
"50 136 LINE",
"50 57 LINE",
"356 57 LINE SMOOTH",
"438 57 OFFCURVE",
"488 146 OFFCURVE",
"488 220 CURVE SMOOTH"
);
},
{
closed = 1;
nodes = (
"435 615 OFFCURVE",
"423 657 OFFCURVE",
"399 657 CURVE SMOOTH",
"372 657 OFFCURVE",
"365 609 OFFCURVE",
"365 590 CURVE",
"86 590 LINE",
"86 533 LINE",
"398 533 LINE SMOOTH",
"425 533 OFFCURVE",
"435 576 OFFCURVE",
"435 597 CURVE SMOOTH"
);
}
);
vertWidth = 1000;
width = 500;
}
);
note = cid00364;
unicode = FF86;
},
{
glyphname = "nu-kata.half";
lastChange = "2021-04-19 16:42:50 +0000";
layers = (
{
layerId = "7C35F0AE-75E9-4EA7-B446-8B6431835EB7";
paths = (
{
closed = 1;
nodes = (
"443 183 OFFCURVE",
"364 292 OFFCURVE",
"336 325 CURVE",
"373 430 OFFCURVE",
"405 553 OFFCURVE",
"410 665 CURVE",
"126 666 LINE",
"126 617 LINE",
"345 618 LINE",
"336 535 OFFCURVE",
"316 453 OFFCURVE",
"292 372 CURVE",
"252 415 OFFCURVE",
"209 457 OFFCURVE",
"160 490 CURVE",
"155 476 OFFCURVE",
"131 418 OFFCURVE",
"131 408 CURVE SMOOTH",
"131 403 OFFCURVE",
"133 401 OFFCURVE",
"137 399 CURVE SMOOTH",
"184 371 OFFCURVE",
"227 342 OFFCURVE",
"269 307 CURVE",
"241 228 OFFCURVE",
"162 102 OFFCURVE",
"92 54 CURVE SMOOTH",
"83 48 OFFCURVE",
"54 34 OFFCURVE",
"54 21 CURVE SMOOTH",
"54 14 OFFCURVE",
"60 13 OFFCURVE",
"66 13 CURVE SMOOTH",
"85 13 OFFCURVE",
"122 30 OFFCURVE",
"139 40 CURVE SMOOTH",
"221 90 OFFCURVE",
"273 181 OFFCURVE",
"313 265 CURVE",
"342 235 OFFCURVE",
"371 203 OFFCURVE",
"397 170 CURVE SMOOTH",
"404 161 OFFCURVE",
"411 151 OFFCURVE",
"418 142 CURVE",
"421 140 OFFCURVE",
"430 130 OFFCURVE",
"433 130 CURVE SMOOTH",
"439 130 OFFCURVE",
"443 137 OFFCURVE",
"443 143 CURVE SMOOTH"
);
}
);
vertWidth = 1000;
width = 500;
},
{
layerId = "C3C75DF7-0318-4740-9DA2-680DF808C9D5";
paths = (
{
closed = 1;
nodes = (
"446 183 OFFCURVE",
"367 291 OFFCURVE",
"339 325 CURVE",
"377 432 OFFCURVE",
"408 553 OFFCURVE",
"413 666 CURVE",
"123 667 LINE",
"123 617 LINE",
"342 618 LINE",
"333 536 OFFCURVE",
"314 456 OFFCURVE",
"291 377 CURVE",
"251 420 OFFCURVE",
"207 460 OFFCURVE",
"158 493 CURVE",
"153 479 OFFCURVE",
"128 418 OFFCURVE",
"128 408 CURVE SMOOTH",
"128 403 OFFCURVE",
"131 401 OFFCURVE",
"134 398 CURVE",
"180 370 OFFCURVE",
"224 342 OFFCURVE",
"266 307 CURVE",
"238 229 OFFCURVE",
"158 101 OFFCURVE",
"89 54 CURVE SMOOTH",
"80 48 OFFCURVE",
"51 34 OFFCURVE",
"51 21 CURVE SMOOTH",
"51 13 OFFCURVE",
"60 12 OFFCURVE",
"66 12 CURVE SMOOTH",
"87 12 OFFCURVE",
"123 29 OFFCURVE",
"142 40 CURVE SMOOTH",
"224 89 OFFCURVE",
"274 177 OFFCURVE",
"314 261 CURVE",
"342 232 OFFCURVE",
"369 202 OFFCURVE",
"394 170 CURVE SMOOTH",
"401 161 OFFCURVE",
"408 151 OFFCURVE",
"416 142 CURVE SMOOTH",
"418 139 OFFCURVE",
"429 130 OFFCURVE",
"433 130 CURVE SMOOTH",
"439 130 OFFCURVE",
"446 136 OFFCURVE",
"446 143 CURVE SMOOTH"
);
}
);
vertWidth = 1000;
width = 500;
},
{
layerId = "39409886-7F43-4FCA-9A57-4D4CD31E7C44";
paths = (
{
closed = 1;
nodes = (
"450 180 OFFCURVE",
"374 293 OFFCURVE",
"347 328 CURVE",
"384 435 OFFCURVE",
"412 556 OFFCURVE",
"418 669 CURVE",
"125 670 LINE",
"125 617 LINE",
"343 618 LINE",
"334 538 OFFCURVE",
"320 456 OFFCURVE",
"295 380 CURVE",
"257 425 OFFCURVE",
"212 465 OFFCURVE",
"163 498 CURVE",
"157 485 OFFCURVE",
"128 411 OFFCURVE",
"128 403 CURVE SMOOTH",
"128 399 OFFCURVE",
"131 395 OFFCURVE",
"134 393 CURVE",
"135 393 OFFCURVE",
"135 392 OFFCURVE",
"136 392 CURVE",
"183 367 OFFCURVE",
"226 339 OFFCURVE",
"268 305 CURVE",
"230 194 OFFCURVE",
"154 84 OFFCURVE",
"55 21 CURVE SMOOTH",
"51 18 OFFCURVE",
"50 17 OFFCURVE",
"50 11 CURVE SMOOTH",
"50 6 OFFCURVE",
"54 5 OFFCURVE",
"58 5 CURVE SMOOTH",
"61 5 OFFCURVE",
"65 6 OFFCURVE",
"68 6 CURVE SMOOTH",
"89 6 OFFCURVE",
"133 21 OFFCURVE",
"151 31 CURVE SMOOTH",
"233 79 OFFCURVE",
"285 170 OFFCURVE",
"319 256 CURVE",
"357 218 OFFCURVE",
"388 175 OFFCURVE",
"423 135 CURVE SMOOTH",
"427 131 OFFCURVE",
"435 121 OFFCURVE",
"441 121 CURVE SMOOTH",
"448 121 OFFCURVE",
"450 135 OFFCURVE",
"450 139 CURVE SMOOTH"
);
}
);
vertWidth = 1000;
width = 500;
}
);
note = cid00365;
unicode = FF87;
},
{
glyphname = "ne-kata.half";
lastChange = "2021-04-19 16:42:50 +0000";
layers = (
{
layerId = "7C35F0AE-75E9-4EA7-B446-8B6431835EB7";
paths = (
{
closed = 1;
nodes = (
"378 601 LINE",
"263 601 LINE",
"273 626 OFFCURVE",
"300 710 OFFCURVE",
"300 734 CURVE SMOOTH",
"300 745 OFFCURVE",
"300 749 OFFCURVE",
"290 756 CURVE SMOOTH",
"276 764 OFFCURVE",
"240 768 OFFCURVE",
"223 768 CURVE",
"227 712 OFFCURVE",
"229 656 OFFCURVE",
"234 601 CURVE",
"114 601 LINE",
"114 559 LINE",
"177 559 OFFCURVE",
"240 560 OFFCURVE",
"303 563 CURVE",
"272 444 OFFCURVE",
"171 267 OFFCURVE",
"73 193 CURVE SMOOTH",
"68 189 OFFCURVE",
"52 181 OFFCURVE",
"52 173 CURVE SMOOTH",
"52 167 OFFCURVE",
"56 166 OFFCURVE",
"61 166 CURVE SMOOTH",
"118 166 OFFCURVE",
"198 245 OFFCURVE",
"230 289 CURVE",
"230 -18 LINE",
"285 -18 LINE",
"284 363 LINE",
"320 414 OFFCURVE",
"357 502 OFFCURVE",
"373 562 CURVE SMOOTH",
"375 570 OFFCURVE",
"378 578 OFFCURVE",
"378 586 CURVE SMOOTH"
);
},
{
closed = 1;
nodes = (
"464 203 OFFCURVE",
"458 207 OFFCURVE",
"454 211 CURVE SMOOTH",
"415 244 OFFCURVE",
"371 323 OFFCURVE",
"351 370 CURVE",
"345 370 LINE",
"308 308 LINE",
"335 261 OFFCURVE",
"386 186 OFFCURVE",
"447 186 CURVE SMOOTH",
"454 186 OFFCURVE",
"464 187 OFFCURVE",
"464 197 CURVE SMOOTH"
);
}
);
vertWidth = 1000;
width = 500;
},
{
layerId = "C3C75DF7-0318-4740-9DA2-680DF808C9D5";
paths = (
{
closed = 1;
nodes = (
"381 601 LINE",
"266 601 LINE",
"276 628 OFFCURVE",
"303 708 OFFCURVE",
"303 734 CURVE SMOOTH",
"303 738 OFFCURVE",
"303 743 OFFCURVE",
"302 747 CURVE",
"294 766 OFFCURVE",
"237 768 OFFCURVE",
"220 769 CURVE",
"224 713 OFFCURVE",
"226 657 OFFCURVE",
"231 601 CURVE",
"111 601 LINE",
"111 558 LINE",
"174 558 OFFCURVE",
"237 559 OFFCURVE",
"300 562 CURVE",
"269 443 OFFCURVE",
"168 268 OFFCURVE",
"70 193 CURVE SMOOTH",
"64 189 OFFCURVE",
"49 181 OFFCURVE",
"49 173 CURVE SMOOTH",
"49 166 OFFCURVE",
"56 166 OFFCURVE",
"61 166 CURVE SMOOTH",
"119 166 OFFCURVE",
"193 237 OFFCURVE",
"227 281 CURVE",
"227 -18 LINE",
"288 -18 LINE",
"287 363 LINE",
"325 417 OFFCURVE",
"358 498 OFFCURVE",
"376 562 CURVE SMOOTH",
"378 570 OFFCURVE",
"381 578 OFFCURVE",
"381 586 CURVE SMOOTH"
);
},
{
closed = 1;
nodes = (
"467 203 OFFCURVE",
"461 207 OFFCURVE",
"457 211 CURVE SMOOTH",
"417 246 OFFCURVE",
"374 322 OFFCURVE",
"354 371 CURVE",
"342 371 LINE",
"305 308 LINE",
"333 259 OFFCURVE",
"384 186 OFFCURVE",
"447 186 CURVE SMOOTH",
"455 186 OFFCURVE",
"467 186 OFFCURVE",
"467 197 CURVE SMOOTH"
);
}
);
vertWidth = 1000;
width = 500;
},
{
layerId = "39409886-7F43-4FCA-9A57-4D4CD31E7C44";
paths = (
{
closed = 1;
nodes = (
"260 603 LINE",
"270 630 OFFCURVE",
"298 715 OFFCURVE",
"298 740 CURVE SMOOTH",
"298 749 OFFCURVE",
"296 753 OFFCURVE",
"288 757 CURVE SMOOTH",
"270 765 OFFCURVE",
"232 771 OFFCURVE",
"212 771 CURVE",
"216 715 OFFCURVE",
"218 659 OFFCURVE",
"223 603 CURVE",
"103 603 LINE",
"103 558 LINE",
"166 558 OFFCURVE",
"230 559 OFFCURVE",
"293 561 CURVE",
"265 458 OFFCURVE",
"202 346 OFFCURVE",
"135 263 CURVE SMOOTH",
"114 237 OFFCURVE",
"88 209 OFFCURVE",
"61 188 CURVE SMOOTH",
"55 183 OFFCURVE",
"39 176 OFFCURVE",
"39 167 CURVE SMOOTH",
"39 159 OFFCURVE",
"46 159 OFFCURVE",
"51 159 CURVE SMOOTH",
"109 159 OFFCURVE",
"188 232 OFFCURVE",
"221 276 CURVE",
"219 -26 LINE",
"281 -26 LINE",
"281 361 LINE",
"319 417 OFFCURVE",
"374 536 OFFCURVE",
"376 603 CURVE"
);
},
{
closed = 1;
nodes = (
"461 201 OFFCURVE",
"456 204 OFFCURVE",
"451 208 CURVE SMOOTH",
"410 242 OFFCURVE",
"364 332 OFFCURVE",
"343 381 CURVE",
"298 305 LINE",
"325 256 OFFCURVE",
"378 181 OFFCURVE",
"441 181 CURVE SMOOTH",
"449 181 OFFCURVE",
"461 182 OFFCURVE",
"461 193 CURVE SMOOTH"
);
}
);
vertWidth = 1000;
width = 500;
}
);
note = cid00366;
unicode = FF88;
},
{
glyphname = "no-kata.half";
lastChange = "2021-04-19 16:42:50 +0000";
layers = (
{
layerId = "7C35F0AE-75E9-4EA7-B446-8B6431835EB7";
paths = (
{
closed = 1;
nodes = (
"341 706 LINE",
"322 540 OFFCURVE",
"284 367 OFFCURVE",
"206 218 CURVE SMOOTH",
"187 181 OFFCURVE",
"163 145 OFFCURVE",
"136 113 CURVE SMOOTH",
"127 102 OFFCURVE",
"78 56 OFFCURVE",
"78 47 CURVE SMOOTH",
"78 42 OFFCURVE",
"84 40 OFFCURVE",
"88 40 CURVE SMOOTH",
"104 40 OFFCURVE",
"143 66 OFFCURVE",
"156 76 CURVE SMOOTH",
"279 174 OFFCURVE",
"337 349 OFFCURVE",
"372 497 CURVE SMOOTH",
"386 558 OFFCURVE",
"399 618 OFFCURVE",
"406 680 CURVE"
);
}
);
vertWidth = 1000;
width = 500;
},
{
layerId = "C3C75DF7-0318-4740-9DA2-680DF808C9D5";
paths = (
{
closed = 1;
nodes = (
"339 712 LINE",
"319 544 OFFCURVE",
"282 373 OFFCURVE",
"203 222 CURVE SMOOTH",
"184 185 OFFCURVE",
"160 148 OFFCURVE",
"133 117 CURVE SMOOTH",
"123 105 OFFCURVE",
"111 94 OFFCURVE",
"101 83 CURVE",
"97 80 OFFCURVE",
"75 57 OFFCURVE",
"75 51 CURVE SMOOTH",
"75 45 OFFCURVE",
"84 43 OFFCURVE",
"88 43 CURVE SMOOTH",
"106 43 OFFCURVE",
"144 68 OFFCURVE",
"159 79 CURVE SMOOTH",
"283 178 OFFCURVE",
"340 352 OFFCURVE",
"375 501 CURVE SMOOTH",
"389 561 OFFCURVE",
"402 622 OFFCURVE",
"409 684 CURVE"
);
}
);
vertWidth = 1000;
width = 500;
},
{
layerId = "39409886-7F43-4FCA-9A57-4D4CD31E7C44";
paths = (
{
closed = 1;
nodes = (
"341 687 LINE",
"320 518 OFFCURVE",
"278 336 OFFCURVE",
"198 184 CURVE SMOOTH",
"178 146 OFFCURVE",
"153 111 OFFCURVE",
"126 77 CURVE SMOOTH",
"110 57 OFFCURVE",
"92 39 OFFCURVE",
"74 21 CURVE SMOOTH",
"71 18 OFFCURVE",
"67 15 OFFCURVE",
"67 10 CURVE SMOOTH",
"67 4 OFFCURVE",
"69 1 OFFCURVE",
"75 1 CURVE SMOOTH",
"96 1 OFFCURVE",
"136 25 OFFCURVE",
"153 38 CURVE SMOOTH",
"279 140 OFFCURVE",
"339 312 OFFCURVE",
"377 464 CURVE SMOOTH",
"392 523 OFFCURVE",
"406 583 OFFCURVE",
"412 643 CURVE"
);
}
);
vertWidth = 1000;
width = 500;
}
);
note = cid00367;
unicode = FF89;
},
{
glyphname = "ha-kata.half";
lastChange = "2021-04-19 16:42:50 +0000";
layers = (
{
layerId = "7C35F0AE-75E9-4EA7-B446-8B6431835EB7";
paths = (
{
closed = 1;
nodes = (
"154 653 LINE",
"149 501 OFFCURVE",
"139 347 OFFCURVE",
"95 201 CURVE SMOOTH",
"82 155 OFFCURVE",
"62 112 OFFCURVE",
"39 71 CURVE SMOOTH",
"37 68 OFFCURVE",
"35 65 OFFCURVE",
"35 61 CURVE SMOOTH",
"35 56 OFFCURVE",
"40 55 OFFCURVE",
"44 55 CURVE SMOOTH",
"59 55 OFFCURVE",
"84 92 OFFCURVE",
"92 104 CURVE SMOOTH",
"186 252 OFFCURVE",
"208 470 OFFCURVE",
"217 642 CURVE"
);
},
{
closed = 1;
nodes = (
"477 269 OFFCURVE",
"401 512 OFFCURVE",
"345 630 CURVE",
"295 572 LINE",
"362 430 OFFCURVE",
"410 281 OFFCURVE",
"449 130 CURVE SMOOTH",
"451 124 OFFCURVE",
"456 98 OFFCURVE",
"464 98 CURVE SMOOTH",
"474 98 OFFCURVE",
"477 132 OFFCURVE",
"477 140 CURVE SMOOTH"
);
}
);
vertWidth = 1000;
width = 500;
},
{
layerId = "C3C75DF7-0318-4740-9DA2-680DF808C9D5";
paths = (
{
closed = 1;
nodes = (
"151 656 LINE",
"146 503 OFFCURVE",
"136 349 OFFCURVE",
"92 202 CURVE SMOOTH",
"78 157 OFFCURVE",
"59 114 OFFCURVE",
"36 73 CURVE SMOOTH",
"34 69 OFFCURVE",
"32 66 OFFCURVE",
"32 62 CURVE SMOOTH",
"32 57 OFFCURVE",
"40 55 OFFCURVE",
"44 55 CURVE SMOOTH",
"60 55 OFFCURVE",
"87 93 OFFCURVE",
"95 105 CURVE SMOOTH",
"189 251 OFFCURVE",
"211 473 OFFCURVE",
"220 644 CURVE"
);
},
{
closed = 1;
nodes = (
"480 273 OFFCURVE",
"403 515 OFFCURVE",
"346 636 CURVE",
"292 573 LINE",
"359 432 OFFCURVE",
"407 283 OFFCURVE",
"446 131 CURVE SMOOTH",
"448 123 OFFCURVE",
"453 99 OFFCURVE",
"464 99 CURVE SMOOTH",
"474 99 OFFCURVE",
"480 133 OFFCURVE",
"480 141 CURVE SMOOTH"
);
}
);
vertWidth = 1000;
width = 500;
},
{
layerId = "39409886-7F43-4FCA-9A57-4D4CD31E7C44";
paths = (
{
closed = 1;
nodes = (
"144 653 LINE",
"137 498 OFFCURVE",
"124 342 OFFCURVE",
"79 192 CURVE SMOOTH",
"68 154 OFFCURVE",
"53 115 OFFCURVE",
"33 80 CURVE SMOOTH",
"30 75 OFFCURVE",
"17 56 OFFCURVE",
"17 50 CURVE SMOOTH",
"17 46 OFFCURVE",
"19 43 OFFCURVE",
"23 43 CURVE SMOOTH",
"36 43 OFFCURVE",
"72 86 OFFCURVE",
"80 97 CURVE SMOOTH",
"176 227 OFFCURVE",
"204 484 OFFCURVE",
"213 641 CURVE"
);
},
{
closed = 1;
nodes = (
"483 256 OFFCURVE",
"405 483 OFFCURVE",
"347 609 CURVE",
"290 546 LINE",
"354 411 OFFCURVE",
"417 254 OFFCURVE",
"454 109 CURVE SMOOTH",
"456 100 OFFCURVE",
"460 76 OFFCURVE",
"473 76 CURVE SMOOTH",
"484 76 OFFCURVE",
"483 112 OFFCURVE",
"483 119 CURVE SMOOTH"
);
}
);
vertWidth = 1000;
width = 500;
}
);
note = cid00368;
unicode = FF8A;
},
{
glyphname = "hi-kata.half";
lastChange = "2021-04-19 16:42:50 +0000";
layers = (
{
layerId = "7C35F0AE-75E9-4EA7-B446-8B6431835EB7";
paths = (
{
closed = 1;
nodes = (
"460 173 OFFCURVE",
"458 180 OFFCURVE",
"454 180 CURVE SMOOTH",
"452 180 OFFCURVE",
"449 180 OFFCURVE",
"447 178 CURVE",
"446 178 OFFCURVE",
"444 176 OFFCURVE",
"443 175 CURVE SMOOTH",
"401 134 OFFCURVE",
"327 84 OFFCURVE",
"267 84 CURVE SMOOTH",
"231 84 OFFCURVE",
"201 101 OFFCURVE",
"186 134 CURVE SMOOTH",
"172 164 OFFCURVE",
"174 213 OFFCURVE",
"174 246 CURVE SMOOTH",
"174 412 LINE SMOOTH",
"174 504 OFFCURVE",
"174 597 OFFCURVE",
"177 690 CURVE",
"120 690 LINE",
"120 249 LINE SMOOTH",
"120 153 OFFCURVE",
"122 11 OFFCURVE",
"253 11 CURVE SMOOTH",
"330 11 OFFCURVE",
"460 84 OFFCURVE",
"460 171 CURVE SMOOTH"
);
},
{
closed = 1;
nodes = (
"420 532 OFFCURVE",
"384 589 OFFCURVE",
"376 606 CURVE",
"319 532 OFFCURVE",
"266 481 OFFCURVE",
"190 427 CURVE SMOOTH",
"186 424 OFFCURVE",
"182 421 OFFCURVE",
"182 415 CURVE SMOOTH",
"182 406 OFFCURVE",
"187 403 OFFCURVE",
"195 403 CURVE SMOOTH",
"262 403 OFFCURVE",
"357 464 OFFCURVE",
"410 503 CURVE SMOOTH",
"415 507 OFFCURVE",
"420 511 OFFCURVE",
"420 518 CURVE SMOOTH"
);
}
);
vertWidth = 1000;
width = 500;
},
{
layerId = "C3C75DF7-0318-4740-9DA2-680DF808C9D5";
paths = (
{
closed = 1;
nodes = (
"463 174 OFFCURVE",
"458 181 OFFCURVE",
"454 181 CURVE SMOOTH",
"451 181 OFFCURVE",
"447 180 OFFCURVE",
"444 179 CURVE",
"443 178 OFFCURVE",
"441 176 OFFCURVE",
"440 175 CURVE SMOOTH",
"399 136 OFFCURVE",
"326 84 OFFCURVE",
"267 84 CURVE SMOOTH",
"232 84 OFFCURVE",
"203 102 OFFCURVE",
"189 134 CURVE SMOOTH",
"175 164 OFFCURVE",
"177 213 OFFCURVE",
"177 246 CURVE SMOOTH",
"177 424 LINE SMOOTH",
"177 513 OFFCURVE",
"178 602 OFFCURVE",
"180 691 CURVE",
"117 691 LINE",
"117 249 LINE SMOOTH",
"117 150 OFFCURVE",
"120 10 OFFCURVE",
"253 10 CURVE SMOOTH",
"331 10 OFFCURVE",
"463 82 OFFCURVE",
"463 171 CURVE SMOOTH"
);
},
{
closed = 1;
nodes = (
"423 531 OFFCURVE",
"385 594 OFFCURVE",
"376 611 CURVE",
"318 536 OFFCURVE",
"263 484 OFFCURVE",
"187 427 CURVE SMOOTH",
"183 424 OFFCURVE",
"179 421 OFFCURVE",
"179 415 CURVE SMOOTH",
"179 405 OFFCURVE",
"186 403 OFFCURVE",
"195 403 CURVE SMOOTH",
"264 403 OFFCURVE",
"358 462 OFFCURVE",
"413 503 CURVE SMOOTH",
"418 507 OFFCURVE",
"423 511 OFFCURVE",
"423 518 CURVE SMOOTH"
);
}
);
vertWidth = 1000;
width = 500;
},
{
layerId = "39409886-7F43-4FCA-9A57-4D4CD31E7C44";
paths = (
{
closed = 1;
nodes = (
"453 181 OFFCURVE",
"452 186 OFFCURVE",
"448 186 CURVE SMOOTH",
"446 186 OFFCURVE",
"431 170 OFFCURVE",
"428 167 CURVE SMOOTH",
"383 125 OFFCURVE",
"321 87 OFFCURVE",
"258 87 CURVE SMOOTH",
"241 87 OFFCURVE",
"222 89 OFFCURVE",
"207 99 CURVE SMOOTH",
"167 126 OFFCURVE",
"167 206 OFFCURVE",
"167 248 CURVE SMOOTH",
"167 398 OFFCURVE",
"169 548 OFFCURVE",
"170 698 CURVE",
"107 698 LINE",
"107 239 LINE SMOOTH",
"107 146 OFFCURVE",
"118 3 OFFCURVE",
"241 3 CURVE SMOOTH",
"308 3 OFFCURVE",
"357 25 OFFCURVE",
"402 76 CURVE SMOOTH",
"420 96 OFFCURVE",
"434 118 OFFCURVE",
"443 143 CURVE SMOOTH",
"446 152 OFFCURVE",
"453 169 OFFCURVE",
"453 178 CURVE SMOOTH"
);
},
{
closed = 1;
nodes = (
"415 530 OFFCURVE",
"374 611 OFFCURVE",
"367 623 CURVE",
"329 567 OFFCURVE",
"241 462 OFFCURVE",
"183 429 CURVE SMOOTH",
"178 426 OFFCURVE",
"176 424 OFFCURVE",
"176 418 CURVE SMOOTH",
"176 410 OFFCURVE",
"180 407 OFFCURVE",
"187 407 CURVE SMOOTH",
"191 407 LINE SMOOTH",
"252 409 OFFCURVE",
"359 467 OFFCURVE",
"405 506 CURVE SMOOTH",
"410 510 OFFCURVE",
"415 515 OFFCURVE",
"415 522 CURVE SMOOTH"
);
}
);
vertWidth = 1000;
width = 500;
}
);
note = cid00369;
unicode = FF8B;
},
{
glyphname = "hu-kata.half";
lastChange = "2021-04-19 16:42:50 +0000";
layers = (
{
layerId = "7C35F0AE-75E9-4EA7-B446-8B6431835EB7";
paths = (
{
closed = 1;
nodes = (
"92 617 LINE",
"92 566 LINE",
"354 574 LINE",
"343 431 OFFCURVE",
"314 277 OFFCURVE",
"236 153 CURVE SMOOTH",
"206 105 OFFCURVE",
"163 55 OFFCURVE",
"116 23 CURVE SMOOTH",
"111 20 OFFCURVE",
"106 19 OFFCURVE",
"106 11 CURVE SMOOTH",
"106 3 OFFCURVE",
"114 2 OFFCURVE",
"120 2 CURVE SMOOTH",
"134 2 OFFCURVE",
"149 9 OFFCURVE",
"162 15 CURVE SMOOTH",
"355 110 OFFCURVE",
"415 425 OFFCURVE",
"421 620 CURVE"
);
}
);
vertWidth = 1000;
width = 500;
},
{
layerId = "C3C75DF7-0318-4740-9DA2-680DF808C9D5";
paths = (
{
closed = 1;
nodes = (
"89 618 LINE",
"89 566 LINE",
"351 574 LINE",
"340 429 OFFCURVE",
"311 277 OFFCURVE",
"233 153 CURVE SMOOTH",
"202 103 OFFCURVE",
"162 57 OFFCURVE",
"113 24 CURVE SMOOTH",
"108 20 OFFCURVE",
"103 19 OFFCURVE",
"103 11 CURVE SMOOTH",
"103 2 OFFCURVE",
"113 1 OFFCURVE",
"120 1 CURVE SMOOTH",
"135 1 OFFCURVE",
"151 8 OFFCURVE",
"165 15 CURVE SMOOTH",
"359 112 OFFCURVE",
"418 424 OFFCURVE",
"424 621 CURVE"
);
}
);
vertWidth = 1000;
width = 500;
},
{
layerId = "39409886-7F43-4FCA-9A57-4D4CD31E7C44";
paths = (
{
closed = 1;
nodes = (
"89 636 LINE",
"89 581 LINE",
"351 589 LINE",
"339 453 OFFCURVE",
"306 287 OFFCURVE",
"234 170 CURVE SMOOTH",
"210 131 OFFCURVE",
"179 89 OFFCURVE",
"144 59 CURVE SMOOTH",
"132 49 OFFCURVE",
"119 41 OFFCURVE",
"107 31 CURVE",
"103 29 OFFCURVE",
"101 24 OFFCURVE",
"101 20 CURVE SMOOTH",
"101 12 OFFCURVE",
"103 7 OFFCURVE",
"111 7 CURVE SMOOTH",
"127 7 OFFCURVE",
"148 19 OFFCURVE",
"163 26 CURVE SMOOTH",
"185 37 OFFCURVE",
"205 48 OFFCURVE",
"224 64 CURVE SMOOTH",
"370 188 OFFCURVE",
"420 459 OFFCURVE",
"428 640 CURVE"
);
}
);
vertWidth = 1000;
width = 500;
}
);
note = cid00370;
unicode = FF8C;
},
{
glyphname = "he-kata.half";
lastChange = "2021-04-19 16:42:50 +0000";
layers = (
{
layerId = "7C35F0AE-75E9-4EA7-B446-8B6431835EB7";
paths = (
{
closed = 1;
nodes = (
"471 136 OFFCURVE",
"467 152 OFFCURVE",
"462 167 CURVE SMOOTH",
"442 223 OFFCURVE",
"414 276 OFFCURVE",
"385 327 CURVE SMOOTH",
"362 366 OFFCURVE",
"243 560 OFFCURVE",
"204 560 CURVE SMOOTH",
"192 560 OFFCURVE",
"188 543 OFFCURVE",
"184 534 CURVE SMOOTH",
"157 471 OFFCURVE",
"96 379 OFFCURVE",
"47 331 CURVE SMOOTH",
"42 326 OFFCURVE",
"36 321 OFFCURVE",
"36 313 CURVE SMOOTH",
"36 300 OFFCURVE",
"59 243 OFFCURVE",
"73 243 CURVE SMOOTH",
"99 243 OFFCURVE",
"164 424 OFFCURVE",
"184 455 CURVE SMOOTH",
"187 460 OFFCURVE",
"191 467 OFFCURVE",
"197 467 CURVE SMOOTH",
"206 467 OFFCURVE",
"213 458 OFFCURVE",
"219 451 CURVE SMOOTH",
"241 427 OFFCURVE",
"259 401 OFFCURVE",
"278 375 CURVE SMOOTH",
"335 295 OFFCURVE",
"391 216 OFFCURVE",
"438 130 CURVE SMOOTH",
"441 124 OFFCURVE",
"452 102 OFFCURVE",
"459 102 CURVE SMOOTH",
"466 102 OFFCURVE",
"471 114 OFFCURVE",
"471 120 CURVE SMOOTH"
);
}
);
vertWidth = 1000;
width = 500;
},
{
layerId = "C3C75DF7-0318-4740-9DA2-680DF808C9D5";
paths = (
{
closed = 1;
nodes = (
"474 210 OFFCURVE",
"260 560 OFFCURVE",
"204 560 CURVE SMOOTH",
"189 560 OFFCURVE",
"186 545 OFFCURVE",
"181 534 CURVE SMOOTH",
"154 469 OFFCURVE",
"94 381 OFFCURVE",
"44 331 CURVE SMOOTH",
"39 326 OFFCURVE",
"33 321 OFFCURVE",
"33 313 CURVE SMOOTH",
"33 300 OFFCURVE",
"59 242 OFFCURVE",
"73 242 CURVE SMOOTH",
"108 242 OFFCURVE",
"178 466 OFFCURVE",
"197 466 CURVE SMOOTH",
"211 466 OFFCURVE",
"265 389 OFFCURVE",
"275 375 CURVE SMOOTH",
"332 295 OFFCURVE",
"388 215 OFFCURVE",
"435 130 CURVE SMOOTH",
"438 124 OFFCURVE",
"441 119 OFFCURVE",
"444 114 CURVE SMOOTH",
"447 110 OFFCURVE",
"454 102 OFFCURVE",
"459 102 CURVE SMOOTH",
"466 102 OFFCURVE",
"474 113 OFFCURVE",
"474 120 CURVE SMOOTH"
);
}
);
vertWidth = 1000;
width = 500;
},
{
layerId = "39409886-7F43-4FCA-9A57-4D4CD31E7C44";
paths = (
{
closed = 1;
nodes = (
"480 131 OFFCURVE",
"465 174 OFFCURVE",
"454 200 CURVE SMOOTH",
"430 257 OFFCURVE",
"262 569 OFFCURVE",
"207 569 CURVE SMOOTH",
"194 569 OFFCURVE",
"187 543 OFFCURVE",
"183 534 CURVE SMOOTH",
"156 471 OFFCURVE",
"93 370 OFFCURVE",
"44 323 CURVE SMOOTH",
"38 317 OFFCURVE",
"32 313 OFFCURVE",
"32 304 CURVE SMOOTH",
"32 283 OFFCURVE",
"66 244 OFFCURVE",
"80 228 CURVE",
"122 296 OFFCURVE",
"150 372 OFFCURVE",
"187 443 CURVE SMOOTH",
"189 446 OFFCURVE",
"194 459 OFFCURVE",
"199 459 CURVE SMOOTH",
"230 459 OFFCURVE",
"424 143 OFFCURVE",
"463 97 CURVE SMOOTH",
"465 95 OFFCURVE",
"470 90 OFFCURVE",
"473 90 CURVE SMOOTH",
"480 90 OFFCURVE",
"480 99 OFFCURVE",
"480 103 CURVE SMOOTH"
);
}
);
vertWidth = 1000;
width = 500;
}
);
note = cid00371;
unicode = FF8D;
},
{
glyphname = "ho-kata.half";
lastChange = "2021-04-19 16:42:50 +0000";
layers = (
{
layerId = "7C35F0AE-75E9-4EA7-B446-8B6431835EB7";
paths = (
{
closed = 1;
nodes = (
"128 426 LINE",
"123 350 OFFCURVE",
"113 274 OFFCURVE",
"93 200 CURVE SMOOTH",
"84 166 OFFCURVE",
"74 132 OFFCURVE",
"58 101 CURVE SMOOTH",
"56 98 OFFCURVE",
"54 95 OFFCURVE",
"54 91 CURVE SMOOTH",
"54 87 OFFCURVE",
"58 86 OFFCURVE",
"61 86 CURVE SMOOTH",
"69 86 OFFCURVE",
"98 124 OFFCURVE",
"103 132 CURVE SMOOTH",
"151 208 OFFCURVE",
"177 321 OFFCURVE",
"185 411 CURVE"
);
},
{
closed = 1;
nodes = (
"449 588 OFFCURVE",
"441 625 OFFCURVE",
"417 625 CURVE SMOOTH",
"392 625 OFFCURVE",
"385 586 OFFCURVE",
"385 567 CURVE SMOOTH",
"385 564 OFFCURVE",
"385 561 OFFCURVE",
"386 559 CURVE",
"282 559 LINE",
"282 731 LINE",
"227 731 LINE",
"227 559 LINE",
"73 559 LINE",
"73 517 LINE",
"227 517 LINE",
"227 84 LINE SMOOTH",
"227 73 OFFCURVE",
"226 45 OFFCURVE",
"210 45 CURVE SMOOTH",
"189 45 OFFCURVE",
"174 60 OFFCURVE",
"156 61 CURVE",
"154 60 OFFCURVE",
"151 58 OFFCURVE",
"151 56 CURVE SMOOTH",
"151 52 OFFCURVE",
"155 48 OFFCURVE",
"157 44 CURVE",
"172 23 OFFCURVE",
"205 -19 OFFCURVE",
"233 -19 CURVE SMOOTH",
"275 -19 OFFCURVE",
"282 34 OFFCURVE",
"282 66 CURVE SMOOTH",
"282 517 LINE",
"413 517 LINE SMOOTH",
"441 517 OFFCURVE",
"449 546 OFFCURVE",
"449 569 CURVE SMOOTH"
);
},
{
closed = 1;
nodes = (
"459 95 OFFCURVE",
"457 98 OFFCURVE",
"456 101 CURVE SMOOTH",
"441 133 OFFCURVE",
"429 166 OFFCURVE",
"420 200 CURVE SMOOTH",
"400 274 OFFCURVE",
"390 350 OFFCURVE",
"385 426 CURVE",
"328 411 LINE",
"337 318 OFFCURVE",
"364 200 OFFCURVE",
"416 122 CURVE SMOOTH",
"424 110 OFFCURVE",
"433 97 OFFCURVE",
"444 88 CURVE",
"445 88 OFFCURVE",
"451 86 OFFCURVE",
"452 86 CURVE SMOOTH",
"455 86 OFFCURVE",
"459 87 OFFCURVE",
"459 91 CURVE SMOOTH"
);
}
);
vertWidth = 1000;
width = 500;
},
{
layerId = "C3C75DF7-0318-4740-9DA2-680DF808C9D5";
paths = (
{
closed = 1;
nodes = (
"125 428 LINE",
"120 351 OFFCURVE",
"110 274 OFFCURVE",
"90 200 CURVE SMOOTH",
"81 166 OFFCURVE",
"71 132 OFFCURVE",
"55 101 CURVE SMOOTH",
"53 98 OFFCURVE",
"51 95 OFFCURVE",
"51 91 CURVE SMOOTH",
"51 87 OFFCURVE",
"58 85 OFFCURVE",
"61 85 CURVE SMOOTH",
"69 85 OFFCURVE",
"101 124 OFFCURVE",
"106 132 CURVE SMOOTH",
"154 206 OFFCURVE",
"180 323 OFFCURVE",
"188 411 CURVE"
);
},
{
closed = 1;
nodes = (
"452 591 OFFCURVE",
"444 626 OFFCURVE",
"417 626 CURVE SMOOTH",
"390 626 OFFCURVE",
"382 588 OFFCURVE",
"382 567 CURVE SMOOTH",
"382 565 OFFCURVE",
"382 562 OFFCURVE",
"383 559 CURVE",
"285 559 LINE",
"285 732 LINE",
"224 732 LINE",
"224 559 LINE",
"70 559 LINE",
"70 516 LINE",
"224 516 LINE",
"224 76 LINE SMOOTH",
"224 66 OFFCURVE",
"224 45 OFFCURVE",
"210 45 CURVE SMOOTH",
"190 45 OFFCURVE",
"175 60 OFFCURVE",
"154 61 CURVE SMOOTH",
"153 61 OFFCURVE",
"148 59 OFFCURVE",
"148 56 CURVE SMOOTH",
"148 52 OFFCURVE",
"152 48 OFFCURVE",
"154 44 CURVE",
"170 21 OFFCURVE",
"202 -20 OFFCURVE",
"233 -20 CURVE SMOOTH",
"278 -20 OFFCURVE",
"285 32 OFFCURVE",
"285 66 CURVE SMOOTH",
"285 516 LINE",
"413 516 LINE SMOOTH",
"443 516 OFFCURVE",
"452 544 OFFCURVE",
"452 569 CURVE SMOOTH"
);
},
{
closed = 1;
nodes = (
"462 95 OFFCURVE",
"460 98 OFFCURVE",
"459 101 CURVE SMOOTH",
"444 133 OFFCURVE",
"432 166 OFFCURVE",
"423 200 CURVE SMOOTH",
"403 274 OFFCURVE",
"393 351 OFFCURVE",
"388 428 CURVE",
"325 411 LINE",
"334 317 OFFCURVE",
"360 202 OFFCURVE",
"413 122 CURVE SMOOTH",
"421 110 OFFCURVE",
"430 97 OFFCURVE",
"441 88 CURVE",
"444 87 OFFCURVE",
"449 85 OFFCURVE",
"452 85 CURVE SMOOTH",
"455 85 OFFCURVE",
"462 87 OFFCURVE",
"462 91 CURVE SMOOTH"
);
}
);
vertWidth = 1000;
width = 500;
},
{
layerId = "39409886-7F43-4FCA-9A57-4D4CD31E7C44";
paths = (
{
closed = 1;
nodes = (
"122 423 LINE",
"117 347 OFFCURVE",
"103 270 OFFCURVE",
"82 197 CURVE SMOOTH",
"72 162 OFFCURVE",
"59 127 OFFCURVE",
"42 94 CURVE",
"41 91 OFFCURVE",
"38 87 OFFCURVE",
"38 84 CURVE SMOOTH",
"38 79 OFFCURVE",
"40 76 OFFCURVE",
"45 76 CURVE SMOOTH",
"49 76 OFFCURVE",
"58 83 OFFCURVE",
"61 85 CURVE SMOOTH",
"139 144 OFFCURVE",
"177 306 OFFCURVE",
"186 398 CURVE"
);
},
{
closed = 1;
nodes = (
"454 596 OFFCURVE",
"444 637 OFFCURVE",
"418 637 CURVE SMOOTH",
"393 637 OFFCURVE",
"387 584 OFFCURVE",
"386 566 CURVE",
"287 566 LINE",
"287 740 LINE",
"224 740 LINE",
"224 566 LINE",
"69 566 LINE",
"69 521 LINE",
"224 521 LINE",
"224 95 LINE SMOOTH",
"224 82 OFFCURVE",
"224 46 OFFCURVE",
"204 46 CURVE SMOOTH",
"182 46 OFFCURVE",
"144 95 OFFCURVE",
"141 95 CURVE SMOOTH",
"139 95 OFFCURVE",
"138 88 OFFCURVE",
"138 87 CURVE",
"138 87 OFFCURVE",
"139 84 OFFCURVE",
"139 84 CURVE",
"151 53 OFFCURVE",
"190 -43 OFFCURVE",
"230 -43 CURVE SMOOTH",
"281 -43 OFFCURVE",
"287 56 OFFCURVE",
"287 90 CURVE SMOOTH",
"287 234 OFFCURVE",
"286 377 OFFCURVE",
"286 521 CURVE",
"418 521 LINE SMOOTH",
"447 521 OFFCURVE",
"454 553 OFFCURVE",
"454 576 CURVE SMOOTH"
);
},
{
closed = 1;
nodes = (
"477 95 OFFCURVE",
"476 96 OFFCURVE",
"474 100 CURVE SMOOTH",
"456 132 OFFCURVE",
"444 169 OFFCURVE",
"434 204 CURVE SMOOTH",
"413 276 OFFCURVE",
"398 352 OFFCURVE",
"393 427 CURVE",
"327 398 LINE",
"339 302 OFFCURVE",
"379 155 OFFCURVE",
"455 90 CURVE SMOOTH",
"458 87 OFFCURVE",
"466 80 OFFCURVE",
"471 80 CURVE SMOOTH",
"475 80 OFFCURVE",
"477 89 OFFCURVE",
"477 91 CURVE SMOOTH"
);
}
);
vertWidth = 1000;
width = 500;
}
);
note = cid00372;
unicode = FF8E;
},
{
glyphname = "ma-kata.half";
lastChange = "2021-04-19 16:42:50 +0000";
layers = (
{
layerId = "7C35F0AE-75E9-4EA7-B446-8B6431835EB7";
paths = (
{
closed = 1;
nodes = (
"50 599 LINE",
"50 542 LINE",
"389 560 LINE",
"380 451 OFFCURVE",
"330 292 OFFCURVE",
"264 206 CURVE",
"231 248 OFFCURVE",
"181 304 OFFCURVE",
"137 335 CURVE",
"132 321 OFFCURVE",
"108 261 OFFCURVE",
"108 251 CURVE SMOOTH",
"108 246 OFFCURVE",
"111 245 OFFCURVE",
"115 242 CURVE SMOOTH",
"176 202 OFFCURVE",
"251 123 OFFCURVE",
"298 66 CURVE SMOOTH",
"312 50 OFFCURVE",
"330 23 OFFCURVE",
"348 12 CURVE",
"354 13 OFFCURVE",
"356 19 OFFCURVE",
"356 24 CURVE SMOOTH",
"356 64 OFFCURVE",
"304 144 OFFCURVE",
"281 177 CURVE",
"399 282 OFFCURVE",
"457 456 OFFCURVE",
"465 611 CURVE"
);
}
);
vertWidth = 1000;
width = 500;
},
{
layerId = "C3C75DF7-0318-4740-9DA2-680DF808C9D5";
paths = (
{
closed = 1;
nodes = (
"47 598 LINE",
"47 540 LINE",
"386 558 LINE",
"377 450 OFFCURVE",
"328 296 OFFCURVE",
"264 209 CURVE",
"228 253 OFFCURVE",
"182 304 OFFCURVE",
"135 337 CURVE",
"130 323 OFFCURVE",
"105 261 OFFCURVE",
"105 251 CURVE SMOOTH",
"105 245 OFFCURVE",
"108 244 OFFCURVE",
"112 241 CURVE SMOOTH",
"176 199 OFFCURVE",
"246 125 OFFCURVE",
"295 65 CURVE SMOOTH",
"310 46 OFFCURVE",
"326 23 OFFCURVE",
"347 10 CURVE",
"354 11 OFFCURVE",
"359 16 OFFCURVE",
"359 23 CURVE SMOOTH",
"359 63 OFFCURVE",
"307 142 OFFCURVE",
"284 176 CURVE",
"403 282 OFFCURVE",
"460 455 OFFCURVE",
"468 610 CURVE"
);
}
);
vertWidth = 1000;
width = 500;
},
{
layerId = "39409886-7F43-4FCA-9A57-4D4CD31E7C44";
paths = (
{
closed = 1;
nodes = (
"30 601 LINE",
"30 540 LINE",
"372 560 LINE",
"366 460 OFFCURVE",
"312 292 OFFCURVE",
"253 210 CURVE",
"222 259 OFFCURVE",
"185 318 OFFCURVE",
"141 355 CURVE",
"128 321 OFFCURVE",
"114 287 OFFCURVE",
"99 254 CURVE",
"172 195 OFFCURVE",
"249 96 OFFCURVE",
"300 17 CURVE SMOOTH",
"304 11 OFFCURVE",
"324 -22 OFFCURVE",
"330 -22 CURVE SMOOTH",
"336 -22 OFFCURVE",
"338 -13 OFFCURVE",
"338 -9 CURVE SMOOTH",
"338 30 OFFCURVE",
"294 139 OFFCURVE",
"272 174 CURVE",
"396 273 OFFCURVE",
"452 462 OFFCURVE",
"456 616 CURVE"
);
}
);
vertWidth = 1000;
width = 500;
}
);
note = cid00373;
unicode = FF8F;
},
{
glyphname = "mi-kata.half";
lastChange = "2021-04-19 16:42:50 +0000";
layers = (
{
layerId = "7C35F0AE-75E9-4EA7-B446-8B6431835EB7";
paths = (
{
closed = 1;
nodes = (
"403 71 OFFCURVE",
"392 67 OFFCURVE",
"382 67 CURVE SMOOTH",
"356 67 OFFCURVE",
"320 86 OFFCURVE",
"298 99 CURVE SMOOTH",
"219 145 OFFCURVE",
"162 219 OFFCURVE",
"111 293 CURVE",
"105 293 LINE",
"87 191 LINE",
"146 134 OFFCURVE",
"282 12 OFFCURVE",
"366 12 CURVE SMOOTH",
"403 12 OFFCURVE",
"411 47 OFFCURVE",
"411 77 CURVE"
);
},
{
closed = 1;
nodes = (
"362 313 OFFCURVE",
"360 321 OFFCURVE",
"356 329 CURVE SMOOTH",
"325 400 OFFCURVE",
"230 458 OFFCURVE",
"166 497 CURVE",
"147 413 LINE",
"208 389 OFFCURVE",
"264 357 OFFCURVE",
"319 320 CURVE SMOOTH",
"325 316 OFFCURVE",
"350 298 OFFCURVE",
"356 298 CURVE SMOOTH",
"359 298 OFFCURVE",
"362 300 OFFCURVE",
"362 304 CURVE SMOOTH"
);
},
{
closed = 1;
nodes = (
"393 607 OFFCURVE",
"223 711 OFFCURVE",
"173 736 CURVE",
"150 645 LINE",
"205 628 OFFCURVE",
"294 589 OFFCURVE",
"344 560 CURVE SMOOTH",
"352 556 OFFCURVE",
"375 538 OFFCURVE",
"383 538 CURVE SMOOTH",
"388 538 OFFCURVE",
"393 544 OFFCURVE",
"393 549 CURVE SMOOTH"
);
}
);
vertWidth = 1000;
width = 500;
},
{
layerId = "C3C75DF7-0318-4740-9DA2-680DF808C9D5";
paths = (
{
closed = 1;
nodes = (
"414 86 LINE",
"405 79 OFFCURVE",
"393 72 OFFCURVE",
"382 72 CURVE SMOOTH",
"358 72 OFFCURVE",
"321 91 OFFCURVE",
"301 103 CURVE SMOOTH",
"222 150 OFFCURVE",
"165 224 OFFCURVE",
"114 298 CURVE",
"102 298 LINE",
"84 196 LINE",
"145 137 OFFCURVE",
"279 15 OFFCURVE",
"366 15 CURVE SMOOTH",
"406 15 OFFCURVE",
"414 50 OFFCURVE",
"414 83 CURVE SMOOTH"
);
},
{
closed = 1;
nodes = (
"365 317 OFFCURVE",
"362 325 OFFCURVE",
"359 333 CURVE SMOOTH",
"329 405 OFFCURVE",
"228 466 OFFCURVE",
"163 505 CURVE",
"144 418 LINE",
"205 393 OFFCURVE",
"261 360 OFFCURVE",
"316 324 CURVE SMOOTH",
"322 320 OFFCURVE",
"350 302 OFFCURVE",
"356 302 CURVE SMOOTH",
"359 302 OFFCURVE",
"365 304 OFFCURVE",
"365 308 CURVE SMOOTH"
);
},
{
closed = 1;
nodes = (
"396 613 OFFCURVE",
"221 717 OFFCURVE",
"170 743 CURVE",
"147 650 LINE",
"209 629 OFFCURVE",
"286 598 OFFCURVE",
"342 564 CURVE SMOOTH",
"351 559 OFFCURVE",
"373 542 OFFCURVE",
"383 542 CURVE SMOOTH",
"388 542 OFFCURVE",
"396 547 OFFCURVE",
"396 553 CURVE SMOOTH"
);
}
);
vertWidth = 1000;
width = 500;
},
{
layerId = "39409886-7F43-4FCA-9A57-4D4CD31E7C44";
paths = (
{
closed = 1;
nodes = (
"410 72 OFFCURVE",
"398 60 OFFCURVE",
"385 60 CURVE SMOOTH",
"360 60 OFFCURVE",
"332 80 OFFCURVE",
"312 94 CURVE SMOOTH",
"252 137 OFFCURVE",
"199 190 OFFCURVE",
"152 247 CURVE SMOOTH",
"140 262 OFFCURVE",
"128 277 OFFCURVE",
"116 292 CURVE SMOOTH",
"115 293 OFFCURVE",
"112 296 OFFCURVE",
"110 296 CURVE SMOOTH",
"107 296 OFFCURVE",
"105 290 OFFCURVE",
"104 288 CURVE",
"82 186 LINE",
"142 128 OFFCURVE",
"279 -4 OFFCURVE",
"365 -4 CURVE SMOOTH",
"407 -4 OFFCURVE",
"418 48 OFFCURVE",
"418 81 CURVE"
);
},
{
closed = 1;
nodes = (
"371 382 OFFCURVE",
"229 469 OFFCURVE",
"168 503 CURVE",
"149 407 LINE",
"202 389 OFFCURVE",
"234 371 OFFCURVE",
"283 343 CURVE SMOOTH",
"294 337 OFFCURVE",
"358 295 OFFCURVE",
"363 295 CURVE SMOOTH",
"368 295 OFFCURVE",
"371 300 OFFCURVE",
"371 304 CURVE SMOOTH"
);
},
{
closed = 1;
nodes = (
"391 563 OFFCURVE",
"377 589 OFFCURVE",
"369 601 CURVE SMOOTH",
"323 670 OFFCURVE",
"253 722 OFFCURVE",
"175 750 CURVE",
"148 638 LINE",
"220 620 OFFCURVE",
"291 587 OFFCURVE",
"354 547 CURVE SMOOTH",
"358 544 OFFCURVE",
"376 531 OFFCURVE",
"380 531 CURVE SMOOTH",
"389 531 OFFCURVE",
"391 543 OFFCURVE",
"391 549 CURVE SMOOTH"
);
}
);
vertWidth = 1000;
width = 500;
}
);
note = cid00374;
unicode = FF90;
},
{
glyphname = "mu-kata.half";
lastChange = "2021-04-19 16:42:50 +0000";
layers = (
{
layerId = "7C35F0AE-75E9-4EA7-B446-8B6431835EB7";
paths = (
{
closed = 1;
nodes = (
"450 214 OFFCURVE",
"407 356 OFFCURVE",
"359 446 CURVE",
"313 391 LINE",
"342 343 OFFCURVE",
"363 290 OFFCURVE",
"383 238 CURVE",
"313 164 OFFCURVE",
"237 168 OFFCURVE",
"143 161 CURVE",
"176 255 OFFCURVE",
"202 352 OFFCURVE",
"227 449 CURVE SMOOTH",
"246 520 OFFCURVE",
"264 591 OFFCURVE",
"276 664 CURVE",
"214 694 LINE",
"202 614 OFFCURVE",
"189 536 OFFCURVE",
"176 457 CURVE SMOOTH",
"162 374 OFFCURVE",
"147 290 OFFCURVE",
"122 210 CURVE SMOOTH",
"115 186 OFFCURVE",
"107 159 OFFCURVE",
"83 146 CURVE",
"91 78 LINE",
"158 84 OFFCURVE",
"230 91 OFFCURVE",
"294 115 CURVE SMOOTH",
"341 133 OFFCURVE",
"368 174 OFFCURVE",
"391 216 CURVE",
"405 177 OFFCURVE",
"415 136 OFFCURVE",
"430 96 CURVE SMOOTH",
"431 92 OFFCURVE",
"435 84 OFFCURVE",
"440 84 CURVE SMOOTH",
"447 84 OFFCURVE",
"450 106 OFFCURVE",
"450 111 CURVE SMOOTH"
);
}
);
vertWidth = 1000;
width = 500;
},
{
layerId = "C3C75DF7-0318-4740-9DA2-680DF808C9D5";
paths = (
{
closed = 1;
nodes = (
"453 220 OFFCURVE",
"409 362 OFFCURVE",
"359 455 CURVE",
"310 395 LINE",
"339 346 OFFCURVE",
"360 294 OFFCURVE",
"380 242 CURVE",
"312 170 OFFCURVE",
"238 172 OFFCURVE",
"147 165 CURVE",
"179 260 OFFCURVE",
"205 356 OFFCURVE",
"230 453 CURVE SMOOTH",
"249 524 OFFCURVE",
"267 595 OFFCURVE",
"279 668 CURVE",
"212 700 LINE",
"196 595 OFFCURVE",
"147 257 OFFCURVE",
"106 178 CURVE SMOOTH",
"100 166 OFFCURVE",
"92 156 OFFCURVE",
"80 150 CURVE",
"88 81 LINE",
"156 87 OFFCURVE",
"233 93 OFFCURVE",
"296 118 CURVE SMOOTH",
"341 136 OFFCURVE",
"368 173 OFFCURVE",
"390 213 CURVE",
"403 176 OFFCURVE",
"412 136 OFFCURVE",
"427 100 CURVE SMOOTH",
"429 96 OFFCURVE",
"435 87 OFFCURVE",
"440 87 CURVE SMOOTH",
"447 87 OFFCURVE",
"453 109 OFFCURVE",
"453 115 CURVE SMOOTH"
);
}
);
vertWidth = 1000;
width = 500;
},
{
layerId = "39409886-7F43-4FCA-9A57-4D4CD31E7C44";
paths = (
{
closed = 1;
nodes = (
"443 189 OFFCURVE",
"397 344 OFFCURVE",
"343 442 CURVE",
"294 380 LINE",
"321 330 OFFCURVE",
"344 278 OFFCURVE",
"364 225 CURVE",
"299 159 OFFCURVE",
"217 154 OFFCURVE",
"131 149 CURVE",
"186 315 OFFCURVE",
"233 484 OFFCURVE",
"264 656 CURVE",
"195 690 LINE",
"183 609 OFFCURVE",
"170 528 OFFCURVE",
"156 447 CURVE SMOOTH",
"141 362 OFFCURVE",
"127 274 OFFCURVE",
"100 192 CURVE SMOOTH",
"92 167 OFFCURVE",
"85 143 OFFCURVE",
"57 135 CURVE",
"70 59 LINE",
"126 64 OFFCURVE",
"226 82 OFFCURVE",
"279 100 CURVE SMOOTH",
"326 115 OFFCURVE",
"347 150 OFFCURVE",
"372 190 CURVE",
"373 191 OFFCURVE",
"374 193 OFFCURVE",
"375 194 CURVE",
"392 150 OFFCURVE",
"407 106 OFFCURVE",
"424 62 CURVE SMOOTH",
"426 58 OFFCURVE",
"427 53 OFFCURVE",
"432 53 CURVE SMOOTH",
"441 53 OFFCURVE",
"443 73 OFFCURVE",
"443 78 CURVE SMOOTH"
);
}
);
vertWidth = 1000;
width = 500;
}
);
note = cid00375;
unicode = FF91;
},
{
glyphname = "me-kata.half";
lastChange = "2021-04-19 16:42:50 +0000";
layers = (
{
layerId = "7C35F0AE-75E9-4EA7-B446-8B6431835EB7";
paths = (
{
closed = 1;
nodes = (
"455 244 OFFCURVE",
"375 355 OFFCURVE",
"347 396 CURVE",
"374 493 OFFCURVE",
"397 592 OFFCURVE",
"405 692 CURVE",
"334 693 LINE",
"326 612 OFFCURVE",
"315 532 OFFCURVE",
"297 452 CURVE",
"280 471 OFFCURVE",
"263 490 OFFCURVE",
"245 509 CURVE SMOOTH",
"220 534 OFFCURVE",
"193 555 OFFCURVE",
"165 577 CURVE",
"155 548 OFFCURVE",
"144 519 OFFCURVE",
"137 490 CURVE",
"190 461 OFFCURVE",
"235 419 OFFCURVE",
"278 376 CURVE",
"243 260 OFFCURVE",
"177 106 OFFCURVE",
"63 48 CURVE SMOOTH",
"56 44 OFFCURVE",
"48 41 OFFCURVE",
"48 31 CURVE SMOOTH",
"48 26 OFFCURVE",
"54 22 OFFCURVE",
"59 22 CURVE SMOOTH",
"74 22 OFFCURVE",
"90 26 OFFCURVE",
"104 32 CURVE SMOOTH",
"216 80 OFFCURVE",
"284 213 OFFCURVE",
"323 322 CURVE",
"350 289 OFFCURVE",
"378 255 OFFCURVE",
"403 221 CURVE SMOOTH",
"412 208 OFFCURVE",
"420 195 OFFCURVE",
"430 183 CURVE SMOOTH",
"433 179 OFFCURVE",
"437 175 OFFCURVE",
"442 175 CURVE SMOOTH",
"451 175 OFFCURVE",
"455 191 OFFCURVE",
"455 198 CURVE SMOOTH"
);
}
);
vertWidth = 1000;
width = 500;
},
{
layerId = "C3C75DF7-0318-4740-9DA2-680DF808C9D5";
paths = (
{
closed = 1;
nodes = (
"458 244 OFFCURVE",
"378 355 OFFCURVE",
"350 396 CURVE",
"377 493 OFFCURVE",
"400 592 OFFCURVE",
"408 693 CURVE",
"331 694 LINE",
"324 615 OFFCURVE",
"313 535 OFFCURVE",
"295 458 CURVE",
"280 475 OFFCURVE",
"264 492 OFFCURVE",
"248 509 CURVE SMOOTH",
"222 535 OFFCURVE",
"193 558 OFFCURVE",
"164 581 CURVE",
"153 551 OFFCURVE",
"142 521 OFFCURVE",
"134 490 CURVE",
"187 461 OFFCURVE",
"232 419 OFFCURVE",
"275 376 CURVE",
"239 257 OFFCURVE",
"176 109 OFFCURVE",
"60 48 CURVE SMOOTH",
"53 44 OFFCURVE",
"45 41 OFFCURVE",
"45 32 CURVE SMOOTH",
"45 25 OFFCURVE",
"54 21 OFFCURVE",
"59 21 CURVE SMOOTH",
"75 21 OFFCURVE",
"91 26 OFFCURVE",
"106 32 CURVE SMOOTH",
"218 79 OFFCURVE",
"285 208 OFFCURVE",
"324 317 CURVE",
"350 285 OFFCURVE",
"376 254 OFFCURVE",
"400 221 CURVE SMOOTH",
"409 208 OFFCURVE",
"417 194 OFFCURVE",
"427 183 CURVE SMOOTH",
"431 179 OFFCURVE",
"436 175 OFFCURVE",
"442 175 CURVE SMOOTH",
"451 175 OFFCURVE",
"458 190 OFFCURVE",
"458 198 CURVE SMOOTH"
);
}
);
vertWidth = 1000;
width = 500;
},
{
layerId = "39409886-7F43-4FCA-9A57-4D4CD31E7C44";
paths = (
{
closed = 1;
nodes = (
"462 239 OFFCURVE",
"396 345 OFFCURVE",
"362 392 CURVE",
"391 487 OFFCURVE",
"411 589 OFFCURVE",
"422 688 CURVE",
"344 706 LINE",
"337 622 OFFCURVE",
"325 538 OFFCURVE",
"307 456 CURVE",
"269 504 OFFCURVE",
"224 549 OFFCURVE",
"176 587 CURVE",
"144 487 LINE",
"196 456 OFFCURVE",
"240 413 OFFCURVE",
"283 370 CURVE",
"253 266 OFFCURVE",
"178 117 OFFCURVE",
"89 52 CURVE SMOOTH",
"79 44 OFFCURVE",
"51 32 OFFCURVE",
"51 18 CURVE SMOOTH",
"51 11 OFFCURVE",
"56 8 OFFCURVE",
"62 8 CURVE SMOOTH",
"79 8 OFFCURVE",
"96 13 OFFCURVE",
"112 20 CURVE SMOOTH",
"225 69 OFFCURVE",
"295 201 OFFCURVE",
"335 311 CURVE",
"361 279 OFFCURVE",
"387 248 OFFCURVE",
"412 215 CURVE SMOOTH",
"422 202 OFFCURVE",
"431 189 OFFCURVE",
"441 176 CURVE SMOOTH",
"443 173 OFFCURVE",
"449 166 OFFCURVE",
"453 166 CURVE SMOOTH",
"460 166 OFFCURVE",
"462 177 OFFCURVE",
"462 182 CURVE SMOOTH"
);
}
);
vertWidth = 1000;
width = 500;
}
);
note = cid00376;
unicode = FF92;
},
{
glyphname = "mo-kata.half";
lastChange = "2021-04-19 16:42:50 +0000";
layers = (
{
layerId = "7C35F0AE-75E9-4EA7-B446-8B6431835EB7";
paths = (
{
closed = 1;
nodes = (
"469 106 OFFCURVE",
"465 108 OFFCURVE",
"462 108 CURVE SMOOTH",
"458 108 OFFCURVE",
"408 80 OFFCURVE",
"398 76 CURVE SMOOTH",
"372 66 OFFCURVE",
"344 61 OFFCURVE",
"316 61 CURVE SMOOTH",
"238 61 OFFCURVE",
"237 159 OFFCURVE",
"237 215 CURVE SMOOTH",
"237 377 LINE",
"415 377 LINE SMOOTH",
"442 377 OFFCURVE",
"451 410 OFFCURVE",
"451 432 CURVE SMOOTH",
"451 451 OFFCURVE",
"442 489 OFFCURVE",
"417 489 CURVE SMOOTH",
"390 489 OFFCURVE",
"386 443 OFFCURVE",
"386 423 CURVE",
"238 423 LINE",
"240 600 LINE",
"378 600 LINE SMOOTH",
"405 600 OFFCURVE",
"414 633 OFFCURVE",
"414 655 CURVE SMOOTH",
"414 674 OFFCURVE",
"405 712 OFFCURVE",
"381 712 CURVE SMOOTH",
"357 712 OFFCURVE",
"349 673 OFFCURVE",
"349 655 CURVE SMOOTH",
"349 646 LINE",
"77 646 LINE",
"77 600 LINE",
"181 600 LINE",
"181 423 LINE",
"54 423 LINE",
"54 377 LINE",
"181 377 LINE",
"181 237 LINE SMOOTH",
"181 132 OFFCURVE",
"180 -4 OFFCURVE",
"322 -4 CURVE SMOOTH",
"378 -4 OFFCURVE",
"432 37 OFFCURVE",
"461 82 CURVE SMOOTH",
"465 88 OFFCURVE",
"469 94 OFFCURVE",
"469 102 CURVE SMOOTH"
);
}
);
vertWidth = 1000;
width = 500;
},
{
layerId = "C3C75DF7-0318-4740-9DA2-680DF808C9D5";
paths = (
{
closed = 1;
nodes = (
"472 106 OFFCURVE",
"465 109 OFFCURVE",
"462 109 CURVE SMOOTH",
"456 109 OFFCURVE",
"407 81 OFFCURVE",
"396 77 CURVE SMOOTH",
"370 66 OFFCURVE",
"343 61 OFFCURVE",
"316 61 CURVE SMOOTH",
"241 61 OFFCURVE",
"240 162 OFFCURVE",
"240 215 CURVE SMOOTH",
"240 377 LINE",
"415 377 LINE SMOOTH",
"445 377 OFFCURVE",
"454 407 OFFCURVE",
"454 432 CURVE SMOOTH",
"454 454 OFFCURVE",
"445 490 OFFCURVE",
"417 490 CURVE SMOOTH",
"387 490 OFFCURVE",
"383 446 OFFCURVE",
"383 424 CURVE",
"241 424 LINE",
"243 599 LINE",
"378 599 LINE SMOOTH",
"408 599 OFFCURVE",
"417 630 OFFCURVE",
"417 655 CURVE SMOOTH",
"417 676 OFFCURVE",
"408 713 OFFCURVE",
"381 713 CURVE SMOOTH",
"354 713 OFFCURVE",
"346 676 OFFCURVE",
"346 655 CURVE SMOOTH",
"346 647 LINE",
"74 647 LINE",
"74 599 LINE",
"178 599 LINE",
"178 424 LINE",
"51 424 LINE",
"51 377 LINE",
"178 377 LINE",
"178 232 LINE SMOOTH",
"178 124 OFFCURVE",
"180 -5 OFFCURVE",
"322 -5 CURVE SMOOTH",
"380 -5 OFFCURVE",
"434 35 OFFCURVE",
"464 82 CURVE SMOOTH",
"468 88 OFFCURVE",
"472 95 OFFCURVE",
"472 102 CURVE SMOOTH"
);
}
);
vertWidth = 1000;
width = 500;
},
{
layerId = "39409886-7F43-4FCA-9A57-4D4CD31E7C44";
paths = (
{
closed = 1;
nodes = (
"474 113 OFFCURVE",
"473 118 OFFCURVE",
"470 118 CURVE",
"421 86 OFFCURVE",
"378 63 OFFCURVE",
"317 63 CURVE SMOOTH",
"240 63 OFFCURVE",
"241 162 OFFCURVE",
"241 217 CURVE SMOOTH",
"241 269 OFFCURVE",
"241 322 OFFCURVE",
"242 374 CURVE",
"420 374 LINE SMOOTH",
"449 374 OFFCURVE",
"457 409 OFFCURVE",
"457 432 CURVE SMOOTH",
"457 450 OFFCURVE",
"448 493 OFFCURVE",
"423 493 CURVE SMOOTH",
"395 493 OFFCURVE",
"387 444 OFFCURVE",
"386 424 CURVE",
"242 424 LINE",
"245 599 LINE",
"379 599 LINE SMOOTH",
"409 599 OFFCURVE",
"416 633 OFFCURVE",
"416 656 CURVE SMOOTH",
"416 673 OFFCURVE",
"405 715 OFFCURVE",
"383 715 CURVE SMOOTH",
"357 715 OFFCURVE",
"350 668 OFFCURVE",
"349 649 CURVE",
"76 649 LINE",
"76 599 LINE",
"180 599 LINE",
"179 424 LINE",
"51 424 LINE",
"51 374 LINE",
"178 374 LINE",
"178 318 OFFCURVE",
"177 263 OFFCURVE",
"177 207 CURVE SMOOTH",
"177 108 OFFCURVE",
"185 -18 OFFCURVE",
"313 -18 CURVE SMOOTH",
"392 -18 OFFCURVE",
"444 34 OFFCURVE",
"472 103 CURVE SMOOTH",
"473 106 OFFCURVE",
"474 108 OFFCURVE",
"474 111 CURVE SMOOTH"
);
}
);
vertWidth = 1000;
width = 500;
}
);
note = cid00377;
unicode = FF93;
},
{
glyphname = "ya-kata.half";
lastChange = "2021-04-19 16:42:50 +0000";
layers = (
{
layerId = "7C35F0AE-75E9-4EA7-B446-8B6431835EB7";
paths = (
{
closed = 1;
nodes = (
"249 543 LINE",
"238 716 LINE",
"180 708 LINE",
"194 534 LINE",
"64 509 LINE",
"69 461 LINE",
"198 489 LINE",
"210 320 OFFCURVE",
"224 151 OFFCURVE",
"237 -17 CURVE",
"295 -7 LINE",
"282 162 OFFCURVE",
"266 331 OFFCURVE",
"253 500 CURVE",
"383 524 LINE",
"381 467 OFFCURVE",
"372 403 OFFCURVE",
"350 350 CURVE SMOOTH",
"346 341 OFFCURVE",
"319 288 OFFCURVE",
"319 286 CURVE SMOOTH",
"319 283 OFFCURVE",
"324 281 OFFCURVE",
"326 281 CURVE SMOOTH",
"333 281 OFFCURVE",
"356 303 OFFCURVE",
"361 309 CURVE SMOOTH",
"424 374 OFFCURVE",
"450 496 OFFCURVE",
"450 584 CURVE"
);
}
);
vertWidth = 1000;
width = 500;
},
{
layerId = "C3C75DF7-0318-4740-9DA2-680DF808C9D5";
paths = (
{
closed = 1;
nodes = (
"252 544 LINE",
"241 717 LINE",
"177 708 LINE",
"191 534 LINE",
"61 509 LINE",
"66 459 LINE",
"195 487 LINE",
"207 318 OFFCURVE",
"221 150 OFFCURVE",
"234 -19 CURVE",
"298 -8 LINE",
"285 161 OFFCURVE",
"269 330 OFFCURVE",
"256 499 CURVE",
"380 523 LINE",
"378 466 OFFCURVE",
"369 401 OFFCURVE",
"347 349 CURVE SMOOTH",
"343 341 OFFCURVE",
"316 288 OFFCURVE",
"316 285 CURVE SMOOTH",
"316 282 OFFCURVE",
"324 280 OFFCURVE",
"326 280 CURVE SMOOTH",
"333 280 OFFCURVE",
"358 302 OFFCURVE",
"364 308 CURVE SMOOTH",
"428 371 OFFCURVE",
"453 498 OFFCURVE",
"453 585 CURVE"
);
}
);
vertWidth = 1000;
width = 500;
},
{
layerId = "39409886-7F43-4FCA-9A57-4D4CD31E7C44";
paths = (
{
closed = 1;
nodes = (
"244 551 LINE",
"228 730 LINE",
"164 716 LINE",
"182 538 LINE",
"53 511 LINE",
"58 458 LINE",
"188 488 LINE",
"205 317 OFFCURVE",
"221 147 OFFCURVE",
"240 -24 CURVE",
"304 -10 LINE",
"286 161 OFFCURVE",
"265 332 OFFCURVE",
"249 503 CURVE",
"373 533 LINE",
"373 481 OFFCURVE",
"357 400 OFFCURVE",
"338 352 CURVE SMOOTH",
"333 341 OFFCURVE",
"310 296 OFFCURVE",
"310 289 CURVE SMOOTH",
"310 287 OFFCURVE",
"311 281 OFFCURVE",
"315 281 CURVE SMOOTH",
"325 281 OFFCURVE",
"352 307 OFFCURVE",
"360 315 CURVE SMOOTH",
"423 384 OFFCURVE",
"447 508 OFFCURVE",
"448 598 CURVE"
);
}
);
vertWidth = 1000;
width = 500;
}
);
note = cid00378;
unicode = FF94;
},
{
glyphname = "yu-kata.half";
lastChange = "2021-04-19 16:42:50 +0000";
layers = (
{
layerId = "7C35F0AE-75E9-4EA7-B446-8B6431835EB7";
paths = (
{
closed = 1;
nodes = (
"478 238 OFFCURVE",
"470 278 OFFCURVE",
"444 278 CURVE SMOOTH",
"420 278 OFFCURVE",
"413 240 OFFCURVE",
"413 221 CURVE SMOOTH",
"413 200 OFFCURVE",
"422 169 OFFCURVE",
"448 169 CURVE SMOOTH",
"449 169 LINE",
"445 159 OFFCURVE",
"428 132 OFFCURVE",
"416 132 CURVE SMOOTH",
"327 132 LINE",
"341 158 OFFCURVE",
"345 188 OFFCURVE",
"348 217 CURVE SMOOTH",
"354 271 OFFCURVE",
"356 326 OFFCURVE",
"358 381 CURVE SMOOTH",
"361 460 OFFCURVE",
"364 539 OFFCURVE",
"365 617 CURVE",
"106 617 LINE",
"106 566 LINE",
"305 568 LINE",
"304 453 OFFCURVE",
"300 339 OFFCURVE",
"295 224 CURVE SMOOTH",
"294 198 OFFCURVE",
"293 153 OFFCURVE",
"275 132 CURVE",
"212 132 OFFCURVE",
"148 131 OFFCURVE",
"85 131 CURVE SMOOTH",
"76 131 OFFCURVE",
"67 132 OFFCURVE",
"58 133 CURVE",
"57 113 OFFCURVE",
"57 94 OFFCURVE",
"57 74 CURVE SMOOTH",
"57 72 LINE",
"357 72 LINE SMOOTH",
"415 72 OFFCURVE",
"451 112 OFFCURVE",
"468 164 CURVE SMOOTH",
"473 180 OFFCURVE",
"478 200 OFFCURVE",
"478 218 CURVE SMOOTH"
);
}
);
vertWidth = 1000;
width = 500;
},
{
layerId = "C3C75DF7-0318-4740-9DA2-680DF808C9D5";
paths = (
{
closed = 1;
nodes = (
"481 240 OFFCURVE",
"473 278 OFFCURVE",
"444 278 CURVE SMOOTH",
"417 278 OFFCURVE",
"410 242 OFFCURVE",
"410 221 CURVE SMOOTH",
"410 199 OFFCURVE",
"419 170 OFFCURVE",
"446 169 CURVE",
"442 159 OFFCURVE",
"428 133 OFFCURVE",
"416 133 CURVE SMOOTH",
"331 133 LINE",
"345 159 OFFCURVE",
"348 188 OFFCURVE",
"351 216 CURVE SMOOTH",
"357 271 OFFCURVE",
"359 326 OFFCURVE",
"361 381 CURVE SMOOTH",
"364 460 OFFCURVE",
"367 539 OFFCURVE",
"368 618 CURVE",
"103 618 LINE",
"103 565 LINE",
"302 567 LINE",
"301 453 OFFCURVE",
"297 339 OFFCURVE",
"292 224 CURVE SMOOTH",
"291 208 OFFCURVE",
"291 192 OFFCURVE",
"288 176 CURVE SMOOTH",
"286 161 OFFCURVE",
"283 145 OFFCURVE",
"273 133 CURVE",
"210 133 OFFCURVE",
"148 132 OFFCURVE",
"85 132 CURVE SMOOTH",
"75 132 OFFCURVE",
"65 133 OFFCURVE",
"55 134 CURVE",
"54 114 OFFCURVE",
"54 94 OFFCURVE",
"54 74 CURVE SMOOTH",
"54 71 LINE",
"357 71 LINE SMOOTH",
"417 71 OFFCURVE",
"453 110 OFFCURVE",
"471 164 CURVE SMOOTH",
"477 181 OFFCURVE",
"481 200 OFFCURVE",
"481 218 CURVE SMOOTH"
);
}
);
vertWidth = 1000;
width = 500;
},
{
layerId = "39409886-7F43-4FCA-9A57-4D4CD31E7C44";
paths = (
{
closed = 1;
nodes = (
"482 231 OFFCURVE",
"473 274 OFFCURVE",
"445 274 CURVE SMOOTH",
"423 274 OFFCURVE",
"412 234 OFFCURVE",
"412 217 CURVE SMOOTH",
"412 197 OFFCURVE",
"422 163 OFFCURVE",
"446 160 CURVE",
"441 149 OFFCURVE",
"429 136 OFFCURVE",
"416 136 CURVE SMOOTH",
"312 136 LINE",
"324 162 OFFCURVE",
"329 185 OFFCURVE",
"332 213 CURVE SMOOTH",
"338 268 OFFCURVE",
"341 324 OFFCURVE",
"344 379 CURVE SMOOTH",
"348 457 OFFCURVE",
"354 535 OFFCURVE",
"355 613 CURVE",
"86 613 LINE",
"86 558 LINE",
"282 561 LINE",
"279 448 OFFCURVE",
"273 334 OFFCURVE",
"268 221 CURVE SMOOTH",
"267 196 OFFCURVE",
"265 157 OFFCURVE",
"250 136 CURVE",
"177 136 OFFCURVE",
"104 137 OFFCURVE",
"31 137 CURVE",
"31 66 LINE",
"362 66 LINE SMOOTH",
"424 66 OFFCURVE",
"454 92 OFFCURVE",
"473 151 CURVE SMOOTH",
"479 168 OFFCURVE",
"482 192 OFFCURVE",
"482 210 CURVE SMOOTH"
);
}
);
vertWidth = 1000;
width = 500;
}
);
note = cid00379;
unicode = FF95;
},
{
glyphname = "yo-kata.half";
lastChange = "2021-04-19 16:42:50 +0000";
layers = (
{
layerId = "7C35F0AE-75E9-4EA7-B446-8B6431835EB7";
paths = (
{
closed = 1;
nodes = (
"350 412 OFFCURVE",
"343 443 OFFCURVE",
"320 443 CURVE SMOOTH",
"297 443 OFFCURVE",
"291 411 OFFCURVE",
"290 393 CURVE",
"78 393 LINE",
"78 346 LINE",
"314 346 LINE SMOOTH",
"342 346 OFFCURVE",
"350 370 OFFCURVE",
"350 394 CURVE SMOOTH"
);
},
{
closed = 1;
nodes = (
"426 652 LINE",
"91 652 LINE",
"91 605 LINE",
"367 605 LINE",
"367 199 LINE SMOOTH",
"367 176 OFFCURVE",
"364 105 OFFCURVE",
"332 105 CURVE SMOOTH",
"91 105 LINE",
"91 57 LINE",
"346 57 LINE SMOOTH",
"417 57 OFFCURVE",
"426 147 OFFCURVE",
"426 200 CURVE SMOOTH"
);
}
);
vertWidth = 1000;
width = 500;
},
{
layerId = "C3C75DF7-0318-4740-9DA2-680DF808C9D5";
paths = (
{
closed = 1;
nodes = (
"353 414 OFFCURVE",
"345 444 OFFCURVE",
"320 444 CURVE SMOOTH",
"295 444 OFFCURVE",
"288 414 OFFCURVE",
"287 394 CURVE",
"75 394 LINE",
"75 345 LINE",
"314 345 LINE SMOOTH",
"344 345 OFFCURVE",
"353 367 OFFCURVE",
"353 394 CURVE SMOOTH"
);
},
{
closed = 1;
nodes = (
"429 653 LINE",
"88 653 LINE",
"88 605 LINE",
"364 605 LINE",
"364 199 LINE SMOOTH",
"364 179 OFFCURVE",
"361 105 OFFCURVE",
"332 105 CURVE SMOOTH",
"88 105 LINE",
"88 56 LINE",
"346 56 LINE SMOOTH",
"420 56 OFFCURVE",
"429 144 OFFCURVE",
"429 200 CURVE SMOOTH"
);
}
);
vertWidth = 1000;
width = 500;
},
{
layerId = "39409886-7F43-4FCA-9A57-4D4CD31E7C44";
paths = (
{
closed = 1;
nodes = (
"337 402 OFFCURVE",
"330 439 OFFCURVE",
"309 439 CURVE SMOOTH",
"289 439 OFFCURVE",
"280 403 OFFCURVE",
"279 388 CURVE",
"73 388 LINE",
"73 338 LINE",
"304 338 LINE SMOOTH",
"330 338 OFFCURVE",
"337 366 OFFCURVE",
"337 387 CURVE SMOOTH"
);
},
{
closed = 1;
nodes = (
"421 655 LINE",
"83 655 LINE",
"83 602 LINE",
"353 602 LINE",
"353 195 LINE SMOOTH",
"353 165 OFFCURVE",
"345 102 OFFCURVE",
"303 102 CURVE SMOOTH",
"83 102 LINE",
"83 49 LINE",
"323 49 LINE SMOOTH",
"412 49 OFFCURVE",
"421 146 OFFCURVE",
"421 215 CURVE SMOOTH"
);
}
);
vertWidth = 1000;
width = 500;
}
);
note = cid00380;
unicode = FF96;
},
{
glyphname = "ra-kata.half";
lastChange = "2021-04-19 16:42:50 +0000";
layers = (
{
layerId = "7C35F0AE-75E9-4EA7-B446-8B6431835EB7";
paths = (
{
closed = 1;
nodes = (
"82 488 LINE",
"82 445 LINE",
"360 445 LINE",
"352 309 OFFCURVE",
"307 168 OFFCURVE",
"210 69 CURVE SMOOTH",
"182 41 OFFCURVE",
"155 28 OFFCURVE",
"119 13 CURVE",
"116 11 OFFCURVE",
"114 9 OFFCURVE",
"114 5 CURVE SMOOTH",
"114 -3 OFFCURVE",
"119 -7 OFFCURVE",
"127 -7 CURVE SMOOTH",
"156 -7 OFFCURVE",
"195 8 OFFCURVE",
"220 22 CURVE SMOOTH",
"356 100 OFFCURVE",
"405 272 OFFCURVE",
"421 418 CURVE SMOOTH",
"424 441 OFFCURVE",
"424 465 OFFCURVE",
"426 488 CURVE"
);
},
{
closed = 1;
nodes = (
"392 702 OFFCURVE",
"384 741 OFFCURVE",
"359 741 CURVE SMOOTH",
"334 741 OFFCURVE",
"327 702 OFFCURVE",
"327 683 CURVE SMOOTH",
"327 680 OFFCURVE",
"327 678 OFFCURVE",
"328 675 CURVE",
"109 675 LINE",
"109 630 LINE",
"192 630 OFFCURVE",
"276 629 OFFCURVE",
"359 629 CURVE SMOOTH",
"384 629 OFFCURVE",
"392 663 OFFCURVE",
"392 683 CURVE SMOOTH"
);
}
);
vertWidth = 1000;
width = 500;
},
{
layerId = "C3C75DF7-0318-4740-9DA2-680DF808C9D5";
paths = (
{
closed = 1;
nodes = (
"79 489 LINE",
"79 445 LINE",
"357 445 LINE",
"349 310 OFFCURVE",
"304 167 OFFCURVE",
"207 69 CURVE SMOOTH",
"179 41 OFFCURVE",
"152 30 OFFCURVE",
"116 13 CURVE",
"113 11 OFFCURVE",
"111 9 OFFCURVE",
"111 5 CURVE SMOOTH",
"111 -3 OFFCURVE",
"119 -8 OFFCURVE",
"127 -8 CURVE SMOOTH",
"157 -8 OFFCURVE",
"197 7 OFFCURVE",
"223 22 CURVE SMOOTH",
"359 101 OFFCURVE",
"408 271 OFFCURVE",
"424 418 CURVE SMOOTH",
"427 441 OFFCURVE",
"427 465 OFFCURVE",
"429 489 CURVE"
);
},
{
closed = 1;
nodes = (
"395 705 OFFCURVE",
"387 742 OFFCURVE",
"359 742 CURVE SMOOTH",
"332 742 OFFCURVE",
"324 704 OFFCURVE",
"324 683 CURVE SMOOTH",
"324 680 OFFCURVE",
"324 678 OFFCURVE",
"325 676 CURVE",
"106 676 LINE",
"106 630 LINE",
"190 630 OFFCURVE",
"275 629 OFFCURVE",
"359 629 CURVE SMOOTH",
"386 629 OFFCURVE",
"395 660 OFFCURVE",
"395 683 CURVE SMOOTH"
);
}
);
vertWidth = 1000;
width = 500;
},
{
layerId = "39409886-7F43-4FCA-9A57-4D4CD31E7C44";
paths = (
{
closed = 1;
nodes = (
"73 487 LINE",
"73 441 LINE",
"351 441 LINE",
"343 311 OFFCURVE",
"294 162 OFFCURVE",
"202 67 CURVE SMOOTH",
"171 36 OFFCURVE",
"146 22 OFFCURVE",
"107 3 CURVE SMOOTH",
"104 2 OFFCURVE",
"99 0 OFFCURVE",
"99 -4 CURVE SMOOTH",
"99 -11 OFFCURVE",
"100 -17 OFFCURVE",
"108 -17 CURVE SMOOTH",
"120 -17 OFFCURVE",
"132 -15 OFFCURVE",
"144 -12 CURVE SMOOTH",
"167 -7 OFFCURVE",
"190 -2 OFFCURVE",
"211 10 CURVE SMOOTH",
"352 89 OFFCURVE",
"403 264 OFFCURVE",
"421 414 CURVE SMOOTH",
"424 438 OFFCURVE",
"427 463 OFFCURVE",
"427 487 CURVE"
);
},
{
closed = 1;
nodes = (
"398 709 OFFCURVE",
"390 750 OFFCURVE",
"361 750 CURVE SMOOTH",
"334 750 OFFCURVE",
"327 696 OFFCURVE",
"326 677 CURVE",
"100 677 LINE",
"100 628 LINE",
"364 628 LINE SMOOTH",
"389 628 OFFCURVE",
"398 668 OFFCURVE",
"398 687 CURVE SMOOTH"
);
}
);
vertWidth = 1000;
width = 500;
}
);
note = cid00381;
unicode = FF97;
},
{
glyphname = "ri-kata.half";
lastChange = "2021-04-19 16:42:50 +0000";
layers = (
{
layerId = "7C35F0AE-75E9-4EA7-B446-8B6431835EB7";
paths = (
{
closed = 1;
nodes = (
"383 733 LINE",
"325 733 LINE",
"325 412 LINE SMOOTH",
"325 337 OFFCURVE",
"323 251 OFFCURVE",
"295 181 CURVE SMOOTH",
"271 121 OFFCURVE",
"242 79 OFFCURVE",
"189 41 CURVE SMOOTH",
"176 32 OFFCURVE",
"161 24 OFFCURVE",
"148 15 CURVE SMOOTH",
"144 12 OFFCURVE",
"142 9 OFFCURVE",
"142 4 CURVE SMOOTH",
"142 -1 OFFCURVE",
"148 -2 OFFCURVE",
"152 -2 CURVE SMOOTH",
"167 -2 OFFCURVE",
"215 18 OFFCURVE",
"229 26 CURVE SMOOTH",
"365 107 OFFCURVE",
"383 252 OFFCURVE",
"383 397 CURVE SMOOTH"
);
},
{
closed = 1;
nodes = (
"238 409 LINE",
"231 410 OFFCURVE",
"212 388 OFFCURVE",
"190 388 CURVE SMOOTH",
"181 388 OFFCURVE",
"180 397 OFFCURVE",
"180 404 CURVE SMOOTH",
"180 697 LINE",
"125 697 LINE",
"125 392 LINE SMOOTH",
"125 366 OFFCURVE",
"126 333 OFFCURVE",
"161 333 CURVE SMOOTH",
"199 333 OFFCURVE",
"226 371 OFFCURVE",
"241 402 CURVE",
"242 403 OFFCURVE",
"242 405 OFFCURVE",
"242 407 CURVE"
);
}
);
vertWidth = 1000;
width = 500;
},
{
layerId = "C3C75DF7-0318-4740-9DA2-680DF808C9D5";
paths = (
{
closed = 1;
nodes = (
"386 734 LINE",
"322 734 LINE",
"322 412 LINE SMOOTH",
"322 336 OFFCURVE",
"320 252 OFFCURVE",
"292 181 CURVE SMOOTH",
"269 122 OFFCURVE",
"238 78 OFFCURVE",
"186 42 CURVE SMOOTH",
"173 32 OFFCURVE",
"158 24 OFFCURVE",
"145 15 CURVE",
"142 12 OFFCURVE",
"139 9 OFFCURVE",
"139 4 CURVE SMOOTH",
"139 -2 OFFCURVE",
"148 -3 OFFCURVE",
"152 -3 CURVE SMOOTH",
"169 -3 OFFCURVE",
"216 17 OFFCURVE",
"232 26 CURVE SMOOTH",
"368 108 OFFCURVE",
"386 251 OFFCURVE",
"386 397 CURVE SMOOTH"
);
},
{
closed = 1;
nodes = (
"240 410 LINE",
"225 410 OFFCURVE",
"211 389 OFFCURVE",
"190 389 CURVE SMOOTH",
"184 389 OFFCURVE",
"183 393 OFFCURVE",
"183 399 CURVE SMOOTH",
"183 498 OFFCURVE",
"183 598 OFFCURVE",
"183 698 CURVE",
"122 698 LINE",
"122 392 LINE SMOOTH",
"122 363 OFFCURVE",
"124 332 OFFCURVE",
"161 332 CURVE SMOOTH",
"200 332 OFFCURVE",
"229 369 OFFCURVE",
"244 402 CURVE",
"245 403 OFFCURVE",
"245 405 OFFCURVE",
"245 407 CURVE"
);
}
);
vertWidth = 1000;
width = 500;
},
{
layerId = "39409886-7F43-4FCA-9A57-4D4CD31E7C44";
paths = (
{
closed = 1;
nodes = (
"384 719 LINE",
"318 719 LINE",
"318 393 LINE SMOOTH",
"318 319 OFFCURVE",
"316 228 OFFCURVE",
"289 159 CURVE SMOOTH",
"267 106 OFFCURVE",
"227 53 OFFCURVE",
"182 19 CURVE SMOOTH",
"170 11 OFFCURVE",
"160 4 OFFCURVE",
"148 -2 CURVE SMOOTH",
"145 -3 OFFCURVE",
"141 -5 OFFCURVE",
"139 -7 CURVE SMOOTH",
"136 -9 OFFCURVE",
"134 -13 OFFCURVE",
"134 -17 CURVE SMOOTH",
"134 -22 OFFCURVE",
"135 -26 OFFCURVE",
"141 -26 CURVE SMOOTH",
"195 -26 OFFCURVE",
"269 26 OFFCURVE",
"303 66 CURVE SMOOTH",
"372 150 OFFCURVE",
"384 273 OFFCURVE",
"384 378 CURVE SMOOTH"
);
},
{
closed = 1;
nodes = (
"243 393 OFFCURVE",
"241 396 OFFCURVE",
"240 396 CURVE SMOOTH",
"234 396 OFFCURVE",
"208 370 OFFCURVE",
"191 370 CURVE SMOOTH",
"177 370 OFFCURVE",
"179 400 OFFCURVE",
"179 409 CURVE SMOOTH",
"179 683 LINE",
"117 683 LINE",
"117 380 LINE SMOOTH",
"117 351 OFFCURVE",
"120 310 OFFCURVE",
"158 310 CURVE SMOOTH",
"192 310 OFFCURVE",
"227 349 OFFCURVE",
"239 379 CURVE SMOOTH",
"240 383 OFFCURVE",
"243 388 OFFCURVE",
"243 392 CURVE SMOOTH"
);
}
);
vertWidth = 1000;
width = 500;
}
);
note = cid00382;
unicode = FF98;
},
{
glyphname = "ru-kata.half";
lastChange = "2021-04-19 16:42:50 +0000";
layers = (
{
layerId = "7C35F0AE-75E9-4EA7-B446-8B6431835EB7";
paths = (
{
closed = 1;
nodes = (
"149 605 LINE",
"147 457 OFFCURVE",
"148 307 OFFCURVE",
"112 162 CURVE SMOOTH",
"101 118 OFFCURVE",
"85 76 OFFCURVE",
"64 36 CURVE SMOOTH",
"62 32 OFFCURVE",
"59 28 OFFCURVE",
"59 23 CURVE SMOOTH",
"59 19 OFFCURVE",
"63 16 OFFCURVE",
"67 16 CURVE SMOOTH",
"69 16 OFFCURVE",
"72 16 OFFCURVE",
"74 18 CURVE SMOOTH",
"194 145 OFFCURVE",
"208 437 OFFCURVE",
"209 605 CURVE"
);
},
{
closed = 1;
nodes = (
"493 480 OFFCURVE",
"490 491 OFFCURVE",
"484 491 CURVE SMOOTH",
"471 491 OFFCURVE",
"466 447 OFFCURVE",
"464 438 CURVE SMOOTH",
"445 347 OFFCURVE",
"394 208 OFFCURVE",
"310 159 CURVE",
"312 681 LINE",
"256 681 LINE",
"256 47 LINE",
"378 62 OFFCURVE",
"446 233 OFFCURVE",
"471 337 CURVE SMOOTH",
"482 382 OFFCURVE",
"493 429 OFFCURVE",
"493 475 CURVE SMOOTH"
);
}
);
vertWidth = 1000;
width = 500;
},
{
layerId = "C3C75DF7-0318-4740-9DA2-680DF808C9D5";
paths = (
{
closed = 1;
nodes = (
"146 606 LINE",
"144 458 OFFCURVE",
"145 307 OFFCURVE",
"109 162 CURVE SMOOTH",
"98 118 OFFCURVE",
"82 76 OFFCURVE",
"61 36 CURVE SMOOTH",
"59 32 OFFCURVE",
"56 28 OFFCURVE",
"56 23 CURVE SMOOTH",
"56 18 OFFCURVE",
"63 15 OFFCURVE",
"67 15 CURVE SMOOTH",
"70 15 OFFCURVE",
"75 16 OFFCURVE",
"77 18 CURVE SMOOTH",
"197 146 OFFCURVE",
"211 437 OFFCURVE",
"212 606 CURVE"
);
},
{
closed = 1;
nodes = (
"496 480 OFFCURVE",
"490 492 OFFCURVE",
"484 492 CURVE SMOOTH",
"468 492 OFFCURVE",
"463 449 OFFCURVE",
"461 438 CURVE SMOOTH",
"443 348 OFFCURVE",
"392 214 OFFCURVE",
"313 163 CURVE",
"315 682 LINE",
"253 682 LINE",
"253 46 LINE",
"380 62 OFFCURVE",
"447 229 OFFCURVE",
"474 337 CURVE SMOOTH",
"485 382 OFFCURVE",
"496 429 OFFCURVE",
"496 475 CURVE SMOOTH"
);
}
);
vertWidth = 1000;
width = 500;
},
{
layerId = "39409886-7F43-4FCA-9A57-4D4CD31E7C44";
paths = (
{
closed = 1;
nodes = (
"136 602 LINE",
"134 451 OFFCURVE",
"135 300 OFFCURVE",
"98 152 CURVE SMOOTH",
"87 106 OFFCURVE",
"70 66 OFFCURVE",
"48 25 CURVE SMOOTH",
"46 22 OFFCURVE",
"43 16 OFFCURVE",
"43 12 CURVE SMOOTH",
"43 8 OFFCURVE",
"44 4 OFFCURVE",
"49 4 CURVE SMOOTH",
"53 4 OFFCURVE",
"68 18 OFFCURVE",
"71 21 CURVE SMOOTH",
"192 143 OFFCURVE",
"202 432 OFFCURVE",
"203 595 CURVE"
);
},
{
closed = 1;
nodes = (
"482 474 OFFCURVE",
"481 488 OFFCURVE",
"478 488 CURVE SMOOTH",
"471 488 OFFCURVE",
"468 481 OFFCURVE",
"466 475 CURVE SMOOTH",
"457 442 OFFCURVE",
"456 410 OFFCURVE",
"444 375 CURVE SMOOTH",
"421 306 OFFCURVE",
"365 196 OFFCURVE",
"304 154 CURVE",
"306 679 LINE",
"243 679 LINE",
"243 34 LINE",
"323 44 OFFCURVE",
"386 126 OFFCURVE",
"420 193 CURVE SMOOTH",
"457 266 OFFCURVE",
"482 389 OFFCURVE",
"482 471 CURVE SMOOTH"
);
}
);
vertWidth = 1000;
width = 500;
}
);
note = cid00383;
unicode = FF99;
},
{
glyphname = "re-kata.half";
lastChange = "2021-04-19 16:42:50 +0000";
layers = (
{
layerId = "7C35F0AE-75E9-4EA7-B446-8B6431835EB7";
paths = (
{
closed = 1;
nodes = (
"478 517 OFFCURVE",
"475 524 OFFCURVE",
"471 524 CURVE SMOOTH",
"466 524 OFFCURVE",
"461 517 OFFCURVE",
"459 513 CURVE SMOOTH",
"444 481 OFFCURVE",
"435 447 OFFCURVE",
"420 415 CURVE SMOOTH",
"381 331 OFFCURVE",
"286 167 OFFCURVE",
"195 135 CURVE",
"195 666 LINE",
"139 666 LINE",
"139 41 LINE",
"212 45 OFFCURVE",
"278 87 OFFCURVE",
"326 140 CURVE SMOOTH",
"414 238 OFFCURVE",
"449 372 OFFCURVE",
"475 497 CURVE SMOOTH",
"476 503 OFFCURVE",
"478 508 OFFCURVE",
"478 514 CURVE SMOOTH"
);
}
);
vertWidth = 1000;
width = 500;
},
{
layerId = "C3C75DF7-0318-4740-9DA2-680DF808C9D5";
paths = (
{
closed = 1;
nodes = (
"481 518 OFFCURVE",
"475 525 OFFCURVE",
"471 525 CURVE SMOOTH",
"465 525 OFFCURVE",
"459 517 OFFCURVE",
"456 513 CURVE",
"440 482 OFFCURVE",
"432 447 OFFCURVE",
"417 415 CURVE SMOOTH",
"378 331 OFFCURVE",
"285 173 OFFCURVE",
"198 137 CURVE",
"198 666 LINE",
"136 666 LINE",
"136 40 LINE",
"212 44 OFFCURVE",
"279 84 OFFCURVE",
"329 140 CURVE SMOOTH",
"418 239 OFFCURVE",
"450 370 OFFCURVE",
"478 497 CURVE SMOOTH",
"479 502 OFFCURVE",
"481 508 OFFCURVE",
"481 514 CURVE SMOOTH"
);
}
);
vertWidth = 1000;
width = 500;
},
{
layerId = "39409886-7F43-4FCA-9A57-4D4CD31E7C44";
paths = (
{
closed = 1;
nodes = (
"478 520 OFFCURVE",
"478 530 OFFCURVE",
"474 530 CURVE SMOOTH",
"469 530 OFFCURVE",
"467 526 OFFCURVE",
"465 522 CURVE SMOOTH",
"449 487 OFFCURVE",
"437 449 OFFCURVE",
"421 414 CURVE SMOOTH",
"381 328 OFFCURVE",
"285 174 OFFCURVE",
"194 138 CURVE",
"194 668 LINE",
"131 668 LINE",
"131 33 LINE",
"350 33 OFFCURVE",
"444 322 OFFCURVE",
"476 495 CURVE SMOOTH",
"477 503 OFFCURVE",
"478 510 OFFCURVE",
"478 518 CURVE SMOOTH"
);
}
);
vertWidth = 1000;
width = 500;
}
);
note = cid00384;
unicode = FF9A;
},
{
glyphname = "ro-kata.half";
lastChange = "2021-04-19 16:42:50 +0000";
layers = (
{
layerId = "7C35F0AE-75E9-4EA7-B446-8B6431835EB7";
paths = (
{
closed = 1;
nodes = (
"369 581 LINE",
"368 469 OFFCURVE",
"367 356 OFFCURVE",
"367 244 CURVE SMOOTH",
"367 213 OFFCURVE",
"357 126 OFFCURVE",
"313 126 CURVE SMOOTH",
"150 126 LINE",
"149 581 LINE"
);
},
{
closed = 1;
nodes = (
"94 627 LINE",
"97 76 LINE",
"319 76 LINE SMOOTH",
"380 76 OFFCURVE",
"405 128 OFFCURVE",
"416 181 CURVE SMOOTH",
"424 219 OFFCURVE",
"422 259 OFFCURVE",
"423 298 CURVE SMOOTH",
"425 408 OFFCURVE",
"426 518 OFFCURVE",
"426 627 CURVE"
);
}
);
vertWidth = 1000;
width = 500;
},
{
layerId = "C3C75DF7-0318-4740-9DA2-680DF808C9D5";
paths = (
{
closed = 1;
nodes = (
"366 580 LINE",
"365 468 OFFCURVE",
"364 356 OFFCURVE",
"364 244 CURVE SMOOTH",
"364 215 OFFCURVE",
"354 127 OFFCURVE",
"313 127 CURVE SMOOTH",
"153 127 LINE",
"152 580 LINE"
);
},
{
closed = 1;
nodes = (
"91 628 LINE",
"94 75 LINE",
"319 75 LINE SMOOTH",
"382 75 OFFCURVE",
"408 126 OFFCURVE",
"419 181 CURVE SMOOTH",
"427 219 OFFCURVE",
"425 259 OFFCURVE",
"426 298 CURVE SMOOTH",
"427 408 OFFCURVE",
"429 518 OFFCURVE",
"429 628 CURVE"
);
}
);
vertWidth = 1000;
width = 500;
},
{
layerId = "39409886-7F43-4FCA-9A57-4D4CD31E7C44";
paths = (
{
closed = 1;
nodes = (
"356 579 LINE",
"355 466 OFFCURVE",
"354 354 OFFCURVE",
"354 241 CURVE SMOOTH",
"354 213 OFFCURVE",
"343 123 OFFCURVE",
"303 123 CURVE SMOOTH",
"143 123 LINE",
"142 579 LINE"
);
},
{
closed = 1;
nodes = (
"79 629 LINE",
"83 70 LINE",
"308 70 LINE SMOOTH",
"371 70 OFFCURVE",
"399 120 OFFCURVE",
"410 176 CURVE SMOOTH",
"418 215 OFFCURVE",
"415 256 OFFCURVE",
"416 296 CURVE SMOOTH",
"419 407 OFFCURVE",
"421 518 OFFCURVE",
"421 629 CURVE"
);
}
);
vertWidth = 1000;
width = 500;
}
);
note = cid00385;
unicode = FF9B;
},
{
glyphname = "wa-kata.half";
lastChange = "2021-04-19 16:42:50 +0000";
layers = (
{
layerId = "7C35F0AE-75E9-4EA7-B446-8B6431835EB7";
paths = (
{
closed = 1;
nodes = (
"100 643 LINE",
"104 393 LINE",
"159 393 LINE",
"155 600 LINE",
"368 600 LINE",
"362 427 OFFCURVE",
"329 213 OFFCURVE",
"202 85 CURVE SMOOTH",
"183 66 OFFCURVE",
"162 50 OFFCURVE",
"139 34 CURVE SMOOTH",
"136 32 OFFCURVE",
"132 30 OFFCURVE",
"132 25 CURVE SMOOTH",
"132 20 OFFCURVE",
"137 20 OFFCURVE",
"141 20 CURVE SMOOTH",
"165 20 OFFCURVE",
"187 29 OFFCURVE",
"207 40 CURVE SMOOTH",
"384 141 OFFCURVE",
"432 458 OFFCURVE",
"434 643 CURVE"
);
}
);
vertWidth = 1000;
width = 500;
},
{
layerId = "C3C75DF7-0318-4740-9DA2-680DF808C9D5";
paths = (
{
closed = 1;
nodes = (
"97 644 LINE",
"101 393 LINE",
"162 393 LINE",
"158 600 LINE",
"365 600 LINE",
"359 426 OFFCURVE",
"326 214 OFFCURVE",
"199 85 CURVE SMOOTH",
"180 66 OFFCURVE",
"158 50 OFFCURVE",
"136 35 CURVE",
"133 32 OFFCURVE",
"129 30 OFFCURVE",
"129 25 CURVE SMOOTH",
"129 19 OFFCURVE",
"137 19 OFFCURVE",
"141 19 CURVE SMOOTH",
"165 19 OFFCURVE",
"189 28 OFFCURVE",
"210 40 CURVE SMOOTH",
"388 143 OFFCURVE",
"435 455 OFFCURVE",
"437 644 CURVE"
);
}
);
vertWidth = 1000;
width = 500;
},
{
layerId = "39409886-7F43-4FCA-9A57-4D4CD31E7C44";
paths = (
{
closed = 1;
nodes = (
"94 646 LINE",
"99 391 LINE",
"161 391 LINE",
"157 600 LINE",
"365 600 LINE",
"358 426 OFFCURVE",
"325 212 OFFCURVE",
"199 82 CURVE SMOOTH",
"180 62 OFFCURVE",
"159 44 OFFCURVE",
"135 30 CURVE SMOOTH",
"131 27 OFFCURVE",
"127 26 OFFCURVE",
"127 20 CURVE SMOOTH",
"127 14 OFFCURVE",
"135 13 OFFCURVE",
"139 13 CURVE SMOOTH",
"164 13 OFFCURVE",
"187 22 OFFCURVE",
"208 34 CURVE SMOOTH",
"390 136 OFFCURVE",
"435 458 OFFCURVE",
"438 646 CURVE"
);
}
);
vertWidth = 1000;
width = 500;
}
);
note = cid00386;
unicode = FF9C;
},
{
glyphname = "n-kata.half";
lastChange = "2021-04-19 16:42:50 +0000";
layers = (
{
layerId = "7C35F0AE-75E9-4EA7-B446-8B6431835EB7";
paths = (
{
closed = 1;
nodes = (
"432 549 OFFCURVE",
"429 558 OFFCURVE",
"423 558 CURVE SMOOTH",
"418 558 OFFCURVE",
"414 553 OFFCURVE",
"413 548 CURVE SMOOTH",
"408 531 OFFCURVE",
"406 513 OFFCURVE",
"402 496 CURVE SMOOTH",
"397 475 OFFCURVE",
"392 454 OFFCURVE",
"385 433 CURVE SMOOTH",
"358 346 OFFCURVE",
"318 267 OFFCURVE",
"256 200 CURVE SMOOTH",
"214 154 OFFCURVE",
"148 111 OFFCURVE",
"88 96 CURVE",
"112 9 LINE",
"269 55 OFFCURVE",
"353 204 OFFCURVE",
"396 351 CURVE SMOOTH",
"411 400 OFFCURVE",
"432 494 OFFCURVE",
"432 544 CURVE SMOOTH"
);
},
{
closed = 1;
nodes = (
"255 540 OFFCURVE",
"254 546 OFFCURVE",
"252 551 CURVE SMOOTH",
"233 608 OFFCURVE",
"191 650 OFFCURVE",
"136 672 CURVE",
"132 660 OFFCURVE",
"110 593 OFFCURVE",
"110 587 CURVE SMOOTH",
"110 578 OFFCURVE",
"128 577 OFFCURVE",
"135 576 CURVE SMOOTH",
"144 574 OFFCURVE",
"152 571 OFFCURVE",
"160 567 CURVE SMOOTH",
"176 559 OFFCURVE",
"233 519 OFFCURVE",
"243 519 CURVE SMOOTH",
"250 519 OFFCURVE",
"255 528 OFFCURVE",
"255 534 CURVE SMOOTH"
);
}
);
vertWidth = 1000;
width = 500;
},
{
layerId = "C3C75DF7-0318-4740-9DA2-680DF808C9D5";
paths = (
{
closed = 1;
nodes = (
"435 550 OFFCURVE",
"429 559 OFFCURVE",
"423 559 CURVE SMOOTH",
"417 559 OFFCURVE",
"412 554 OFFCURVE",
"410 549 CURVE SMOOTH",
"404 533 OFFCURVE",
"403 514 OFFCURVE",
"399 497 CURVE SMOOTH",
"394 476 OFFCURVE",
"389 454 OFFCURVE",
"382 433 CURVE SMOOTH",
"355 348 OFFCURVE",
"315 266 OFFCURVE",
"253 200 CURVE SMOOTH",
"210 155 OFFCURVE",
"146 112 OFFCURVE",
"85 97 CURVE",
"110 7 LINE",
"270 55 OFFCURVE",
"354 201 OFFCURVE",
"399 352 CURVE SMOOTH",
"414 403 OFFCURVE",
"435 492 OFFCURVE",
"435 545 CURVE SMOOTH"
);
},
{
closed = 1;
nodes = (
"258 541 OFFCURVE",
"257 546 OFFCURVE",
"255 552 CURVE SMOOTH",
"235 611 OFFCURVE",
"191 653 OFFCURVE",
"133 675 CURVE",
"129 662 OFFCURVE",
"107 596 OFFCURVE",
"107 588 CURVE SMOOTH",
"107 578 OFFCURVE",
"126 577 OFFCURVE",
"133 576 CURVE SMOOTH",
"167 570 OFFCURVE",
"223 519 OFFCURVE",
"243 519 CURVE SMOOTH",
"250 519 OFFCURVE",
"258 528 OFFCURVE",
"258 535 CURVE SMOOTH"
);
}
);
vertWidth = 1000;
width = 500;
},
{
layerId = "39409886-7F43-4FCA-9A57-4D4CD31E7C44";
paths = (
{
closed = 1;
nodes = (
"438 561 OFFCURVE",
"435 567 OFFCURVE",
"432 567 CURVE SMOOTH",
"428 567 OFFCURVE",
"427 560 OFFCURVE",
"426 558 CURVE",
"404 483 OFFCURVE",
"381 410 OFFCURVE",
"346 340 CURVE SMOOTH",
"292 232 OFFCURVE",
"201 129 OFFCURVE",
"81 95 CURVE",
"114 -5 LINE",
"279 40 OFFCURVE",
"366 212 OFFCURVE",
"407 364 CURVE SMOOTH",
"421 416 OFFCURVE",
"438 505 OFFCURVE",
"438 558 CURVE SMOOTH"
);
},
{
closed = 1;
nodes = (
"247 578 OFFCURVE",
"195 646 OFFCURVE",
"161 670 CURVE SMOOTH",
"156 673 OFFCURVE",
"139 685 OFFCURVE",
"134 685 CURVE SMOOTH",
"131 685 OFFCURVE",
"130 680 OFFCURVE",
"129 678 CURVE SMOOTH",
"126 670 OFFCURVE",
"101 589 OFFCURVE",
"101 587 CURVE SMOOTH",
"101 585 OFFCURVE",
"101 583 OFFCURVE",
"103 582 CURVE SMOOTH",
"119 577 OFFCURVE",
"135 572 OFFCURVE",
"150 566 CURVE SMOOTH",
"176 555 OFFCURVE",
"213 539 OFFCURVE",
"236 524 CURVE SMOOTH",
"238 523 OFFCURVE",
"238 522 OFFCURVE",
"240 522 CURVE SMOOTH",
"246 522 OFFCURVE",
"247 532 OFFCURVE",
"247 536 CURVE SMOOTH"
);
}
);
vertWidth = 1000;
width = 500;
}
);
note = cid00387;
unicode = FF9D;
},
{
glyphname = "voiced-kana.half";
lastChange = "2021-04-19 16:42:50 +0000";
layers = (
{
layerId = "7C35F0AE-75E9-4EA7-B446-8B6431835EB7";
paths = (
{
closed = 1;
nodes = (
"236 817 OFFCURVE",
"233 821 OFFCURVE",
"230 821 CURVE SMOOTH",
"219 821 OFFCURVE",
"201 820 OFFCURVE",
"192 817 CURVE SMOOTH",
"190 816 OFFCURVE",
"189 815 OFFCURVE",
"189 811 CURVE SMOOTH",
"189 793 OFFCURVE",
"190 764 OFFCURVE",
"192 747 CURVE SMOOTH",
"193 725 OFFCURVE",
"192 701 OFFCURVE",
"196 681 CURVE",
"196 675 OFFCURVE",
"199 671 OFFCURVE",
"203 671 CURVE SMOOTH",
"206 671 OFFCURVE",
"207 674 OFFCURVE",
"210 677 CURVE",
"218 690 OFFCURVE",
"236 786 OFFCURVE",
"236 810 CURVE SMOOTH"
);
},
{
closed = 1;
nodes = (
"312 820 OFFCURVE",
"309 824 OFFCURVE",
"306 824 CURVE SMOOTH",
"293 824 OFFCURVE",
"279 822 OFFCURVE",
"268 820 CURVE",
"266 819 OFFCURVE",
"265 819 OFFCURVE",
"265 814 CURVE SMOOTH",
"265 803 OFFCURVE",
"267 690 OFFCURVE",
"269 683 CURVE",
"269 677 OFFCURVE",
"272 673 OFFCURVE",
"275 673 CURVE SMOOTH",
"278 673 OFFCURVE",
"280 676 OFFCURVE",
"283 679 CURVE",
"291 691 OFFCURVE",
"312 790 OFFCURVE",
"312 813 CURVE SMOOTH"
);
}
);
vertWidth = 1000;
width = 500;
},
{
layerId = "C3C75DF7-0318-4740-9DA2-680DF808C9D5";
paths = (
{
closed = 1;
nodes = (
"237 820 OFFCURVE",
"234 824 OFFCURVE",
"231 824 CURVE SMOOTH",
"220 824 OFFCURVE",
"200 823 OFFCURVE",
"191 820 CURVE SMOOTH",
"189 819 OFFCURVE",
"188 818 OFFCURVE",
"188 814 CURVE SMOOTH",
"188 796 OFFCURVE",
"189 767 OFFCURVE",
"191 750 CURVE SMOOTH",
"192 728 OFFCURVE",
"193 704 OFFCURVE",
"197 684 CURVE",
"197 678 OFFCURVE",
"200 674 OFFCURVE",
"204 674 CURVE SMOOTH",
"207 674 OFFCURVE",
"208 677 OFFCURVE",
"211 680 CURVE",
"219 693 OFFCURVE",
"237 789 OFFCURVE",
"237 813 CURVE SMOOTH"
);
},
{
closed = 1;
nodes = (
"313 816 OFFCURVE",
"310 827 OFFCURVE",
"307 827 CURVE SMOOTH",
"294 827 OFFCURVE",
"278 825 OFFCURVE",
"267 823 CURVE",
"265 822 OFFCURVE",
"264 822 OFFCURVE",
"264 817 CURVE SMOOTH",
"264 806 OFFCURVE",
"268 693 OFFCURVE",
"270 686 CURVE",
"270 680 OFFCURVE",
"273 676 OFFCURVE",
"276 676 CURVE SMOOTH",
"279 676 OFFCURVE",
"281 679 OFFCURVE",
"284 682 CURVE",
"292 694 OFFCURVE",
"313 793 OFFCURVE",
"313 816 CURVE"
);
}
);
vertWidth = 1000;
width = 500;
},
{
layerId = "39409886-7F43-4FCA-9A57-4D4CD31E7C44";
paths = (
{
closed = 1;
nodes = (
"242 816 OFFCURVE",
"240 824 OFFCURVE",
"236 824 CURVE SMOOTH",
"227 824 OFFCURVE",
"202 823 OFFCURVE",
"196 820 CURVE SMOOTH",
"193 819 OFFCURVE",
"193 817 OFFCURVE",
"193 814 CURVE SMOOTH",
"193 779 OFFCURVE",
"195 717 OFFCURVE",
"202 684 CURVE",
"202 680 OFFCURVE",
"203 674 OFFCURVE",
"209 674 CURVE SMOOTH",
"224 674 OFFCURVE",
"242 793 OFFCURVE",
"242 813 CURVE SMOOTH"
);
},
{
closed = 1;
nodes = (
"308 819 OFFCURVE",
"306 827 OFFCURVE",
"302 827 CURVE SMOOTH",
"289 827 OFFCURVE",
"273 827 OFFCURVE",
"262 823 CURVE SMOOTH",
"259 822 OFFCURVE",
"259 820 OFFCURVE",
"259 817 CURVE SMOOTH",
"259 790 OFFCURVE",
"261 762 OFFCURVE",
"262 735 CURVE SMOOTH",
"262 720 OFFCURVE",
"261 701 OFFCURVE",
"265 686 CURVE",
"265 683 OFFCURVE",
"266 676 OFFCURVE",
"271 676 CURVE SMOOTH",
"288 676 OFFCURVE",
"308 797 OFFCURVE",
"308 816 CURVE SMOOTH"
);
}
);
vertWidth = 1000;
width = 500;
}
);
note = cid00388;
unicode = FF9E;
},
{
glyphname = "semivoiced-kana.half";
lastChange = "2021-04-19 16:42:50 +0000";
layers = (
{
layerId = "7C35F0AE-75E9-4EA7-B446-8B6431835EB7";
paths = (
{
closed = 1;
nodes = (
"307 738 OFFCURVE",
"282 715 OFFCURVE",
"250 715 CURVE SMOOTH",
"218 715 OFFCURVE",
"193 738 OFFCURVE",
"193 770 CURVE SMOOTH",
"193 802 OFFCURVE",
"218 829 OFFCURVE",
"250 829 CURVE SMOOTH",
"282 829 OFFCURVE",
"307 802 OFFCURVE",
"307 770 CURVE SMOOTH"
);
},
{
closed = 1;
nodes = (
"330 814 OFFCURVE",
"292 850 OFFCURVE",
"248 850 CURVE SMOOTH",
"204 850 OFFCURVE",
"170 814 OFFCURVE",
"170 770 CURVE SMOOTH",
"170 726 OFFCURVE",
"204 690 OFFCURVE",
"248 690 CURVE SMOOTH",
"292 690 OFFCURVE",
"330 726 OFFCURVE",
"330 770 CURVE SMOOTH"
);
}
);
vertWidth = 1000;
width = 500;
},
{
layerId = "C3C75DF7-0318-4740-9DA2-680DF808C9D5";
paths = (
{
closed = 1;
nodes = (
"304 738 OFFCURVE",
"279 715 OFFCURVE",
"248 715 CURVE SMOOTH",
"217 715 OFFCURVE",
"192 738 OFFCURVE",
"192 769 CURVE SMOOTH",
"192 800 OFFCURVE",
"217 827 OFFCURVE",
"248 827 CURVE SMOOTH",
"279 827 OFFCURVE",
"304 800 OFFCURVE",
"304 769 CURVE SMOOTH"
);
},
{
closed = 1;
nodes = (
"331 814 OFFCURVE",
"293 850 OFFCURVE",
"248 850 CURVE SMOOTH",
"203 850 OFFCURVE",
"169 814 OFFCURVE",
"169 769 CURVE SMOOTH",
"169 724 OFFCURVE",
"203 688 OFFCURVE",
"248 688 CURVE SMOOTH",
"293 688 OFFCURVE",
"331 724 OFFCURVE",
"331 769 CURVE SMOOTH"
);
}
);
vertWidth = 1000;
width = 500;
},
{
layerId = "39409886-7F43-4FCA-9A57-4D4CD31E7C44";
paths = (
{
closed = 1;
nodes = (
"304 738 OFFCURVE",
"279 715 OFFCURVE",
"248 715 CURVE SMOOTH",
"217 715 OFFCURVE",
"192 738 OFFCURVE",
"192 769 CURVE SMOOTH",
"192 800 OFFCURVE",
"217 827 OFFCURVE",
"248 827 CURVE SMOOTH",
"279 827 OFFCURVE",
"304 800 OFFCURVE",
"304 769 CURVE SMOOTH"
);
},
{
closed = 1;
nodes = (
"334 816 OFFCURVE",
"294 853 OFFCURVE",
"248 853 CURVE SMOOTH",
"201 853 OFFCURVE",
"166 815 OFFCURVE",
"166 769 CURVE SMOOTH",
"166 723 OFFCURVE",
"201 685 OFFCURVE",
"248 685 CURVE SMOOTH",
"294 685 OFFCURVE",
"334 722 OFFCURVE",
"334 769 CURVE SMOOTH"
);
}
);
vertWidth = 1000;
width = 500;
}
);
note = cid00389;
unicode = FF9F;
},
{
glyphname = grave.half;
lastChange = "2021-04-19 16:42:50 +0000";
layers = (
{
layerId = "7C35F0AE-75E9-4EA7-B446-8B6431835EB7";
paths = (
{
closed = 1;
nodes = (
"157 869 LINE",
"133 811 LINE",
"358 763 LINE",
"367 798 LINE"
);
}
);
vertWidth = 1000;
width = 500;
},
{
layerId = "C3C75DF7-0318-4740-9DA2-680DF808C9D5";
paths = (
{
closed = 1;
nodes = (
"117 871 LINE",
"92 812 LINE",
"323 763 LINE",
"333 799 LINE"
);
}
);
vertWidth = 1000;
width = 500;
},
{
layerId = "39409886-7F43-4FCA-9A57-4D4CD31E7C44";
paths = (
{
closed = 1;
nodes = (
"157 842 LINE",
"142 776 LINE",
"396 714 LINE",
"408 746 LINE"
);
}
);
vertWidth = 1000;
width = 500;
}
);
note = cid00390;
},
{
glyphname = "wi-kata.half";
lastChange = "2021-04-19 16:42:50 +0000";
layers = (
{
layerId = "7C35F0AE-75E9-4EA7-B446-8B6431835EB7";
paths = (
{
closed = 1;
nodes = (
"184 332 LINE",
"184 540 LINE",
"255 540 LINE",
"255 332 LINE"
);
},
{
closed = 1;
nodes = (
"466 355 OFFCURVE",
"458 390 OFFCURVE",
"435 390 CURVE SMOOTH",
"410 390 OFFCURVE",
"406 350 OFFCURVE",
"406 332 CURVE",
"309 332 LINE",
"309 540 LINE",
"406 540 LINE SMOOTH",
"431 540 OFFCURVE",
"437 568 OFFCURVE",
"437 588 CURVE SMOOTH",
"437 605 OFFCURVE",
"430 640 OFFCURVE",
"408 640 CURVE SMOOTH",
"385 640 OFFCURVE",
"378 603 OFFCURVE",
"378 586 CURVE",
"309 586 LINE",
"309 739 LINE",
"255 739 LINE",
"255 586 LINE",
"81 586 LINE",
"81 540 LINE",
"130 540 LINE",
"130 332 LINE",
"52 332 LINE",
"52 287 LINE",
"255 287 LINE",
"255 7 LINE",
"309 7 LINE",
"309 287 LINE",
"436 287 LINE SMOOTH",
"460 287 OFFCURVE",
"466 319 OFFCURVE",
"466 337 CURVE SMOOTH"
);
}
);
vertWidth = 1000;
width = 500;
},
{
layerId = "C3C75DF7-0318-4740-9DA2-680DF808C9D5";
paths = (
{
closed = 1;
nodes = (
"187 332 LINE",
"187 539 LINE",
"252 539 LINE",
"252 332 LINE"
);
},
{
closed = 1;
nodes = (
"469 358 OFFCURVE",
"461 391 OFFCURVE",
"435 391 CURVE SMOOTH",
"407 391 OFFCURVE",
"403 353 OFFCURVE",
"403 332 CURVE",
"312 332 LINE",
"312 539 LINE",
"406 539 LINE SMOOTH",
"434 539 OFFCURVE",
"440 566 OFFCURVE",
"440 588 CURVE SMOOTH",
"440 607 OFFCURVE",
"433 641 OFFCURVE",
"408 641 CURVE SMOOTH",
"382 641 OFFCURVE",
"375 606 OFFCURVE",
"375 586 CURVE",
"312 586 LINE",
"312 740 LINE",
"252 740 LINE",
"252 586 LINE",
"78 586 LINE",
"78 539 LINE",
"127 539 LINE",
"127 332 LINE",
"49 332 LINE",
"49 286 LINE",
"252 286 LINE",
"252 6 LINE",
"312 6 LINE",
"312 286 LINE",
"436 286 LINE SMOOTH",
"462 286 OFFCURVE",
"469 316 OFFCURVE",
"469 337 CURVE SMOOTH"
);
}
);
vertWidth = 1000;
width = 500;
},
{
layerId = "39409886-7F43-4FCA-9A57-4D4CD31E7C44";
paths = (
{
closed = 1;
nodes = (
"186 331 LINE",
"186 538 LINE",
"250 538 LINE",
"250 331 LINE"
);
},
{
closed = 1;
nodes = (
"469 352 OFFCURVE",
"457 390 OFFCURVE",
"436 390 CURVE SMOOTH",
"412 390 OFFCURVE",
"403 349 OFFCURVE",
"403 331 CURVE",
"312 331 LINE",
"312 538 LINE",
"406 538 LINE SMOOTH",
"431 538 OFFCURVE",
"441 569 OFFCURVE",
"441 589 CURVE SMOOTH",
"441 606 OFFCURVE",
"429 642 OFFCURVE",
"408 642 CURVE SMOOTH",
"386 642 OFFCURVE",
"376 605 OFFCURVE",
"375 588 CURVE",
"312 588 LINE",
"312 742 LINE",
"250 742 LINE",
"250 588 LINE",
"76 588 LINE",
"76 538 LINE",
"125 538 LINE",
"125 331 LINE",
"47 331 LINE",
"47 282 LINE",
"250 282 LINE",
"250 0 LINE",
"312 0 LINE",
"312 282 LINE",
"437 282 LINE SMOOTH",
"460 282 OFFCURVE",
"469 317 OFFCURVE",
"469 335 CURVE SMOOTH"
);
}
);
vertWidth = 1000;
width = 500;
}
);
note = cid00391;
},
{
glyphname = "we-kata.half";
lastChange = "2021-04-19 16:42:50 +0000";
layers = (
{
layerId = "7C35F0AE-75E9-4EA7-B446-8B6431835EB7";
paths = (
{
closed = 1;
nodes = (
"480 238 OFFCURVE",
"475 277 OFFCURVE",
"448 277 CURVE SMOOTH",
"424 277 OFFCURVE",
"414 243 OFFCURVE",
"414 223 CURVE SMOOTH",
"414 202 OFFCURVE",
"423 167 OFFCURVE",
"449 169 CURVE SMOOTH",
"450 169 LINE",
"439 151 OFFCURVE",
"419 133 OFFCURVE",
"396 133 CURVE SMOOTH",
"273 133 LINE",
"273 343 LINE",
"385 381 OFFCURVE",
"418 512 OFFCURVE",
"425 617 CURVE",
"95 617 LINE",
"95 571 LINE",
"354 575 LINE",
"349 506 OFFCURVE",
"332 428 OFFCURVE",
"273 386 CURVE",
"273 455 LINE",
"219 455 LINE",
"219 133 LINE",
"52 133 LINE",
"52 76 LINE",
"153 76 OFFCURVE",
"254 75 OFFCURVE",
"355 75 CURVE SMOOTH",
"414 75 OFFCURVE",
"448 112 OFFCURVE",
"468 164 CURVE SMOOTH",
"474 181 OFFCURVE",
"480 200 OFFCURVE",
"480 219 CURVE SMOOTH"
);
}
);
vertWidth = 1000;
width = 500;
},
{
layerId = "C3C75DF7-0318-4740-9DA2-680DF808C9D5";
paths = (
{
closed = 1;
nodes = (
"483 241 OFFCURVE",
"477 277 OFFCURVE",
"448 277 CURVE SMOOTH",
"421 277 OFFCURVE",
"411 245 OFFCURVE",
"411 223 CURVE SMOOTH",
"411 201 OFFCURVE",
"419 169 OFFCURVE",
"447 169 CURVE",
"436 152 OFFCURVE",
"417 134 OFFCURVE",
"396 134 CURVE SMOOTH",
"276 134 LINE",
"276 343 LINE",
"388 382 OFFCURVE",
"421 513 OFFCURVE",
"428 618 CURVE",
"92 618 LINE",
"92 570 LINE",
"351 574 LINE",
"346 508 OFFCURVE",
"331 433 OFFCURVE",
"276 390 CURVE",
"276 456 LINE",
"216 456 LINE",
"216 134 LINE",
"49 134 LINE",
"49 75 LINE",
"151 75 OFFCURVE",
"253 74 OFFCURVE",
"355 74 CURVE SMOOTH",
"416 74 OFFCURVE",
"451 110 OFFCURVE",
"471 164 CURVE SMOOTH",
"478 181 OFFCURVE",
"483 200 OFFCURVE",
"483 219 CURVE SMOOTH"
);
}
);
vertWidth = 1000;
width = 500;
},
{
layerId = "39409886-7F43-4FCA-9A57-4D4CD31E7C44";
paths = (
{
closed = 1;
nodes = (
"492 233 OFFCURVE",
"485 275 OFFCURVE",
"460 275 CURVE SMOOTH",
"436 275 OFFCURVE",
"422 240 OFFCURVE",
"422 220 CURVE SMOOTH",
"422 201 OFFCURVE",
"428 168 OFFCURVE",
"451 164 CURVE",
"439 146 OFFCURVE",
"421 138 OFFCURVE",
"399 138 CURVE SMOOTH",
"275 138 LINE",
"275 346 LINE",
"386 369 OFFCURVE",
"423 522 OFFCURVE",
"428 619 CURVE",
"90 619 LINE",
"90 569 LINE",
"350 573 LINE",
"346 516 OFFCURVE",
"330 422 OFFCURVE",
"275 390 CURVE",
"275 456 LINE",
"214 456 LINE",
"214 138 LINE",
"43 138 LINE",
"43 70 LINE",
"148 70 OFFCURVE",
"253 69 OFFCURVE",
"358 69 CURVE SMOOTH",
"419 69 OFFCURVE",
"459 105 OFFCURVE",
"480 160 CURVE SMOOTH",
"487 177 OFFCURVE",
"492 197 OFFCURVE",
"492 215 CURVE SMOOTH"
);
}
);
vertWidth = 1000;
width = 500;
}
);
note = cid00392;
},
{
glyphname = "wasmall-kata.half";
lastChange = "2021-04-19 16:42:50 +0000";
layers = (
{
layerId = "7C35F0AE-75E9-4EA7-B446-8B6431835EB7";
paths = (
{
closed = 1;
nodes = (
"129 473 LINE",
"133 274 LINE",
"178 274 LINE",
"175 437 LINE",
"339 437 LINE",
"334 290 OFFCURVE",
"300 79 OFFCURVE",
"161 -3 CURVE",
"163 -3 LINE SMOOTH",
"159 -3 OFFCURVE",
"154 -6 OFFCURVE",
"154 -11 CURVE SMOOTH",
"154 -15 OFFCURVE",
"160 -16 OFFCURVE",
"163 -16 CURVE SMOOTH",
"182 -16 OFFCURVE",
"199 -10 OFFCURVE",
"216 -1 CURVE SMOOTH",
"353 69 OFFCURVE",
"392 334 OFFCURVE",
"393 473 CURVE"
);
}
);
vertWidth = 1000;
width = 500;
},
{
layerId = "C3C75DF7-0318-4740-9DA2-680DF808C9D5";
paths = (
{
closed = 1;
nodes = (
"126 473 LINE",
"130 274 LINE",
"181 274 LINE",
"178 436 LINE",
"336 436 LINE",
"331 284 OFFCURVE",
"297 84 OFFCURVE",
"158 -3 CURVE SMOOTH",
"154 -5 OFFCURVE",
"151 -6 OFFCURVE",
"151 -11 CURVE SMOOTH",
"151 -16 OFFCURVE",
"160 -16 OFFCURVE",
"163 -16 CURVE SMOOTH",
"183 -16 OFFCURVE",
"201 -11 OFFCURVE",
"219 -1 CURVE SMOOTH",
"356 70 OFFCURVE",
"395 333 OFFCURVE",
"396 473 CURVE"
);
}
);
vertWidth = 1000;
width = 500;
},
{
layerId = "39409886-7F43-4FCA-9A57-4D4CD31E7C44";
paths = (
{
closed = 1;
nodes = (
"128 477 LINE",
"131 275 LINE",
"181 275 LINE",
"177 441 LINE",
"341 441 LINE",
"336 304 OFFCURVE",
"310 134 OFFCURVE",
"210 31 CURVE SMOOTH",
"195 15 OFFCURVE",
"179 3 OFFCURVE",
"160 -7 CURVE SMOOTH",
"157 -9 OFFCURVE",
"153 -10 OFFCURVE",
"153 -15 CURVE SMOOTH",
"153 -19 OFFCURVE",
"160 -20 OFFCURVE",
"163 -20 CURVE SMOOTH",
"183 -20 OFFCURVE",
"201 -13 OFFCURVE",
"218 -4 CURVE SMOOTH",
"358 70 OFFCURVE",
"398 335 OFFCURVE",
"399 477 CURVE"
);
}
);
vertWidth = 1000;
width = 500;
}
);
note = cid00393;
},
{
glyphname = "kasmall-kata.half";
lastChange = "2021-04-19 16:42:50 +0000";
layers = (
{
layerId = "7C35F0AE-75E9-4EA7-B446-8B6431835EB7";
paths = (
{
closed = 1;
nodes = (
"353 461 OFFCURVE",
"310 460 OFFCURVE",
"267 460 CURVE",
"274 604 LINE",
"220 604 LINE",
"219 556 OFFCURVE",
"219 508 OFFCURVE",
"217 460 CURVE",
"105 460 LINE",
"105 417 LINE",
"215 419 LINE",
"209 309 OFFCURVE",
"188 156 OFFCURVE",
"128 62 CURVE SMOOTH",
"117 45 OFFCURVE",
"104 29 OFFCURVE",
"90 14 CURVE SMOOTH",
"87 11 OFFCURVE",
"87 11 OFFCURVE",
"87 6 CURVE SMOOTH",
"87 2 OFFCURVE",
"90 0 OFFCURVE",
"94 0 CURVE SMOOTH",
"102 0 OFFCURVE",
"127 17 OFFCURVE",
"133 23 CURVE SMOOTH",
"234 115 OFFCURVE",
"255 295 OFFCURVE",
"265 424 CURVE",
"347 424 LINE",
"346 343 OFFCURVE",
"345 263 OFFCURVE",
"339 182 CURVE SMOOTH",
"337 162 OFFCURVE",
"330 75 OFFCURVE",
"302 75 CURVE SMOOTH",
"280 75 OFFCURVE",
"258 107 OFFCURVE",
"247 107 CURVE SMOOTH",
"244 107 OFFCURVE",
"240 104 OFFCURVE",
"240 101 CURVE SMOOTH",
"240 98 OFFCURVE",
"242 96 OFFCURVE",
"243 94 CURVE SMOOTH",
"254 73 OFFCURVE",
"286 17 OFFCURVE",
"313 17 CURVE SMOOTH",
"355 17 OFFCURVE",
"369 70 OFFCURVE",
"376 103 CURVE SMOOTH",
"386 150 OFFCURVE",
"388 199 OFFCURVE",
"391 247 CURVE SMOOTH",
"395 318 OFFCURVE",
"396 389 OFFCURVE",
"396 461 CURVE"
);
}
);
vertWidth = 1000;
width = 500;
},
{
layerId = "C3C75DF7-0318-4740-9DA2-680DF808C9D5";
paths = (
{
closed = 1;
nodes = (
"356 461 OFFCURVE",
"313 461 OFFCURVE",
"270 460 CURVE",
"277 605 LINE",
"217 605 LINE",
"216 557 OFFCURVE",
"216 509 OFFCURVE",
"214 460 CURVE",
"102 460 LINE",
"102 416 LINE",
"212 418 LINE",
"206 307 OFFCURVE",
"185 157 OFFCURVE",
"125 62 CURVE SMOOTH",
"114 45 OFFCURVE",
"100 30 OFFCURVE",
"87 14 CURVE SMOOTH",
"84 11 OFFCURVE",
"84 10 OFFCURVE",
"84 6 CURVE SMOOTH",
"84 2 OFFCURVE",
"90 -1 OFFCURVE",
"94 -1 CURVE SMOOTH",
"102 -1 OFFCURVE",
"129 17 OFFCURVE",
"136 23 CURVE SMOOTH",
"237 115 OFFCURVE",
"258 294 OFFCURVE",
"268 423 CURVE",
"344 423 LINE",
"343 343 OFFCURVE",
"342 263 OFFCURVE",
"336 182 CURVE SMOOTH",
"335 164 OFFCURVE",
"327 76 OFFCURVE",
"302 76 CURVE SMOOTH",
"282 76 OFFCURVE",
"263 108 OFFCURVE",
"247 108 CURVE SMOOTH",
"244 108 OFFCURVE",
"237 104 OFFCURVE",
"237 101 CURVE SMOOTH",
"237 98 OFFCURVE",
"239 96 OFFCURVE",
"240 94 CURVE SMOOTH",
"253 70 OFFCURVE",
"283 16 OFFCURVE",
"313 16 CURVE SMOOTH",
"357 16 OFFCURVE",
"372 68 OFFCURVE",
"379 103 CURVE SMOOTH",
"389 150 OFFCURVE",
"391 199 OFFCURVE",
"394 247 CURVE SMOOTH",
"398 318 OFFCURVE",
"399 390 OFFCURVE",
"399 461 CURVE"
);
}
);
vertWidth = 1000;
width = 500;
},
{
layerId = "39409886-7F43-4FCA-9A57-4D4CD31E7C44";
paths = (
{
closed = 1;
nodes = (
"268 429 LINE",
"275 577 LINE",
"217 577 LINE",
"214 429 LINE",
"100 429 LINE",
"100 385 LINE",
"211 387 LINE",
"206 288 OFFCURVE",
"190 157 OFFCURVE",
"151 65 CURVE SMOOTH",
"136 30 OFFCURVE",
"115 1 OFFCURVE",
"91 -28 CURVE SMOOTH",
"89 -31 OFFCURVE",
"86 -34 OFFCURVE",
"86 -38 CURVE SMOOTH",
"86 -41 OFFCURVE",
"88 -46 OFFCURVE",
"92 -46 CURVE SMOOTH",
"100 -46 OFFCURVE",
"125 -27 OFFCURVE",
"131 -21 CURVE SMOOTH",
"230 72 OFFCURVE",
"257 264 OFFCURVE",
"267 392 CURVE",
"345 392 LINE",
"343 340 OFFCURVE",
"347 33 OFFCURVE",
"297 33 CURVE SMOOTH",
"269 33 OFFCURVE",
"254 64 OFFCURVE",
"238 71 CURVE",
"236 70 OFFCURVE",
"235 68 OFFCURVE",
"235 66 CURVE SMOOTH",
"235 51 OFFCURVE",
"283 -41 OFFCURVE",
"308 -41 CURVE SMOOTH",
"352 -41 OFFCURVE",
"370 25 OFFCURVE",
"377 58 CURVE SMOOTH",
"388 106 OFFCURVE",
"391 157 OFFCURVE",
"394 207 CURVE SMOOTH",
"398 281 OFFCURVE",
"399 355 OFFCURVE",
"399 429 CURVE"
);
}
);
vertWidth = 1000;
width = 500;
}
);
note = cid00394;
},
{
glyphname = "kesmall-kata.half";
lastChange = "2021-04-19 16:42:50 +0000";
layers = (
{
layerId = "7C35F0AE-75E9-4EA7-B446-8B6431835EB7";
paths = (
{
closed = 1;
nodes = (
"429 490 OFFCURVE",
"422 524 OFFCURVE",
"400 524 CURVE SMOOTH",
"379 524 OFFCURVE",
"371 490 OFFCURVE",
"371 473 CURVE SMOOTH",
"371 472 OFFCURVE",
"371 470 OFFCURVE",
"372 468 CURVE",
"181 468 LINE",
"193 512 OFFCURVE",
"200 556 OFFCURVE",
"206 601 CURVE",
"154 619 LINE",
"147 515 OFFCURVE",
"130 399 OFFCURVE",
"91 301 CURVE SMOOTH",
"90 298 OFFCURVE",
"88 294 OFFCURVE",
"88 290 CURVE SMOOTH",
"88 288 OFFCURVE",
"92 285 OFFCURVE",
"94 285 CURVE SMOOTH",
"97 285 OFFCURVE",
"102 288 OFFCURVE",
"104 290 CURVE SMOOTH",
"136 317 OFFCURVE",
"162 387 OFFCURVE",
"173 427 CURVE",
"269 427 LINE",
"269 329 OFFCURVE",
"260 207 OFFCURVE",
"224 116 CURVE SMOOTH",
"205 68 OFFCURVE",
"178 39 OFFCURVE",
"137 9 CURVE SMOOTH",
"135 8 OFFCURVE",
"132 6 OFFCURVE",
"132 2 CURVE SMOOTH",
"132 -3 OFFCURVE",
"137 -5 OFFCURVE",
"141 -5 CURVE SMOOTH",
"170 -5 OFFCURVE",
"210 25 OFFCURVE",
"228 47 CURVE SMOOTH",
"307 147 OFFCURVE",
"319 304 OFFCURVE",
"321 427 CURVE",
"396 427 LINE SMOOTH",
"422 427 OFFCURVE",
"429 452 OFFCURVE",
"429 473 CURVE SMOOTH"
);
}
);
vertWidth = 1000;
width = 500;
},
{
layerId = "C3C75DF7-0318-4740-9DA2-680DF808C9D5";
paths = (
{
closed = 1;
nodes = (
"432 496 OFFCURVE",
"424 528 OFFCURVE",
"400 528 CURVE SMOOTH",
"376 528 OFFCURVE",
"368 496 OFFCURVE",
"368 477 CURVE SMOOTH",
"368 475 OFFCURVE",
"368 473 OFFCURVE",
"369 472 CURVE",
"184 472 LINE",
"196 515 OFFCURVE",
"203 560 OFFCURVE",
"209 604 CURVE",
"151 624 LINE",
"144 516 OFFCURVE",
"128 406 OFFCURVE",
"88 304 CURVE SMOOTH",
"87 301 OFFCURVE",
"85 297 OFFCURVE",
"85 293 CURVE SMOOTH",
"85 291 OFFCURVE",
"92 287 OFFCURVE",
"94 287 CURVE SMOOTH",
"128 287 OFFCURVE",
"168 402 OFFCURVE",
"176 430 CURVE",
"266 430 LINE",
"266 331 OFFCURVE",
"257 211 OFFCURVE",
"221 119 CURVE SMOOTH",
"202 71 OFFCURVE",
"176 43 OFFCURVE",
"134 13 CURVE",
"132 11 OFFCURVE",
"129 9 OFFCURVE",
"129 6 CURVE SMOOTH",
"129 0 OFFCURVE",
"137 -3 OFFCURVE",
"141 -3 CURVE SMOOTH",
"172 -3 OFFCURVE",
"212 27 OFFCURVE",
"231 50 CURVE SMOOTH",
"311 152 OFFCURVE",
"322 305 OFFCURVE",
"324 430 CURVE",
"396 430 LINE SMOOTH",
"423 430 OFFCURVE",
"432 453 OFFCURVE",
"432 477 CURVE SMOOTH"
);
}
);
vertWidth = 1000;
width = 500;
},
{
layerId = "39409886-7F43-4FCA-9A57-4D4CD31E7C44";
paths = (
{
closed = 1;
nodes = (
"423 450 OFFCURVE",
"415 484 OFFCURVE",
"394 484 CURVE SMOOTH",
"371 484 OFFCURVE",
"365 441 OFFCURVE",
"365 425 CURVE",
"177 425 LINE",
"188 468 OFFCURVE",
"197 512 OFFCURVE",
"202 557 CURVE",
"146 584 LINE",
"140 498 OFFCURVE",
"127 412 OFFCURVE",
"105 328 CURVE SMOOTH",
"101 314 OFFCURVE",
"78 252 OFFCURVE",
"78 246 CURVE SMOOTH",
"78 243 OFFCURVE",
"79 240 OFFCURVE",
"82 239 CURVE",
"95 240 OFFCURVE",
"117 271 OFFCURVE",
"125 282 CURVE SMOOTH",
"144 313 OFFCURVE",
"157 350 OFFCURVE",
"168 385 CURVE",
"260 385 LINE",
"260 282 OFFCURVE",
"247 153 OFFCURVE",
"210 57 CURVE SMOOTH",
"193 16 OFFCURVE",
"165 -19 OFFCURVE",
"130 -44 CURVE SMOOTH",
"125 -47 OFFCURVE",
"114 -52 OFFCURVE",
"114 -59 CURVE SMOOTH",
"114 -64 OFFCURVE",
"121 -66 OFFCURVE",
"125 -66 CURVE SMOOTH",
"154 -66 OFFCURVE",
"199 -36 OFFCURVE",
"218 -13 CURVE SMOOTH",
"300 89 OFFCURVE",
"314 258 OFFCURVE",
"317 384 CURVE",
"389 384 LINE SMOOTH",
"415 384 OFFCURVE",
"423 412 OFFCURVE",
"423 434 CURVE SMOOTH"
);
}
);
vertWidth = 1000;
width = 500;
}
);
note = cid00395;
},
{
glyphname = "vu-kata.half";
lastChange = "2021-04-19 16:42:50 +0000";
layers = (
{
layerId = "7C35F0AE-75E9-4EA7-B446-8B6431835EB7";
paths = (
{
closed = 1;
nodes = (
"270 581 LINE",
"278 613 OFFCURVE",
"301 684 OFFCURVE",
"301 714 CURVE SMOOTH",
"301 718 OFFCURVE",
"301 725 OFFCURVE",
"298 728 CURVE SMOOTH",
"292 735 OFFCURVE",
"231 744 OFFCURVE",
"218 745 CURVE",
"221 690 OFFCURVE",
"226 636 OFFCURVE",
"230 581 CURVE",
"88 581 LINE",
"92 332 LINE",
"146 332 LINE",
"142 541 LINE",
"359 541 LINE",
"356 382 OFFCURVE",
"320 189 OFFCURVE",
"207 69 CURVE SMOOTH",
"187 48 OFFCURVE",
"162 27 OFFCURVE",
"137 12 CURVE SMOOTH",
"129 7 OFFCURVE",
"120 4 OFFCURVE",
"112 -1 CURVE SMOOTH",
"108 -4 OFFCURVE",
"105 -8 OFFCURVE",
"105 -13 CURVE SMOOTH",
"105 -19 OFFCURVE",
"115 -20 OFFCURVE",
"119 -20 CURVE SMOOTH",
"136 -20 OFFCURVE",
"155 -10 OFFCURVE",
"170 -3 CURVE SMOOTH",
"274 46 OFFCURVE",
"324 123 OFFCURVE",
"364 228 CURVE SMOOTH",
"403 331 OFFCURVE",
"424 470 OFFCURVE",
"425 581 CURVE"
);
},
{
closed = 1;
nodes = (
"424 803 OFFCURVE",
"417 799 OFFCURVE",
"404 799 CURVE SMOOTH",
"398 799 OFFCURVE",
"379 799 OFFCURVE",
"379 791 CURVE SMOOTH",
"379 779 OFFCURVE",
"386 659 OFFCURVE",
"387 657 CURVE SMOOTH",
"389 653 OFFCURVE",
"390 652 OFFCURVE",
"394 652 CURVE SMOOTH",
"409 652 OFFCURVE",
"424 767 OFFCURVE",
"424 787 CURVE SMOOTH"
);
},
{
closed = 1;
nodes = (
"482 810 OFFCURVE",
"474 809 OFFCURVE",
"468 809 CURVE SMOOTH",
"459 809 OFFCURVE",
"449 809 OFFCURVE",
"439 807 CURVE",
"438 805 OFFCURVE",
"437 803 OFFCURVE",
"437 800 CURVE SMOOTH",
"437 756 OFFCURVE",
"442 711 OFFCURVE",
"445 667 CURVE",
"446 663 OFFCURVE",
"448 661 OFFCURVE",
"452 661 CURVE SMOOTH",
"468 661 OFFCURVE",
"482 781 OFFCURVE",
"482 801 CURVE SMOOTH"
);
}
);
vertWidth = 1000;
width = 500;
},
{
layerId = "C3C75DF7-0318-4740-9DA2-680DF808C9D5";
paths = (
{
closed = 1;
nodes = (
"273 581 LINE",
"282 616 OFFCURVE",
"304 681 OFFCURVE",
"304 714 CURVE SMOOTH",
"304 718 OFFCURVE",
"304 725 OFFCURVE",
"301 728 CURVE SMOOTH",
"294 736 OFFCURVE",
"228 745 OFFCURVE",
"215 746 CURVE",
"218 691 OFFCURVE",
"223 636 OFFCURVE",
"227 581 CURVE",
"85 581 LINE",
"89 331 LINE",
"149 331 LINE",
"145 540 LINE",
"356 540 LINE",
"353 379 OFFCURVE",
"317 191 OFFCURVE",
"204 69 CURVE SMOOTH",
"184 48 OFFCURVE",
"159 26 OFFCURVE",
"134 12 CURVE SMOOTH",
"126 7 OFFCURVE",
"117 4 OFFCURVE",
"109 -1 CURVE SMOOTH",
"105 -4 OFFCURVE",
"102 -8 OFFCURVE",
"102 -13 CURVE SMOOTH",
"102 -20 OFFCURVE",
"115 -20 OFFCURVE",
"119 -20 CURVE SMOOTH",
"138 -20 OFFCURVE",
"156 -11 OFFCURVE",
"173 -3 CURVE SMOOTH",
"277 48 OFFCURVE",
"327 121 OFFCURVE",
"367 228 CURVE SMOOTH",
"406 333 OFFCURVE",
"427 469 OFFCURVE",
"428 581 CURVE"
);
},
{
closed = 1;
nodes = (
"411 803 OFFCURVE",
"408 807 OFFCURVE",
"405 807 CURVE SMOOTH",
"394 807 OFFCURVE",
"374 806 OFFCURVE",
"365 803 CURVE SMOOTH",
"363 802 OFFCURVE",
"362 801 OFFCURVE",
"362 797 CURVE SMOOTH",
"362 779 OFFCURVE",
"364 750 OFFCURVE",
"365 733 CURVE SMOOTH",
"367 711 OFFCURVE",
"368 687 OFFCURVE",
"371 667 CURVE SMOOTH",
"372 661 OFFCURVE",
"374 657 OFFCURVE",
"378 657 CURVE SMOOTH",
"381 657 OFFCURVE",
"383 660 OFFCURVE",
"385 663 CURVE SMOOTH",
"394 676 OFFCURVE",
"411 772 OFFCURVE",
"411 796 CURVE SMOOTH"
);
},
{
closed = 1;
nodes = (
"477 806 OFFCURVE",
"474 810 OFFCURVE",
"471 810 CURVE SMOOTH",
"458 810 OFFCURVE",
"442 808 OFFCURVE",
"431 806 CURVE",
"429 805 OFFCURVE",
"428 805 OFFCURVE",
"428 800 CURVE SMOOTH",
"428 789 OFFCURVE",
"433 676 OFFCURVE",
"434 669 CURVE SMOOTH",
"435 663 OFFCURVE",
"437 659 OFFCURVE",
"440 659 CURVE SMOOTH",
"443 659 OFFCURVE",
"446 662 OFFCURVE",
"448 665 CURVE SMOOTH",
"457 677 OFFCURVE",
"477 776 OFFCURVE",
"477 799 CURVE SMOOTH"
);
}
);
vertWidth = 1000;
width = 500;
},
{
layerId = "39409886-7F43-4FCA-9A57-4D4CD31E7C44";
paths = (
{
closed = 1;
nodes = (
"267 576 LINE",
"274 605 OFFCURVE",
"296 684 OFFCURVE",
"296 709 CURVE SMOOTH",
"296 714 OFFCURVE",
"296 719 OFFCURVE",
"294 723 CURVE SMOOTH",
"290 731 OFFCURVE",
"219 740 OFFCURVE",
"206 742 CURVE",
"218 576 LINE",
"75 576 LINE",
"80 320 LINE",
"142 320 LINE",
"137 531 LINE",
"348 531 LINE",
"343 370 OFFCURVE",
"309 180 OFFCURVE",
"195 58 CURVE SMOOTH",
"173 34 OFFCURVE",
"148 14 OFFCURVE",
"120 -3 CURVE SMOOTH",
"112 -8 OFFCURVE",
"104 -12 OFFCURVE",
"97 -18 CURVE",
"93 -20 OFFCURVE",
"91 -25 OFFCURVE",
"91 -29 CURVE SMOOTH",
"91 -34 OFFCURVE",
"96 -36 OFFCURVE",
"100 -36 CURVE SMOOTH",
"112 -36 OFFCURVE",
"126 -33 OFFCURVE",
"138 -30 CURVE SMOOTH",
"249 -2 OFFCURVE",
"323 117 OFFCURVE",
"360 217 CURVE SMOOTH",
"399 322 OFFCURVE",
"420 464 OFFCURVE",
"421 576 CURVE"
);
},
{
closed = 1;
nodes = (
"394 800 OFFCURVE",
"393 808 OFFCURVE",
"388 808 CURVE SMOOTH",
"380 808 OFFCURVE",
"355 807 OFFCURVE",
"348 804 CURVE SMOOTH",
"345 803 OFFCURVE",
"345 801 OFFCURVE",
"345 798 CURVE SMOOTH",
"345 763 OFFCURVE",
"348 701 OFFCURVE",
"354 668 CURVE SMOOTH",
"355 664 OFFCURVE",
"356 658 OFFCURVE",
"361 658 CURVE SMOOTH",
"377 658 OFFCURVE",
"394 777 OFFCURVE",
"394 797 CURVE SMOOTH"
);
},
{
closed = 1;
nodes = (
"463 803 OFFCURVE",
"462 811 OFFCURVE",
"457 811 CURVE SMOOTH",
"445 811 OFFCURVE",
"429 811 OFFCURVE",
"417 807 CURVE SMOOTH",
"414 806 OFFCURVE",
"414 804 OFFCURVE",
"414 801 CURVE SMOOTH",
"414 774 OFFCURVE",
"416 746 OFFCURVE",
"417 719 CURVE SMOOTH",
"418 704 OFFCURVE",
"417 685 OFFCURVE",
"420 670 CURVE SMOOTH",
"421 667 OFFCURVE",
"422 660 OFFCURVE",
"426 660 CURVE SMOOTH",
"443 660 OFFCURVE",
"463 781 OFFCURVE",
"463 800 CURVE SMOOTH"
);
}
);
vertWidth = 1000;
width = 500;
}
);
note = cid00396;
},
